<?xml version="1.0" encoding="UTF-8" standalone="no"?>
<!DOCTYPE svg  PUBLIC '-//W3C//DTD SVG 1.1//EN'  'http://www.w3.org/Graphics/SVG/1.1/DTD/svg11.dtd'>
<svg version="1.1" xmlns="http://www.w3.org/2000/svg">
<defs>
<font id="PlayfairDisplay-Black" horiz-adv-x="1030">
<font-face bbox="-557 -399 2456 1958" font-weight="900" underline-position="-130" units-per-em="2048" font-family="Playfair Display Black" ascent="1638" unicode-range="U+0020-2212" panose-1="0 0 10 0 0 0 0 0 0 0" descent="-410" underline-thickness="20" cap-height="1450" x-height="1063"/>
<missing-glyph/>
<glyph horiz-adv-x="457" glyph-name="space" unicode=" "/>
<glyph d="M259 658q-29 123 -96 345.5t-67 339.5q0 78 27.5 136.5t77 90.5t112.5 32q57 0 107 -32.5t80 -91.5t30 -135q0 -117 -60 -317t-95 -331.5t-43 -293.5h-37q-7 134 -36 257zM464.5 279q52.5 -45 52.5 -132q0 -86 -52.5 -131t-150.5 -45q-99 0 -151 44.5t-52 131.5t52 132 t151 45q98 0 150.5 -45z" horiz-adv-x="627" glyph-name="exclam" unicode="!"/>
<glyph d="M539.5 1111.5q-44.5 81.5 -62 123.5t-17.5 94q0 49 21.5 87t59.5 58.5t85 20.5q73 0 119.5 -45t46.5 -119q0 -46 -14.5 -84t-60.5 -123t-76 -166h-29q-28 72 -72.5 153.5zM140.5 1111.5q-44.5 81.5 -62 123.5t-17.5 94q0 49 21.5 87t59.5 58.5t85 20.5q73 0 119.5 -45 t46.5 -119q0 -46 -14.5 -84t-60.5 -123t-76 -166h-29q-28 72 -72.5 153.5z" horiz-adv-x="854" glyph-name="quotedbl" unicode='&quot;'/>
<glyph d="M803 547h301l-8 -41h-301l-58 -299h-41l58 299h-342l-58 -299h-41l58 299h-301l8 41h301l66 342h-300l7 41h301l59 303h41l-59 -303h342l59 303h41l-59 -303h301l-7 -41h-302zM486 889l-66 -342h342l66 342h-342z" horiz-adv-x="1247" glyph-name="numbersign" unicode="#"/>
<glyph d="M846 840q108 -71 178 -133t112 -143t42 -187q0 -164 -111 -264t-293 -130v-253h-41v247q-54 -6 -112 -6q-33 0 -64 2v-243h-41v247q-65 8 -111 22.5t-76.5 27.5t-41.5 18q-8 3 -30.5 12.5t-39 14t-29.5 4.5q-18 0 -28 -21t-17 -69h-47q8 139 8 594h48q17 -200 58.5 -316 t114.5 -171t191 -68v553l-45 32q-119 79 -194.5 143.5t-123 148.5t-47.5 190q0 113 54.5 194t147 127.5t208.5 59.5v247h41v-243q28 2 57 2q64 0 119 -8v249h41v-256q83 -17 172 -67q29 -16 43 -22.5t27 -6.5q19 0 29 21.5t16 68.5h47q-10 -147 -10 -500h-47 q-19 132 -50.5 223.5t-86.5 151.5t-140 83v-529zM657 1430q-56 0 -100 -10v-375q68 -56 176 -130v509q-36 6 -76 6zM416 1266q0 -33 5 -56t26.5 -55t68.5 -75v328q-100 -39 -100 -142zM618 20q65 0 115 9v390q-68 53 -176 130v-527q28 -2 61 -2zM901 190q0 34 -7 57t-34 56 t-86 82v-347q127 37 127 152z" horiz-adv-x="1245" glyph-name="dollar" unicode="$"/>
<glyph d="M125 -86l1198 1774l39 -27l-1198 -1774zM601 1519q79 -40 123 -115t44 -179q0 -102 -45.5 -180t-125 -121t-179.5 -43q-104 0 -183.5 39.5t-124 115t-44.5 178.5q0 101 46 179.5t126 122t180 43.5q104 0 183 -40zM297 1217q0 -147 33 -223t92 -76q115 0 115 303 q0 148 -32 224.5t-91 76.5q-117 0 -117 -305zM1240 609q79 -40 123 -115t44 -179q0 -101 -45.5 -179.5t-125.5 -121.5t-179 -43q-104 0 -183.5 40t-124 115t-44.5 179q0 101 46 179t126 121.5t180 43.5q104 0 183 -40zM936 307q0 -146 33 -222.5t92 -76.5q115 0 115 303 q0 148 -32 224.5t-91 76.5q-117 0 -117 -305z" horiz-adv-x="1473" glyph-name="percent" unicode="%"/>
<glyph d="M1797.5 936.5q-98.5 -91.5 -293.5 -139.5q63 -42 100.5 -126.5t37.5 -189.5q0 -153 -97.5 -268.5t-270.5 -178.5t-393 -63q-257 0 -439.5 61.5t-278 176.5t-95.5 272q0 142 77.5 239t176.5 147.5t186 70.5q-113 41 -180.5 99.5t-67.5 154.5t68.5 157t171 88t209.5 27 q75 0 122 -6.5t91 -21.5q63 -22 109 -66.5t46 -116.5q0 -46 -25 -81t-67.5 -54.5t-93.5 -19.5q-78 0 -127 36.5t-49 106.5q0 58 40 106t105 64q-46 16 -121 16t-135.5 -31.5t-96.5 -95.5t-36 -157q0 -107 64 -193q66 19 106 19q36 0 54 -16.5t18 -43.5q0 -20 -17 -32.5 t-41 -12.5q-52 0 -118 58q-90 -65 -137.5 -141t-47.5 -187q0 -192 159 -280.5t470 -88.5q140 0 274 39t221 117t87 188q0 64 -16 120t-76 100q-63 -14 -138 -25q-91 -14 -147 -25q-154 -28 -246 -54.5t-139 -64t-47 -92.5q0 -48 35 -86t91 -59t117 -21q14 0 56 5 q-58 21 -83.5 62t-25.5 91q0 73 55.5 113.5t143.5 40.5q90 0 140 -42.5t50 -115.5q0 -98 -84.5 -145t-236.5 -47q-99 0 -175.5 31.5t-119.5 94t-43 152.5q0 186 147.5 286.5t425.5 141.5q30 4 88.5 14.5t89.5 14.5q132 22 216.5 46.5t132 63t47.5 97.5q0 51 -33.5 90 t-86 60.5t-108.5 21.5q-23 0 -55 -4q61 -22 94 -65t33 -89q0 -73 -53.5 -112.5t-141.5 -39.5q-90 0 -142 43t-52 115q0 88 69 140.5t207 52.5q104 0 181.5 -35t120 -102t42.5 -160q0 -154 -98.5 -245.5z" horiz-adv-x="1921" glyph-name="ampersand" unicode="&amp;"/>
<glyph d="M140.5 1111.5q-44.5 81.5 -62 123.5t-17.5 94q0 49 21.5 87t59.5 58.5t85 20.5q73 0 119.5 -45t46.5 -119q0 -46 -14.5 -84t-60.5 -123t-76 -166h-29q-28 72 -72.5 153.5z" horiz-adv-x="455" glyph-name="quotesingle" unicode="&apos;"/>
<glyph d="M198 1226.5q-139 -246.5 -139 -587.5t139 -587.5t414 -424.5l31 25q-117 234 -172 467.5t-55 519.5q0 285 56 522.5t171 464.5l-31 25q-275 -178 -414 -424.5z" horiz-adv-x="684" glyph-name="parenleft" unicode="("/>
<glyph d="M486 1226.5q139 -246.5 139 -587.5t-139 -587.5t-414 -424.5l-31 25q117 234 172 467.5t55 519.5q0 285 -56 522.5t-171 464.5l31 25q275 -178 414 -424.5z" horiz-adv-x="684" glyph-name="parenright" unicode=")"/>
<glyph d="M880 912q0 -33 -20 -66q-36 -63 -93 -63q-30 0 -60 18q-32 18 -60.5 50.5t-76 96.5t-76.5 100q16 -40 48.5 -116t46 -117.5t13.5 -75.5q0 -57 -33.5 -83.5t-81.5 -26.5q-50 0 -83 26.5t-33 83.5q0 37 14 79t45.5 114.5t47.5 112.5q-27 -33 -76 -98.5t-78 -98t-58 -49.5 q-31 -18 -60 -18q-30 0 -54 18t-39 45q-21 34 -21 68q0 54 58 87q31 18 73.5 26.5t122 17.5t124.5 16q-41 6 -123.5 16t-125 19t-71.5 26q-59 33 -59 90q0 33 20 66q34 63 93 63q30 0 60 -18q32 -18 61 -51t76 -97t75 -98q-16 39 -48 114.5t-45.5 117t-13.5 75.5q0 57 34 84 t82 27q49 0 82 -27t33 -84q0 -35 -13.5 -75.5t-45 -113t-47.5 -115.5q26 33 75.5 98.5t78 97.5t57.5 49q32 18 59 18q59 0 94 -63q21 -34 21 -68q0 -55 -58 -88q-31 -18 -73 -26.5t-120 -17.5t-122 -16q41 -6 121.5 -16t123 -19t70.5 -26q59 -33 59 -89zM486 1061h-2l1 -1z " horiz-adv-x="969" glyph-name="asterisk" unicode="*"/>
<glyph d="M1092 758v-62h-476v-481h-73v481h-477v62h477v483h73v-483h476z" horiz-adv-x="1157" glyph-name="plus" unicode="+"/>
<glyph d="M350 -175q42 46 58 97q11 36 11 68q0 20 -5 45q-55 -64 -150 -64q-82 0 -131 46.5t-49 129.5q0 80 53 128.5t139 48.5q54 0 96 -19.5t66 -56.5q23 -30 37 -82t14 -113q0 -107 -55 -197t-162 -139l-18 37q54 25 96 71z" horiz-adv-x="569" glyph-name="comma" unicode=","/>
<glyph d="M111 455v202h739v-202h-739z" horiz-adv-x="961" glyph-name="hyphen" unicode="-"/>
<glyph d="M439.5 279q52.5 -45 52.5 -132q0 -86 -52.5 -131t-150.5 -45q-99 0 -151 44.5t-52 131.5t52 132t151 45q98 0 150.5 -45z" horiz-adv-x="578" glyph-name="period" unicode="."/>
<glyph d="M63 -29l558 1508h67l-557 -1508h-68z" horiz-adv-x="750" glyph-name="slash" unicode="/"/>
<glyph d="M1012 1024q136 -68 212 -191.5t76 -283.5q0 -163 -78 -295t-219 -207.5t-323 -75.5q-172 0 -308 67.5t-213 191.5t-77 286t77.5 293t218.5 207t324 76q174 0 310 -68zM570.5 991q-49.5 -64 -77.5 -184.5t-28 -284.5q0 -176 31 -291.5t83.5 -169t118.5 -53.5 q64 0 114 64.5t78 185.5t28 285q0 175 -31.5 290t-84 168.5t-118.5 53.5q-64 0 -113.5 -64z" horiz-adv-x="1382" glyph-name="zero" unicode="0"/>
<glyph d="M629 101q11 -32 36 -45t68 -13v-43q-220 8 -282 8q-73 0 -377 -8v43q89 0 132.5 36.5t43.5 131.5v504q0 98 -15.5 144.5t-51.5 61.5t-109 15v45q197 3 323 26.5t221 77.5v-895q0 -57 11 -89z" horiz-adv-x="803" glyph-name="one" unicode="1"/>
<glyph d="M281.5 1024q125.5 68 322.5 68q112 0 195 -31t127.5 -90.5t44.5 -141.5q0 -118 -93 -202t-260 -181t-221 -145h463q56 0 83 7.5t37.5 24.5t16.5 52h47q0 -263 9 -395q-46 10 -305 10h-674v43q25 25 169.5 154t234 268.5t89.5 282.5q0 104 -44.5 152t-137.5 48 q-87 0 -152.5 -34.5t-121.5 -102.5l-35 25q80 120 205.5 188z" horiz-adv-x="1133" glyph-name="two" unicode="2"/>
<glyph d="M242 1022.5q108 69.5 288 69.5q112 0 200 -28.5t138 -82.5t50 -127q0 -77 -56 -146t-166.5 -119.5t-267.5 -72.5q25 2 74 2q147 0 257.5 -38t171 -109t60.5 -168q0 -151 -139.5 -267.5t-358 -180.5t-444.5 -64v43q129 5 259.5 60.5t217 160t86.5 246.5q0 79 -25.5 141.5 t-73.5 99t-114 41.5q-42 -18 -64.5 -26t-47.5 -8q-21 0 -31 7t-10 25q0 24 20.5 35.5t52.5 11.5q15 0 36.5 -2.5t35.5 -3.5q158 104 158 260q0 89 -48.5 134t-135.5 45q-79 0 -148 -38t-117 -108l-37 21q71 117 179 186.5z" horiz-adv-x="1049" glyph-name="three" unicode="3"/>
<glyph d="M1071 39q-29 6 -205 9v-337h-286v338h-576v43l830 1000h32v-783h13q56 0 83 7.5t38 24.5t16 52h47q0 -247 8 -354zM580 721l-340 -412h340v412z" horiz-adv-x="1126" glyph-name="four" unicode="4"/>
<glyph d="M866 750q-44 10 -284 10h-381l-39 -320q57 43 148 69t208 26q140 0 235.5 -43.5t142 -117.5t46.5 -167q0 -152 -131.5 -268t-340 -179t-429.5 -63v37q133 1 253 57.5t194.5 162t74.5 245.5q0 127 -55.5 194.5t-163.5 67.5q-60 0 -106 -19t-91 -57l-32 23l82 661 q40 -8 110 -8h408q46 0 69 14.5t27 48.5h47q0 -262 8 -374z" horiz-adv-x="1001" glyph-name="five" unicode="5"/>
<glyph d="M759 1334.5q-98 -62.5 -173 -193.5t-102 -350q76 114 251 114q118 0 215 -54.5t153 -154.5t56 -233q0 -154 -74.5 -265t-200.5 -169t-276 -58q-162 0 -279.5 69t-180 200t-62.5 315q0 285 141.5 483.5t346.5 305t411 137.5l8 -41q-136 -43 -234 -105.5zM703 57 q33 45 53 142t20 245q0 208 -39 305t-104 97q-40 0 -85.5 -34.5t-72.5 -103.5q-6 -81 -6 -173q0 -185 23.5 -302t60.5 -169t78 -52q39 0 72 45z" horiz-adv-x="1210" glyph-name="six" unicode="6"/>
<glyph d="M876 777q-107 -188 -170 -365t-63 -367q2 -21 6 -83t4 -85q0 -47 -20 -88t-62 -66.5t-104 -25.5q-93 0 -139.5 59t-46.5 164q0 156 109.5 318t251.5 320.5t178 201.5h-584q-56 0 -83.5 -7.5t-38 -24.5t-16.5 -52h-47q0 278 -8 395q46 -10 305 -10h660v-43 q-25 -53 -132 -241z" horiz-adv-x="999" glyph-name="seven" unicode="7"/>
<glyph d="M966 694.5q66 -67.5 117.5 -156.5t51.5 -184q0 -109 -70.5 -196.5t-194.5 -137t-278 -49.5q-141 0 -258.5 41.5t-187.5 121.5t-70 192q0 234 336 371q-84 75 -140.5 139.5t-92.5 140t-36 160.5q0 115 65.5 192t173 113.5t234.5 36.5q132 0 233 -38t156.5 -104t55.5 -149 q0 -93 -72.5 -162.5t-224.5 -137.5q136 -126 202 -193.5zM516.5 1404.5q-29.5 -37.5 -29.5 -99.5q0 -95 64 -185.5t183 -203.5q22 50 31 125.5t9 136.5q0 126 -45 195t-125 69q-58 0 -87.5 -37.5zM733.5 60.5q42.5 52.5 42.5 136.5q0 88 -45.5 167t-105.5 138.5t-181 165.5 q-65 -104 -65 -301q0 -359 223 -359q89 0 131.5 52.5z" horiz-adv-x="1204" glyph-name="eight" unicode="8"/>
<glyph d="M450.5 -185q92.5 53 164.5 161.5t102 288.5q-77 -107 -246 -107q-118 0 -214.5 54.5t-153 154.5t-56.5 233q0 154 74.5 265t200.5 169t276 58q162 0 279.5 -69t180 -200t62.5 -315q0 -253 -138 -430.5t-339.5 -273t-400.5 -119.5l-9 41q125 36 217.5 89zM656.5 249.5 q44.5 32.5 71.5 97.5q9 84 9 181q0 185 -23.5 302t-60.5 169t-78 52q-39 0 -71.5 -45t-53 -142.5t-20.5 -245.5q0 -207 39.5 -304t103.5 -97q39 0 83.5 32.5z" horiz-adv-x="1192" glyph-name="nine" unicode="9"/>
<glyph d="M464.5 279q52.5 -45 52.5 -132q0 -86 -52.5 -131t-150.5 -45q-99 0 -151 44.5t-52 131.5t52 132t151 45q98 0 150.5 -45zM464.5 1047q52.5 -45 52.5 -132q0 -86 -52.5 -131t-150.5 -45q-99 0 -151 44.5t-52 131.5t52 132t151 45q98 0 150.5 -45z" horiz-adv-x="627" glyph-name="colon" unicode=":"/>
<glyph d="M375 -175q42 46 58 97q11 36 11 68q0 20 -5 45q-55 -64 -150 -64q-82 0 -131 46.5t-49 129.5q0 80 53 128.5t139 48.5q54 0 96 -19.5t66 -56.5q23 -30 37 -82t14 -113q0 -107 -55 -197t-162 -139l-18 37q54 25 96 71zM462.5 1047q52.5 -45 52.5 -132q0 -86 -52.5 -131 t-150.5 -45q-99 0 -151 44.5t-52 131.5t52 132t151 45q98 0 150.5 -45z" horiz-adv-x="623" glyph-name="semicolon" unicode=";"/>
<glyph d="M250 727l837 -391l-34 -74l-998 465l998 465l34 -74z" horiz-adv-x="1225" glyph-name="less" unicode="&lt;"/>
<glyph d="M129 840v61h1026v-61h-1026zM129 553v61h1026v-61h-1026z" horiz-adv-x="1284" glyph-name="equal" unicode="="/>
<glyph d="M975 727l-837 -391l34 -74l998 465l-998 465l-34 -74z" horiz-adv-x="1225" glyph-name="greater" unicode="&gt;"/>
<glyph d="M591 905.5q52 60.5 70.5 129.5t18.5 159q0 186 -61 276.5t-166 90.5q-58 0 -100.5 -11t-61.5 -28q67 -25 100 -68.5t33 -112.5q0 -48 -24.5 -87t-69.5 -62t-103 -23q-49 0 -87.5 22.5t-59.5 60.5t-21 81q0 70 34.5 116t96.5 81q129 72 324 72q158 0 278.5 -44.5 t187.5 -128t67 -196.5q0 -168 -151 -284t-413 -171v-299h-41v318q97 48 149 108.5zM617.5 279q52.5 -45 52.5 -132q0 -86 -52.5 -131t-150.5 -45q-99 0 -151 44.5t-52 131.5t52 132t151 45q98 0 150.5 -45z" horiz-adv-x="1106" glyph-name="question" unicode="?"/>
<glyph d="M1005.5 -297.5q-113.5 -32.5 -245.5 -32.5q-202 0 -353 66.5t-236 206t-85 350.5q0 274 135.5 522.5t368 400.5t506.5 152q191 0 339.5 -59.5t234 -185.5t85.5 -318q0 -218 -94.5 -390t-238 -267t-281.5 -95q-172 0 -172 147q0 28 6 60q-97 -207 -281 -207 q-111 0 -182.5 68t-71.5 211q0 140 67.5 292t181 253.5t243.5 101.5q68 0 109.5 -36.5t56.5 -93.5l20 101q193 0 309 29l-155 -731q-11 -55 -11 -80q0 -43 26 -43q14 0 34 10q95 45 184.5 137t149 229t59.5 306q0 182 -82 299t-220.5 171t-313.5 54q-252 0 -476 -142.5 t-359.5 -381t-135.5 -510.5q0 -204 80.5 -336t223 -193t331.5 -61q237 0 422 111l14 -27q-79 -56 -192.5 -88.5zM1063.5 852.5q-18.5 38.5 -53.5 38.5q-51 0 -110 -83t-98.5 -214t-39.5 -266q0 -86 17 -119t52 -33q53 0 95 58.5t84 181.5l71 352q1 46 -17.5 84.5z" horiz-adv-x="1819" glyph-name="at" unicode="@"/>
<glyph d="M1369 74.5q32 -31.5 63 -33.5v-41q-148 6 -373 6q-234 0 -344 -6v41q77 3 110.5 19t33.5 56q0 31 -25 97l-122 336h-413l-35 -92q-66 -172 -66 -267q0 -84 46.5 -115t138.5 -34v-41q-153 6 -268 6q-97 0 -158 -6v41q50 8 95.5 63t92.5 177l455 1169q44 -4 108 -4t107 4 l496 -1278q26 -66 58 -97.5zM512 1102l-197 -512h383z" horiz-adv-x="1417" glyph-name="A" unicode="A"/>
<glyph d="M1151.5 696.5q130.5 -53.5 190 -132t59.5 -167.5q0 -200 -160.5 -298.5t-454.5 -98.5q-43 0 -152 3t-220 3q-240 0 -357 -6v41q66 3 95.5 16t40 48t10.5 112v1016q0 77 -11 112t-40.5 48t-94.5 16v41q117 -6 353 -6q84 0 187 2t142 2q182 0 306.5 -40.5t186.5 -113 t62 -168.5q0 -76 -52.5 -152t-159.5 -133.5t-261 -76.5v-4q200 -10 330.5 -63.5zM828.5 860.5q43.5 90.5 43.5 243.5q0 155 -33 230t-110 75q-47 0 -70.5 -14.5t-32 -51.5t-8.5 -110v-463h56q111 0 154.5 90.5zM628.5 108q10.5 -35 38 -48t85.5 -13q219 0 219 359 q0 161 -77.5 245t-246.5 84h-29v-518q0 -74 10.5 -109z" horiz-adv-x="1442" glyph-name="B" unicode="B"/>
<glyph d="M1300.5 92.5q-11.5 28.5 -33.5 28.5q-16 0 -42 -17q-61 -43 -112.5 -70.5t-117.5 -45t-149 -17.5q-232 0 -406 88t-270 255.5t-96 398.5q0 226 98.5 400t274 270t401.5 96q122 0 208.5 -35t168.5 -98q23 -18 40 -18q42 0 52 122h47q-8 -145 -8 -512h-47 q-10 109 -28.5 182.5t-56.5 132t-104 101.5q-94 61 -190 61q-147 0 -232.5 -103.5t-119 -258.5t-33.5 -332t33.5 -332t119 -258.5t232.5 -103.5q96 0 190 61q66 41 104 101t56.5 140.5t28.5 202.5h47q0 -381 8 -532h-47q-5 64 -16.5 92.5z" horiz-adv-x="1468" glyph-name="C" unicode="C"/>
<glyph d="M337 1443l73 1q300 6 329 6q425 0 635.5 -181t210.5 -528q0 -223 -103 -390.5t-297.5 -259t-463.5 -91.5q-30 0 -143 3t-164 3q-240 0 -357 -6v41q66 3 95.5 16t40 48t10.5 112v1016q0 77 -11 112t-40.5 48t-94.5 16v41q149 -7 280 -7zM630 102.5q12 -36.5 44.5 -51 t97.5 -14.5q203 0 293 175t90 521q0 347 -93 513.5t-292 166.5q-64 0 -96 -14.5t-44 -51.5t-12 -110v-1024q0 -74 12 -110.5z" horiz-adv-x="1661" glyph-name="D" unicode="D"/>
<glyph d="M1229 344q0 -209 14 -344q-139 6 -469 6q-479 0 -717 -6v41q66 3 95.5 16t40 48t10.5 112v1016q0 77 -11 112t-40.5 48t-94.5 16v41q238 -6 717 -6q301 0 428 6q-14 -192 -14 -344q0 -95 6 -148h-47q-36 238 -136.5 341.5t-240.5 103.5h-27q-56 0 -81 -9t-34.5 -35.5 t-9.5 -84.5v-524h21q73 0 131.5 41t96.5 103t51 126h47q-8 -120 -8 -199l1 -92q0 -88 13 -291h-47q-13 77 -51.5 138.5t-98.5 97t-135 35.5h-21v-533q0 -59 9.5 -85t34.5 -35t81 -9h68q74 0 148.5 47t136 155.5t92.5 282.5h47q-6 -73 -6 -188z" horiz-adv-x="1331" glyph-name="E" unicode="E"/>
<glyph d="M774 1444q301 0 428 6q-14 -192 -14 -344q0 -95 6 -148h-47q-50 237 -151 341t-226 104h-27q-56 0 -81 -9t-34.5 -35.5t-9.5 -84.5v-524h21q73 0 131.5 41t96.5 103t51 126h47q-8 -120 -8 -199l1 -92q0 -88 13 -291h-47q-13 77 -51.5 138.5t-98.5 97t-135 35.5h-21v-471 q0 -86 17.5 -125.5t64 -52.5t146.5 -13v-47q-276 6 -422 6q-34 0 -367 -6v41q66 3 95.5 16t40 48t10.5 112v1016q0 77 -11 112t-40.5 48t-94.5 16v41q238 -6 717 -6z" horiz-adv-x="1245" glyph-name="F" unicode="F"/>
<glyph d="M1374.5 80q-16.5 37 -45.5 37q-43 0 -139 -47q-204 -99 -346 -99q-254 0 -426 87.5t-258 253.5t-86 401q0 226 101 400t281.5 270t411.5 96q132 0 225.5 -35t172.5 -98q20 -19 41 -19t33 29.5t18 93.5h47q-8 -145 -8 -512h-47q-10 107 -29 181t-57 132t-103 103 q-42 29 -99 45t-112 16q-147 0 -238 -103.5t-129 -261t-38 -329.5q0 -357 87.5 -533t241.5 -176q64 0 101 25q43 30 43 102v205q0 103 -16 150.5t-58 65.5t-133 22v41q129 -7 391 -7q218 0 316 7v-41q-38 -4 -54.5 -16.5t-23 -47.5t-6.5 -112v-406h-41q-2 43 -18.5 80z" horiz-adv-x="1548" glyph-name="G" unicode="G"/>
<glyph d="M1545 1393q-29 -13 -39.5 -48t-10.5 -112v-1016q0 -77 11 -112t40 -48t94 -16v-41q-109 6 -344 6q-236 0 -362 -6v41q66 3 95 16t39.5 47.5t10.5 112.5v492h-461v-492q0 -77 11 -112t40.5 -48t94.5 -16v-41q-120 6 -342 6q-248 0 -365 -6v41q66 3 95.5 16t40 48t10.5 112 v1016q0 77 -11 112t-40.5 48t-94.5 16v41q117 -6 365 -6q222 0 342 6v-41q-66 -3 -95.5 -16t-40 -48t-10.5 -112v-483h461v483q0 77 -10.5 112t-40 48t-94.5 16v41q126 -6 362 -6q234 0 344 6v-41q-66 -3 -95 -16z" horiz-adv-x="1698" glyph-name="H" unicode="H"/>
<glyph d="M668.5 1393q-29.5 -13 -40 -48t-10.5 -112v-1016q0 -77 11 -112t40.5 -48t94.5 -16v-41q-120 6 -342 6q-248 0 -365 -6v41q66 3 95.5 16t40 48t10.5 112v1016q0 77 -11 112t-40.5 48t-94.5 16v41q117 -6 365 -6q222 0 342 6v-41q-66 -3 -95.5 -16z" horiz-adv-x="821" glyph-name="I" unicode="I"/>
<glyph d="M658.5 1393q-29.5 -13 -40 -48t-10.5 -112v-750l1 -168q0 -252 -36 -366q-31 -96 -109.5 -171.5t-198 -119t-267.5 -43.5q-150 0 -229 39q-103 51 -103 153q0 72 55 115t146 43q86 0 135 -38.5t49 -112.5q0 -48 -29.5 -90t-89.5 -64q13 -2 37 -2q65 0 112 36.5t69 92.5 q21 58 30 120t11 141.5t2 248.5v936q0 77 -11 112t-40.5 48t-94.5 16v41q111 -6 344 -6q237 0 363 6v-41q-66 -3 -95.5 -16z" horiz-adv-x="799" glyph-name="J" unicode="J"/>
<glyph d="M1507 92q27 -28 70 -51v-41q-173 6 -369 6q-151 0 -293 -6v41q65 3 91.5 11.5t26.5 27.5q0 16 -21 53l-297 502q-30 50 -49 68t-48 23v-509q0 -77 11 -112t40.5 -48t94.5 -16v-41q-120 6 -342 6q-248 0 -365 -6v41q66 3 95.5 16t40 48t10.5 112v1016q0 77 -11 112 t-40.5 48t-94.5 16v41q117 -6 365 -6q222 0 342 6v-41q-66 -3 -95.5 -16t-40 -48t-10.5 -112v-462q83 6 160 61t191 182l69 78q91 102 91 184q0 60 -47 96t-121 39v39q171 -6 346 -6q123 0 206 6v-39q-178 -48 -335 -225l-201 -228l475 -792q28 -46 55 -74z" horiz-adv-x="1544" glyph-name="K" unicode="K"/>
<glyph d="M676.5 1393q-33.5 -13 -46 -48t-12.5 -112v-1057q0 -58 8 -84.5t29 -35.5t68 -9h68q71 0 155.5 72t151.5 189.5t90 244.5h47q-6 -73 -6 -188q0 -222 14 -365q-139 6 -469 6q-479 0 -717 -6v41q66 3 95.5 16t40 48t10.5 112v1016q0 77 -11 112t-40.5 48t-94.5 16v41 q117 -6 365 -6q236 0 362 6v-41q-74 -3 -107.5 -16z" horiz-adv-x="1282" glyph-name="L" unicode="L"/>
<glyph d="M1824 1393q-29 -13 -39.5 -47.5t-10.5 -112.5v-1016q0 -77 10.5 -112t40 -48t94.5 -16v-41q-126 6 -363 6q-247 0 -364 -6v41q74 3 107.5 16t46 48t12.5 112v1049l-494 -1264h-33l-577 1315v-916q0 -151 12 -217t54 -97.5t141 -45.5v-41q-82 6 -230 6q-108 0 -170 -6v41 q64 14 94.5 44t41 91.5t10.5 183.5v873q0 77 -11 112t-40.5 48t-94.5 16v41q62 -6 170 -6q247 0 424 6l387 -870l336 864h178q237 0 363 6v-41q-66 -3 -95 -16z" horiz-adv-x="1976" glyph-name="M" unicode="M"/>
<glyph d="M1356 1365q-30 -30 -40.5 -91.5t-10.5 -183.5v-1090q-30 3 -67 3q-36 0 -77 -3l-907 991v-590q0 -151 12 -217t54 -97.5t141 -45.5v-41q-82 6 -230 6q-108 0 -170 -6v41q64 14 94.5 44t41 91.5t10.5 183.5v873q0 77 -11 112t-40.5 48t-94.5 16v41q62 -6 170 -6 q113 0 189 6l837 -885v484q0 151 -12 217t-53.5 97.5t-140.5 45.5v41q83 -6 229 -6q109 0 170 6v-41q-64 -14 -94 -44z" horiz-adv-x="1499" glyph-name="N" unicode="N"/>
<glyph d="M1254 1391q174 -88 270 -255.5t96 -398.5q0 -226 -98.5 -400t-274.5 -270t-401 -96q-232 0 -406 88t-270 255.5t-96 398.5q0 226 98.5 400t274 270t401.5 96q232 0 406 -88zM663 1350.5q-76 -91.5 -117.5 -255t-41.5 -374.5q0 -212 47 -374.5t127 -250.5t176 -88 q101 0 177 91.5t117.5 255t41.5 374.5q0 212 -47 374.5t-127 250.5t-176 88q-101 0 -177 -91.5z" horiz-adv-x="1694" glyph-name="O" unicode="O"/>
<glyph d="M618 238q0 -86 17.5 -125.5t64 -52.5t146.5 -13v-47q-276 6 -422 6q-34 0 -367 -6v41q66 3 95.5 16t40 48t10.5 112v1016q0 77 -11 112t-40.5 48t-94.5 16v41q117 -6 353 -6q84 0 187 2t142 2q203 0 341.5 -50.5t207 -141.5t68.5 -212q0 -113 -61 -216.5t-209 -172.5 t-392 -69h-76v-348zM872 733.5q54 106.5 54 288.5q0 199 -45.5 293t-151.5 94q-47 0 -70.5 -14.5t-32 -51.5t-8.5 -110v-606h56q144 0 198 106.5z" horiz-adv-x="1389" glyph-name="P" unicode="P"/>
<glyph d="M1577.5 -168.5q-37.5 -96.5 -100.5 -144.5q-46 -35 -114 -53.5t-142 -18.5q-125 0 -244.5 39t-254.5 99t-181 79q-40 14 -49 14q-92 -51 -173 -51q-43 0 -69.5 15.5t-26.5 46.5q0 30 28.5 46.5t84.5 16.5q72 0 156 -37q41 10 75 23t87.5 36t85.5 34q-202 20 -352 113 t-232 252t-82 372q0 226 98.5 400t274 270t401.5 96q232 0 406 -88t270 -255.5t96 -398.5q0 -221 -94.5 -393t-264.5 -269.5t-388 -103.5q-48 -6 -86 -18t-105.5 -39t-118.5 -41q300 -8 375 -8q212 0 352 29q115 24 180.5 63.5t116.5 116.5l39 -11q-11 -135 -48.5 -231.5z M551 346.5q47 -162.5 127 -250.5t176 -88q101 0 177 91.5t117.5 255t41.5 374.5q0 212 -47 374.5t-127 250.5t-176 88q-101 0 -177 -91.5t-117.5 -255t-41.5 -374.5q0 -212 47 -374.5z" horiz-adv-x="1694" glyph-name="Q" unicode="Q"/>
<glyph d="M1393 -4q-74 -25 -172 -25q-141 0 -219.5 50.5t-96.5 171.5l-31 204q-21 144 -56 217.5t-107 73.5h-93v-471q0 -77 11 -112t40.5 -48t94.5 -16v-41q-120 6 -342 6q-248 0 -365 -6v41q66 3 95.5 16t40 48t10.5 112v1016q0 77 -11 112t-40.5 48t-94.5 16v41q117 -6 353 -6 q84 0 187 2t142 2q312 0 464.5 -87.5t152.5 -268.5q0 -154 -115 -262.5t-386 -134.5q209 -12 316.5 -76.5t131.5 -190.5l43 -213q15 -75 35.5 -104t56.5 -29q37 0 63 27l27 -27q-61 -61 -135 -86zM829.5 773q55.5 44 76 118t20.5 178q0 168 -46 254t-151 86 q-47 0 -70.5 -14.5t-32 -51.5t-8.5 -110v-504h56q100 0 155.5 44z" horiz-adv-x="1477" glyph-name="R" unicode="R"/>
<glyph d="M257 185q88 -152 271 -152q114 0 180 53t66 147q0 81 -36.5 145.5t-98.5 118t-164 121.5q-124 83 -196.5 144t-120 142.5t-47.5 187.5q0 128 69.5 215.5t184.5 129.5t253 42q118 0 191 -22t141 -60q29 -16 43 -22.5t27 -6.5q19 0 29 21.5t16 68.5h47q-10 -147 -10 -500 h-47q-8 117 -53.5 224t-123.5 174t-180 67q-93 0 -151 -50t-58 -140q0 -74 34.5 -127t95 -100t231.5 -166q113 -79 180 -138.5t109.5 -139.5t42.5 -185q0 -133 -75 -224.5t-201 -136.5t-281 -45q-126 0 -208.5 20.5t-154.5 55.5q-46 29 -69 29q-19 0 -29 -21t-17 -69h-47 q9 156 9 594h47q13 -243 101 -395z" horiz-adv-x="1255" glyph-name="S" unicode="S"/>
<glyph d="M61 1044q0 179 -14 406q195 -6 670 -6q473 0 667 6q-14 -227 -14 -406q0 -94 6 -147h-47q-67 269 -173.5 387.5t-229.5 118.5h-2v-1172q0 -86 17.5 -125t63.5 -52t146 -13v-41q-288 6 -449 6q-145 0 -421 -6v41q100 0 146 13t63.5 52t17.5 125v1172h-2 q-125 0 -230.5 -117.5t-173.5 -388.5h-47q6 53 6 147z" horiz-adv-x="1432" glyph-name="T" unicode="T"/>
<glyph d="M1300.5 1365q-30.5 -30 -41 -91.5t-10.5 -183.5v-494q0 -297 -84 -434q-114 -191 -440 -191q-247 0 -385 99q-68 49 -104.5 121t-50 167t-13.5 232v643q0 78 -10.5 112.5t-39.5 47.5t-95 16v41q115 -6 360 -6q241 0 367 6v-41q-74 -3 -107.5 -16t-46 -48t-12.5 -112v-836 q0 -133 28 -210.5t84 -110.5t144 -33q195 0 276.5 137.5t81.5 392.5v476q0 151 -12 217t-54 97.5t-141 45.5v41q84 -6 230 -6q108 0 170 6v-41q-64 -14 -94.5 -44z" horiz-adv-x="1419" glyph-name="U" unicode="U"/>
<glyph d="M1286 1444q97 0 158 6v-41q-55 -26 -109 -96t-96 -191l-399 -1122q-66 4 -109 4q-42 0 -106 -4l-537 1278q-27 66 -59 97.5t-62 33.5v41q149 -6 373 -6q233 0 344 6v-41q-76 -3 -110 -18t-34 -57q0 -35 25 -97l355 -873l198 558q67 191 67 304q0 177 -167 183v41 q153 -6 268 -6z" horiz-adv-x="1419" glyph-name="V" unicode="V"/>
<glyph d="M1927 1444q97 0 158 6v-41q-121 -59 -191 -287l-344 -1122q-64 4 -108 4q-41 0 -107 -4l-266 813l-289 -813q-64 4 -108 4q-41 0 -107 -4l-475 1278q-24 65 -57 97t-64 34v41q149 -6 363 -6q187 0 272 6v-41q-54 -11 -54 -82q0 -46 17 -90l298 -835l179 486l-139 425 q-16 50 -41 71.5t-63 24.5v41q138 -6 354 -6q213 0 318 6v-41q-75 -2 -107.5 -18t-32.5 -60q0 -34 21 -94l270 -821l158 506q54 177 54 286q0 103 -45.5 150.5t-131.5 50.5v41q153 -6 268 -6z" horiz-adv-x="2068" glyph-name="W" unicode="W"/>
<glyph d="M1465 82.5q17 -19.5 34.5 -28.5t44.5 -11v-43q-268 8 -350 8q-88 0 -356 -8v43q66 0 96.5 7.5t30.5 27.5q0 14 -15 35l-341 488l-126 -157q-105 -129 -105 -240q0 -70 45.5 -113.5t125.5 -49.5v-41q-117 6 -354 6q-131 0 -199 -6v41q160 67 340 291l246 308l-467 667 q-31 43 -48 62.5t-34.5 28.5t-44.5 11v43q284 -8 370 -8q78 0 330 8v-43q-67 0 -97.5 -7.5t-30.5 -27.5q0 -14 15 -35l297 -422l117 144q103 119 103 215q0 57 -37.5 92t-106.5 41v41q117 -6 273 -6q131 0 198 6v-41q-66 -24 -139 -88t-137 -143l-244 -299l518 -734 q31 -43 48 -62.5z" horiz-adv-x="1493" glyph-name="X" unicode="X"/>
<glyph d="M1145 1446q96 0 158 6v-41q-106 -52 -218 -272l-190 -377v-545q0 -77 11 -112t40 -48t94 -16v-41q-118 6 -352 6q-243 0 -354 -6v41q66 3 95 16t39.5 47.5t10.5 112.5v377l-379 700q-33 60 -63.5 87.5t-54.5 27.5v43q126 -12 282 -12q177 0 451 12v-43q-83 0 -124 -8 t-41 -39q0 -13 9 -31l292 -562l93 185q97 194 97 305q0 145 -164 152v41q153 -6 268 -6z" horiz-adv-x="1319" glyph-name="Y" unicode="Y"/>
<glyph d="M528 47h86q84 0 192.5 48.5t196.5 157.5t107 279h47q-6 -73 -6 -188q0 -209 14 -344q-151 6 -510 6q-399 0 -579 -6v41l620 1362h-102q-96 0 -192 -41.5t-170.5 -141t-96.5 -262.5h-47q6 53 6 148q0 152 -14 344q127 -6 428 -6q442 0 641 6v-41z" horiz-adv-x="1243" glyph-name="Z" unicode="Z"/>
<glyph d="M528 1542v-1874h84v-39h-452v1952h452v-39h-84z" horiz-adv-x="696" glyph-name="bracketleft" unicode="["/>
<glyph d="M687 -29l-558 1508h-67l557 -1508h68z" horiz-adv-x="750" glyph-name="backslash" unicode="\"/>
<glyph d="M168 1542v-1874h-84v-39h452v1952h-452v-39h84z" horiz-adv-x="696" glyph-name="bracketright" unicode="]"/>
<glyph d="M739.5 840q113.5 -117 239.5 -193l-16 -29q-135 22 -262.5 55.5t-204.5 67.5q-65 -34 -170 -67.5t-215 -55.5l-17 29q124 74 237 191t187 243h37q71 -124 184.5 -241z" horiz-adv-x="1073" glyph-name="asciicircum" unicode="^"/>
<glyph d="M107 -371v227h1054v-227h-1054z" horiz-adv-x="1268" glyph-name="underscore" unicode="_"/>
<glyph d="M277.5 1317q-51.5 36 -131.5 85.5t-113 90.5q-34 40 -34 93q0 58 42 93q37 34 88 34q32 0 63 -14t50 -36q25 -28 38.5 -60.5t45.5 -137.5t90 -220l-23 -18q-64 54 -115.5 90z" horiz-adv-x="457" glyph-name="grave" unicode="`"/>
<glyph d="M557.5 999.5q-32.5 51.5 -119.5 51.5q-26 0 -55.5 -10t-52.5 -25q137 -51 137 -185q0 -48 -24.5 -87t-69.5 -62t-103 -23q-50 0 -88 23.5t-59 64.5t-21 91q0 62 34.5 109.5t92.5 78.5q129 66 328 66q117 0 198 -22.5t136 -80.5q40 -42 53.5 -106.5t13.5 -180.5v-548 q0 -49 7 -68.5t24 -19.5q16 0 29.5 7.5t34.5 22.5l20 -35q-48 -40 -112 -57.5t-154 -17.5q-108 0 -158.5 43.5t-52.5 111.5q-43 -71 -121 -113t-172 -42q-121 0 -189.5 64t-68.5 171q0 105 63 175t197 114q109 39 161.5 61.5t88 54t35.5 74.5v183q0 65 -32.5 116.5zM510 526 q-100 -97 -100 -231q0 -145 104 -145q43 0 76 34v432q-15 -25 -80 -90z" horiz-adv-x="1087" glyph-name="a" unicode="a"/>
<glyph d="M809 1092q104 0 184 -57t126 -172.5t46 -284.5q0 -325 -131.5 -466t-345.5 -141q-69 0 -114.5 5.5t-86.5 23.5q-70 26 -147 26q-62 0 -115.5 -16t-81.5 -43l-28 21q14 43 14 112v1256q0 95 -26 137.5t-89 42.5v43q64 -6 127 -6q215 0 357 29v-664q93 154 311 154zM594 12 q188 0 188 518q0 253 -36.5 354t-100.5 101q-38 0 -72 -19t-54.5 -52.5t-20.5 -75.5v-802q45 -24 96 -24z" horiz-adv-x="1231" glyph-name="b" unicode="b"/>
<glyph d="M899.5 150q-55.5 -79 -142.5 -129t-202 -50q-224 0 -359 133.5t-135 425.5q0 190 68 316t186.5 186t272.5 60q84 0 154.5 -17.5t115.5 -44.5q57 -33 90 -88.5t33 -124.5q0 -56 -25.5 -101.5t-70.5 -71.5t-101 -26q-88 0 -138 51t-50 134q0 74 48.5 129.5t119.5 75.5 q-33 24 -82 24q-132 0 -185 -140.5t-53 -332.5q0 -197 74.5 -280.5t181.5 -83.5q149 0 248 137l35 -13q-28 -90 -83.5 -169z" glyph-name="c" unicode="c"/>
<glyph d="M1125.5 87.5q25.5 -42.5 88.5 -42.5v-43q-64 6 -127 6q-212 0 -356 -28v145q-42 -80 -101 -117t-149 -37q-122 0 -216 60t-148 187t-54 321q0 181 56 305t158 186t241 62q134 0 213 -52v316q0 95 -26 137.5t-89 42.5v43q64 -6 127 -6q215 0 357 29v-1377 q0 -95 25.5 -137.5zM635 1024q-95 0 -142 -121.5t-47 -370.5q0 -252 37 -353t101 -101q38 0 71.5 19t54.5 52.5t21 75.5v772q-45 27 -96 27z" horiz-adv-x="1247" glyph-name="d" unicode="d"/>
<glyph d="M446 559q0 -197 68.5 -280.5t167.5 -83.5q149 0 248 137l35 -13q-29 -91 -84 -169.5t-142 -128.5t-202 -50q-215 0 -344.5 133.5t-129.5 425.5q0 190 68 316t186.5 186t272.5 60q387 0 387 -459h-529q-2 -24 -2 -74zM654.5 939.5q-25.5 104.5 -79.5 104.5q-56 0 -90 -88 t-44 -284h237q2 163 -23.5 267.5z" glyph-name="e" unicode="e"/>
<glyph d="M170 1262.5q14 79.5 45 134.5t86 102q51 44 133.5 73.5t171.5 29.5q147 0 246 -76q32 -26 54 -70t22 -100q0 -42 -22 -80.5t-61 -62t-87 -23.5q-85 0 -135 45t-50 125q0 61 36 110.5t106 71.5q-15 19 -56 19q-62 0 -96 -39q-19 -25 -29 -67.5t-10 -119.5v-274h219v-41 h-219v-809q0 -95 43.5 -131.5t132.5 -36.5v-43q-300 8 -376 8q-63 0 -283 -8v43q43 0 68 13t36 45t11 89v830h-123v41h123q0 122 14 201.5z" horiz-adv-x="748" glyph-name="f" unicode="f"/>
<glyph d="M1045 230.5q83 -56.5 83 -183.5q0 -109 -68 -208t-204.5 -161.5t-333.5 -62.5q-177 0 -284.5 24.5t-152 62.5t-44.5 83q0 56 40.5 74.5t150 30.5t146.5 57h-67q-52 0 -107.5 17.5t-96.5 65t-41 130.5q0 68 25.5 119t82.5 95.5t157 91.5q-118 36 -183.5 110.5t-65.5 187.5 q0 109 61.5 182.5t169.5 109.5t250 36q65 0 123 -8q-2 21 -2 42q0 122 57.5 196.5t173.5 74.5q76 0 126.5 -36.5t50.5 -100.5q0 -38 -22.5 -68.5t-60.5 -48t-85 -17.5q-70 0 -112.5 26.5t-70.5 80.5q-14 -41 -14 -107q0 -24 3 -48q147 -28 230.5 -107t83.5 -207 q0 -109 -61.5 -182.5t-169.5 -109.5t-250 -36q-107 0 -194 20q-43 -28 -61.5 -50t-18.5 -52q0 -67 73 -67h465q135 0 218 -56.5zM485.5 988q-26.5 -67 -26.5 -224q0 -158 26.5 -224.5t77.5 -66.5q52 0 78.5 66.5t26.5 224.5t-26.5 224.5t-78.5 66.5q-51 0 -77.5 -67z M399 -121.5q-6 -38.5 -6 -64.5q0 -78 47 -121t138 -43q79 0 139 29t93.5 81.5t33.5 120.5q0 33 -21.5 49.5t-72.5 16.5h-331q-14 -30 -20 -68.5z" horiz-adv-x="1147" glyph-name="g" unicode="g"/>
<glyph d="M846 1092q163 0 231 -82q31 -37 45.5 -99.5t14.5 -165.5v-555q0 -57 11 -89t35.5 -45t67.5 -13v-43q-220 8 -286 8q-71 0 -291 -8v43q36 0 56 13t29 45t9 89v666q0 66 -24 97.5t-76 31.5q-38 0 -72 -19t-55 -52.5t-21 -75.5v-648q0 -57 9 -89t29 -45t56 -13v-43 q-204 8 -270 8q-71 0 -307 -8v43q43 0 68 13t36 45t11 89v1166q0 95 -26 137.5t-89 42.5v43q64 -6 127 -6q215 0 356 29v-664q93 154 326 154z" horiz-adv-x="1274" glyph-name="h" unicode="h"/>
<glyph d="M495 1557q58 -45 58 -132q0 -86 -58 -131t-165 -45q-109 0 -166 44.5t-57 131.5t57 132t166 45q107 0 165 -45zM537 101q11 -32 36 -45t68 -13v-43q-220 8 -291 8t-307 -8v43q43 0 68 13t36 45t11 89v650q0 95 -26 137.5t-89 42.5v43q65 -6 127 -6q213 0 356 28v-895 q0 -57 11 -89z" horiz-adv-x="676" glyph-name="i" unicode="i"/>
<glyph d="M495 1557q58 -45 58 -132q0 -86 -58 -131t-165 -45q-109 0 -166.5 45t-57.5 131q0 87 57.5 132t166.5 45q107 0 165 -45zM506 -39.5q-14 -81.5 -45.5 -138.5t-85.5 -105q-118 -102 -387 -102q-137 0 -228 41q-49 22 -76.5 62t-27.5 89q0 72 55 115t146 43q86 0 135 -38.5 t49 -112.5q0 -48 -29.5 -90t-89.5 -64q38 -4 55 -4q44 0 81 17t57 48q18 30 26 80t9.5 124.5t1.5 238.5v676q0 95 -26 137.5t-89 42.5v43q64 -6 127 -6q213 0 356 28v-921q0 -122 -14 -203.5z" horiz-adv-x="649" glyph-name="j" unicode="j"/>
<glyph d="M1188.5 114.5q14.5 -26.5 29.5 -44.5t33 -27v-43q-188 8 -247 8q-69 0 -289 -8v43q59 0 59 38q0 13 -8 32l-180 381q-22 42 -66 45v-349q0 -57 11 -89t36 -45t68 -13v-43q-220 8 -291 8t-307 -8v43q43 0 68 13t36 45t11 89v1166q0 95 -26 137.5t-89 42.5v43q64 -6 127 -6 q215 0 356 29v-1024q60 2 88 30l158 148q72 68 72 133q0 53 -46.5 90t-117.5 43v41q117 -6 246 -6q200 0 280 6v-41q-143 -39 -303 -201l-53 -52l325 -619q5 -9 19.5 -35.5z" horiz-adv-x="1247" glyph-name="k" unicode="k"/>
<glyph d="M531 101q11 -32 36 -45t68 -13v-43q-220 8 -291 8t-307 -8v43q43 0 68 13t36 45t11 89v1166q0 95 -26 137.5t-89 42.5v43q64 -6 127 -6q215 0 356 29v-1412q0 -57 11 -89z" horiz-adv-x="672" glyph-name="l" unicode="l"/>
<glyph d="M1750 101q11 -32 35.5 -45t67.5 -13v-43q-220 8 -286 8q-63 0 -271 -8v43q29 0 44.5 13t22.5 44.5t7 89.5v666q0 66 -24 97.5t-76 31.5q-35 0 -68 -21t-55.5 -55.5t-27.5 -74.5q3 -39 3 -89v-555q0 -58 9 -89.5t29 -44.5t57 -13v-43q-208 8 -267 8q-66 0 -270 -8v43 q27 0 43 13t23.5 45t7.5 89v666q0 66 -19 97.5t-61 31.5q-38 0 -72 -19t-55 -52.5t-21 -75.5v-648q0 -58 7 -89.5t23 -44.5t44 -13v-43q-188 8 -250 8q-71 0 -307 -8v43q43 0 68 13t36 45t11 89v650q0 95 -26 137.5t-89 42.5v43q64 -6 127 -6q213 0 356 28v-147 q88 154 305 154q164 0 232 -82q31 -37 44 -96q53 98 138 138t203 40q163 0 231 -82q31 -37 45.5 -99.5t14.5 -165.5v-555q0 -57 11 -89z" horiz-adv-x="1876" glyph-name="m" unicode="m"/>
<glyph d="M852 1092q163 0 231 -82q31 -37 45.5 -99.5t14.5 -165.5v-555q0 -57 11 -89t35.5 -45t67.5 -13v-43q-220 8 -286 8q-71 0 -291 -8v43q36 0 56 13t29 44.5t9 89.5v666q0 66 -24 97.5t-76 31.5q-38 0 -72 -19t-55 -52.5t-21 -75.5v-648q0 -57 9 -89t29.5 -45t56.5 -13v-43 q-208 8 -271 8q-71 0 -307 -8v43q43 0 68 13t36 45t11 89v650q0 95 -26 137.5t-89 42.5v43q65 -6 127 -6q213 0 356 28v-147q93 154 326 154z" horiz-adv-x="1280" glyph-name="n" unicode="n"/>
<glyph d="M979 959.5q137 -132.5 137 -429.5q0 -296 -137 -427.5t-389 -131.5q-253 0 -390 131.5t-137 427.5q0 297 137.5 429.5t389.5 132.5t389 -132.5zM485.5 922q-39.5 -129 -39.5 -392q0 -262 39.5 -390t104.5 -128t104 128t39 390q0 263 -39 392t-104 129t-104.5 -129z" horiz-adv-x="1180" glyph-name="o" unicode="o"/>
<glyph d="M831 1092q104 0 184.5 -57t126.5 -172.5t46 -284.5q0 -325 -131.5 -466t-345.5 -141q-122 0 -191 39v-170q0 -95 43.5 -131.5t132.5 -36.5v-43q-32 1 -147.5 5t-229.5 4q-83 0 -171 -4t-111 -5v43q43 0 68 13t36 45t11 90v1018q0 95 -26 137.5t-89 42.5v43q64 -6 127 -6 q213 0 356 28v-145q95 154 311 154zM592 33q112 0 162.5 122.5t50.5 374.5q0 253 -37 354t-100 101q-38 0 -72 -19t-55 -52.5t-21 -75.5v-788q28 -17 72 -17z" horiz-adv-x="1253" glyph-name="p" unicode="p"/>
<glyph d="M1111 -270q11 -32 35.5 -45t67.5 -13v-43q-23 1 -111 5t-171 4q-113 0 -228.5 -4t-148.5 -5v43q89 0 132.5 36.5t43.5 131.5v285q-42 -80 -101 -117t-149 -37q-122 0 -216 60t-148 187t-54 321q0 181 56 305t158 186t241 62q75 0 129 -6.5t102 -27.5q64 -22 136 -22 q63 0 117.5 16.5t82.5 43.5l29 -21q-14 -43 -14 -112v-1143q0 -58 11 -90zM635 1051q-189 0 -189 -519q0 -252 37 -353t101 -101q38 0 71.5 19t54.5 52.5t21 75.5v803q-43 23 -96 23z" horiz-adv-x="1229" glyph-name="q" unicode="q"/>
<glyph d="M791 1092q100 0 144 -61.5t44 -145.5q0 -92 -51.5 -146.5t-136.5 -54.5q-89 0 -136 39.5t-47 107.5q0 122 105 191q-37 0 -66 -14q-52 -22 -86.5 -72.5t-34.5 -110.5v-614q0 -65 18 -101.5t56 -51.5t102 -15v-43q-252 8 -331 8q-76 0 -328 -8v43q43 0 68 13t36 45t11 89 v650q0 95 -26 137.5t-89 42.5v43q65 -6 127 -6q213 0 356 28v-147q80 154 265 154z" horiz-adv-x="985" glyph-name="r" unicode="r"/>
<glyph d="M177.5 201q35.5 -84 92 -131t129.5 -47q52 0 85.5 28.5t33.5 83.5q0 57 -23.5 102.5t-57.5 81t-109 103.5q-87 80 -131.5 127t-76.5 109.5t-32 138.5q0 88 53 155t141 103.5t191 36.5q81 0 150.5 -17.5t107.5 -38.5q21 -12 37 -12q41 0 51 66h41q-8 -107 -8 -369h-41 q-16 134 -76.5 227.5t-175.5 93.5q-52 0 -86.5 -31t-34.5 -83q0 -69 46 -121.5t108.5 -101t91.5 -72.5q76 -63 121 -109t72.5 -104.5t27.5 -132.5q0 -91 -55.5 -163.5t-150 -112.5t-207.5 -40q-128 0 -211 52q-66 34 -103 34q-39 0 -57 -71h-41q8 117 8 409h41 q13 -110 48.5 -194z" horiz-adv-x="967" glyph-name="s" unicode="s"/>
<glyph d="M717 1061v-41h-201v-848q0 -40 14 -57t48 -17q25 0 55 14.5t55 45.5l31 -25q-94 -162 -291 -162q-141 0 -211 70q-42 42 -56 106t-14 179v694h-155v41h155v244q111 0 200 21.5t169 68.5v-334h201z" horiz-adv-x="717" glyph-name="t" unicode="t"/>
<glyph d="M1148 85.5q26 -42.5 89 -42.5v-43q-64 6 -127 6q-215 0 -356 -29v148q-93 -154 -326 -154q-163 0 -231 82q-31 37 -45.5 99t-14.5 165v523q0 95 -25.5 137.5t-88.5 42.5v43q64 -6 127 -6q212 0 356 28v-878q0 -66 24 -97.5t76 -31.5q38 0 72 19t55 52.5t21 75.5v615 q0 95 -26 137.5t-89 42.5v43q64 -6 127 -6q213 0 356 28v-862q0 -95 26 -137.5z" horiz-adv-x="1274" glyph-name="u" unicode="u"/>
<glyph d="M909 1055q117 0 158 8v-43q-42 -16 -77.5 -61t-67.5 -138l-277 -821q-53 5 -99 5q-45 0 -100 -5l-356 905q-45 115 -119 115v43q164 -12 365 -12q102 0 266 12v-43q-49 0 -73.5 -3.5t-37 -20t-4.5 -54.5l223 -620l95 282q39 116 39 210q0 96 -41.5 148.5t-108.5 57.5v43 q77 -8 215 -8z" horiz-adv-x="1065" glyph-name="v" unicode="v"/>
<glyph d="M1483 1055q117 0 157 8v-43q-44 -16 -79.5 -60.5t-65.5 -138.5l-256 -821q-53 5 -99 5q-45 0 -100 -5l-244 708l-186 -708q-53 5 -99 5q-44 0 -99 -5l-316 905q-26 72 -56.5 93.5t-62.5 21.5v43q164 -12 365 -12q102 0 266 12v-43q-63 0 -90.5 -9.5t-27.5 -40.5 q0 -13 4 -28l170 -567l176 686h2q43 -4 98 -4q41 0 119 4l233 -749l88 292q33 110 33 197q0 103 -45.5 157.5t-120.5 61.5v43q77 -8 236 -8z" horiz-adv-x="1634" glyph-name="w" unicode="w"/>
<glyph d="M1056.5 111q19.5 -27 41 -45.5t41.5 -22.5v-43q-208 8 -269 8q-62 0 -282 -8v43q29 0 45.5 10t16.5 27t-11 33l-201 303l-18 -23q-77 -99 -77 -191q0 -67 40 -111.5t106 -49.5v-41q-124 6 -333 6q-82 0 -138 -6v41q51 25 95.5 64.5t97.5 103.5l206 238l-313 471 q-32 50 -54.5 73t-51.5 29v43q236 -8 309 -8q54 0 242 8v-43q-29 0 -45.5 -10t-16.5 -27q0 -16 11 -33l178 -269l35 42q76 92 76 174q0 53 -34 86.5t-96 38.5v41q126 -6 273 -6q82 0 137 6v-41q-85 -38 -193 -168l-177 -205l335 -504q5 -7 24.5 -34z" horiz-adv-x="1120" glyph-name="x" unicode="x"/>
<glyph d="M918 1055q116 0 157 8v-43q-42 -16 -77.5 -61t-67.5 -138l-256 -762l-86 -247q-38 -107 -90 -148q-63 -49 -191 -49q-63 0 -127 19.5t-107.5 62.5t-43.5 110q0 72 54.5 115t145.5 43q87 0 136 -38.5t49 -112.5q0 -49 -34 -93t-99 -65q20 -4 69 -4q141 0 195 164l11 33 l-478 1056q-31 70 -60.5 92.5t-58.5 22.5v43q163 -12 334 -12q133 0 297 12v-43q-61 0 -92 -8t-31 -38q0 -15 8 -32l253 -600l85 262q39 116 39 210q0 96 -41.5 148.5t-108.5 57.5v43q77 -8 216 -8z" horiz-adv-x="1083" glyph-name="y" unicode="y"/>
<glyph d="M485 31q85 0 161 37t129.5 124t64.5 230h41q0 -307 8 -430q-169 8 -402 8q-206 0 -434 -10l459 1040h-41q-133 0 -229.5 -91t-112.5 -300h-41q0 307 -8 430q169 -8 401 -8q206 0 434 10l-458 -1040h28z" horiz-adv-x="967" glyph-name="z" unicode="z"/>
<glyph d="M608.5 1532q-28.5 -29 -40 -118t-11.5 -286q0 -174 -64.5 -280t-168 -158t-244.5 -78q141 -26 244.5 -78t168 -158.5t64.5 -279.5q0 -204 11.5 -294.5t40 -118.5t91.5 -29v-39q-193 0 -302.5 42.5t-159.5 146t-50 292.5q0 198 -13 301t-45.5 147.5t-96.5 49.5h-10v37h10 q64 4 96.5 48t45.5 147t13 302q0 182 50 284t160.5 146t301.5 44v-39q-63 -2 -91.5 -31z" horiz-adv-x="723" glyph-name="braceleft" unicode="{"/>
<glyph d="M158 -399v2156h245v-2156h-245z" horiz-adv-x="561" glyph-name="bar" unicode="|"/>
<glyph d="M114.5 1532q28.5 -29 40 -118t11.5 -286q0 -174 64.5 -280t168 -158t244.5 -78q-141 -26 -244.5 -78t-168 -158.5t-64.5 -279.5q0 -204 -11.5 -294.5t-40 -118.5t-91.5 -29v-39q193 0 302.5 42.5t159.5 146t50 292.5q0 198 13 301t45.5 147.5t96.5 49.5h10v37h-10 q-64 4 -96.5 48t-45.5 147t-13 302q0 182 -50 284t-160.5 146t-301.5 44v-39q63 -2 91.5 -31z" horiz-adv-x="723" glyph-name="braceright" unicode="}"/>
<glyph d="M159.5 645.5q47.5 87.5 119.5 135.5t155 48q79 0 147 -25.5t207 -99t248 -73.5q164 0 226 160l36 -7q-10 -114 -57 -201.5t-119 -135.5t-155 -48q-79 0 -147 25.5t-207 99.5t-248 74q-164 0 -226 -160l-37 6q10 114 57.5 201.5z" horiz-adv-x="1395" glyph-name="asciitilde" unicode="~"/>
<glyph horiz-adv-x="457" glyph-name="nonbreakingspace" unicode=" "/>
<glyph d="M453.5 1047q52.5 -45 52.5 -132q0 -86 -52.5 -131t-150.5 -45q-99 0 -151 44.5t-52 131.5t52 132t151 45q98 0 150.5 -45zM357 427.5q30 -109.5 95.5 -297t65.5 -269.5q0 -79 -27.5 -134.5t-76.5 -83.5t-111 -28q-65 0 -114.5 29t-77 84.5t-27.5 132.5q0 78 59.5 249 t95 289t44.5 252h36q8 -114 38 -223.5z" horiz-adv-x="604" glyph-name="exclamdown" unicode="¡"/>
<glyph d="M904.5 154q-53.5 -77 -136.5 -128t-193 -55v-342h-45v342q-212 8 -339.5 142t-127.5 417q0 178 59.5 299.5t164.5 185t243 75.5v360h45v-358h15q84 0 154.5 -17.5t115.5 -44.5q57 -33 90 -88.5t33 -124.5q0 -56 -25.5 -101.5t-70.5 -71.5t-101 -26q-88 0 -138 51t-50 134 q0 74 48.5 129.5t119.5 75.5q-33 24 -82 24q-62 0 -109 -36v-766q55 -35 127 -35q149 0 248 137l35 -13q-27 -88 -80.5 -165zM446 559q0 -199 84 -291v679q-84 -122 -84 -388z" horiz-adv-x="1055" glyph-name="cent" unicode="¢"/>
<glyph d="M1234.5 510q59.5 -35 96.5 -93.5t37 -135.5q0 -149 -92 -229.5t-275 -80.5q-86 0 -163 18t-180 52t-152 45q-9 2 -40 9t-60 7q-57 0 -113 -20q-38 -56 -83.5 -83.5t-90.5 -27.5q-56 0 -56 41q0 34 44.5 62t130.5 45q22 53 29 111t7 160v138v80h-157v41h157v164h-157v41 h157v45q0 608 557 608q158 0 246 -45q59 -31 93 -78.5t34 -109.5q0 -50 -22.5 -90.5t-63.5 -64t-94 -23.5q-84 0 -134 45.5t-50 118.5q0 66 35 115.5t98 72.5q-48 20 -117 20q-82 0 -126.5 -48t-62.5 -158t-18 -310v-98h215v-41h-215v-94q0 -36 -4 -70h219v-41h-227 q-21 -95 -73 -171t-135.5 -170.5t-117.5 -135.5q121 110 216 151.5t180 41.5q60 0 105.5 -7t129 -26t154.5 -19q60 0 97.5 33.5t37.5 83.5q0 55 -35 88.5t-98 46.5l8 33q69 -12 128.5 -47z" horiz-adv-x="1432" glyph-name="sterling" unicode="£"/>
<glyph d="M1130 807q39 -92 39 -193q0 -102 -41 -192l144 -141l-252 -252l-143 141q-94 -39 -193 -39q-101 0 -190 39l-142 -141l-252 252l140 139q-39 92 -39 194q0 101 39 193l-140 141l252 252l140 -141q93 41 192 41q92 0 195 -41l141 141l252 -252zM592 804q-44 -30 -70 -80.5 t-26 -109.5q0 -58 26 -108t70 -79.5t96 -29.5t95.5 29.5t69.5 79.5t26 108q0 59 -26 109.5t-70 80.5t-95 30q-52 0 -96 -30z" horiz-adv-x="1370" glyph-name="currency" unicode="¤"/>
<glyph d="M1213 1446q97 0 158 6v-41q-106 -52 -218 -272l-190 -377v-133h235v-41h-235v-164h235v-41h-235v-166q0 -77 11 -112t40 -48t94 -16v-41q-118 6 -352 6q-243 0 -354 -6v41q66 3 95 16t39.5 47.5t10.5 112.5v166h-236v41h236v164h-236v41h217l-360 665q-33 60 -63.5 87.5 t-54.5 27.5v43q126 -12 282 -12q177 0 451 12v-43q-83 0 -124 -8t-41 -39q0 -13 9 -31l292 -562l93 185q97 194 97 305q0 145 -164 152v41q153 -6 268 -6z" horiz-adv-x="1430" glyph-name="yen" unicode="¥"/>
<glyph d="M162 786v971h246v-971h-246zM162 -399v1067h246v-1067h-246z" horiz-adv-x="569" glyph-name="brokenbar" unicode="¦"/>
<glyph d="M1165 412.5q-62 -80.5 -204 -151.5q81 -72 118 -140t37 -150q0 -108 -68.5 -188.5t-190 -124t-277.5 -43.5q-173 0 -281 53q-60 32 -90.5 76t-30.5 117q0 44 22.5 82t64 61t93.5 23q84 0 134.5 -45.5t50.5 -118.5q0 -60 -32 -109.5t-83 -70.5q10 -10 50 -19.5t83 -9.5 q107 0 157 50t50 126q0 97 -47 149t-136.5 110t-135.5 89q-147 98 -222 158t-118 129t-43 158q0 101 62 181.5t204 151.5q-82 72 -119 139.5t-37 149.5q0 108 68.5 188.5t190 124.5t278.5 44q174 0 280 -54q60 -32 90.5 -76t30.5 -116q0 -44 -22.5 -82t-64 -61t-93.5 -23 q-84 0 -134 45.5t-50 118.5q0 59 31.5 108.5t82.5 71.5q-11 9 -50.5 19t-82.5 10q-106 0 -156.5 -50t-50.5 -127q0 -95 47 -147.5t136.5 -110.5t136.5 -90q146 -98 221.5 -158t118.5 -129t43 -157q0 -101 -62 -181.5zM906 306q26 43 26 112q0 57 -30 103t-103 102.5 t-224 154.5q-118 78 -189 133q-26 -43 -26 -112q0 -57 30 -103.5t102.5 -102.5t224.5 -155q118 -77 189 -132z" horiz-adv-x="1290" glyph-name="section" unicode="§"/>
<glyph d="M243 1556q41 -25 66 -66t25 -87q0 -48 -24.5 -89t-66 -65t-87.5 -24q-49 0 -90 24t-65 65t-24 89q0 46 24 87.5t65.5 66t89.5 24.5q46 0 87 -25zM730 1556q41 -25 66 -66t25 -87q0 -48 -24.5 -89t-66 -65t-87.5 -24q-48 0 -89 24t-65 65t-24 89q0 46 24 87.5t65 66 t89 24.5q46 0 87 -25z" horiz-adv-x="799" glyph-name="dieresis" unicode="¨"/>
<glyph d="M1301.5 1492.5q187.5 -109.5 297 -297t109.5 -409.5q0 -221 -109.5 -408.5t-297 -297t-408.5 -109.5q-222 0 -409 109.5t-296.5 297t-109.5 408.5q0 222 109.5 409.5t296.5 297t409 109.5q221 0 408.5 -109.5zM525 1435q-168 -101 -266.5 -273t-98.5 -376 q0 -203 98.5 -375t266.5 -273t368 -101q199 0 367.5 101t267 273t98.5 375q0 204 -98.5 376t-267 273t-367.5 101q-200 0 -368 -101zM1257.5 406q-55.5 -79 -142.5 -129t-202 -50q-223 0 -358 133.5t-135 425.5q0 190 68 316t186 186t272 60q83 0 153 -18t118 -44 q56 -35 89 -90t33 -123q0 -55 -25.5 -100.5t-70 -72t-100.5 -26.5q-89 0 -139 51t-50 134q0 74 48.5 129.5t119.5 75.5q-19 13 -50.5 21.5t-65.5 8.5t-62 -8q-46 -14 -76.5 -61.5t-47.5 -146.5t-17 -263q0 -159 37 -254t94 -133.5t125 -38.5q149 0 248 199l34 -13 q-28 -90 -83.5 -169z" horiz-adv-x="1786" glyph-name="copyright" unicode="©"/>
<glyph d="M509 1400.5q-30 39.5 -89 39.5q-52 0 -84 -23q50 -14 76 -52t26 -79q0 -64 -50 -100.5t-120 -36.5q-72 0 -115.5 36.5t-43.5 96.5q0 50 32.5 88.5t85.5 61.5q59 25 127 36t160 11q125 0 202 -27t113.5 -84t36.5 -149v-353q0 -20 7 -28.5t24 -8.5q25 0 43 15l23 -31 q-110 -76 -267 -76q-83 0 -118.5 24.5t-38.5 72.5q-50 -49 -115.5 -73t-134.5 -24q-97 0 -154 40.5t-57 121.5q0 56 30 94t93 67t174 60q69 20 116.5 49.5t47.5 65.5v37q0 89 -30 128.5zM477 1094q-57 -63 -57 -154q0 -40 16.5 -65t40.5 -25q36 0 62 20v306q-10 -25 -62 -82 z" horiz-adv-x="1014" glyph-name="ordfeminine" unicode="ª"/>
<glyph d="M639.5 891.5q-41.5 -110.5 -92 -209.5t-94.5 -152q44 -52 94.5 -150.5t92 -209t60.5 -195.5l-28 -8q-165 170 -313 301t-314 242v41q165 110 312.5 241.5t314.5 303.5l28 -9q-19 -85 -60.5 -195.5zM1064.5 748.5q-58.5 -147.5 -108.5 -218.5q50 -70 108.5 -216.5 t78.5 -256.5l-29 -8q-151 149 -277.5 259t-267.5 202v41q140 91 265.5 200.5t279.5 262.5l29 -8q-20 -110 -78.5 -257.5z" horiz-adv-x="1257" glyph-name="guillemotleft" unicode="«"/>
<glyph d="M1092 338v358h-953v62h1026v-420h-73z" horiz-adv-x="1294" glyph-name="logicalnot" unicode="¬"/>
<glyph horiz-adv-x="961" glyph-name="softhyphen" unicode="­"/>
<glyph d="M958 1525q131 -77 208 -208.5t77 -286.5t-77 -286t-208 -208t-286 -77t-286.5 77t-208.5 208t-77 286t77 286.5t208.5 208.5t286.5 77t286 -77zM915.5 592.5q111.5 68.5 176.5 185t65 252.5q0 137 -65 253t-176 184.5t-244 68.5t-244.5 -68.5t-176.5 -184.5t-65 -253 q0 -136 65 -252.5t176.5 -185t244.5 -68.5q132 0 243.5 68.5zM911 711q-144 0 -159 92l-27 147q-6 33 -14 50t-26 27t-54 14v-214q0 -32 3.5 -47t13 -20.5t30.5 -7.5v-31q-29 0 -66 1t-80 1q-51 0 -90.5 -1t-64.5 -1v31q21 2 30.5 7.5t13 20.5t3.5 47v449q0 33 -3.5 48.5 t-13 21.5t-30.5 8v30q33 -2 147 -2q69 0 112.5 1t63.5 1q138 0 198 -40.5t60 -120.5q0 -51 -49.5 -97.5t-167.5 -65.5q69 -6 109 -20t58.5 -37.5t25.5 -62.5l35 -145q5 -35 26 -35q12 0 23 8l12 -23q-41 -34 -119 -34zM725.5 1113q30.5 36 30.5 104q0 66 -22.5 101.5 t-65.5 35.5q-21 0 -29 -11t-8 -40v-226h8q56 0 86.5 36z" horiz-adv-x="1343" glyph-name="registered" unicode="®"/>
<glyph d="M10 1407v51h721v-51h-721z" horiz-adv-x="741" glyph-name="macron" unicode="¯"/>
<glyph d="M427.5 1649q57.5 -30 91.5 -86t34 -129q0 -75 -34 -131t-91.5 -86.5t-124.5 -30.5q-66 0 -123 30.5t-91 87t-34 130.5q0 73 34 129t91 86t123 30q67 0 124.5 -30zM209.5 1620q-45.5 -25 -74.5 -73.5t-29 -114.5q0 -68 29 -116t74 -71.5t94 -23.5t94.5 23.5t75 71.5 t29.5 116q0 66 -29.5 114.5t-75.5 73.5t-94 25t-93.5 -25z" horiz-adv-x="608" glyph-name="degree" unicode="°"/>
<glyph d="M66 0v62h1026v-62h-1026zM1096 758v-62h-476v-481h-73v481h-477v62h477v483h73v-483h476z" horiz-adv-x="1161" glyph-name="plusminus" unicode="±"/>
<glyph d="M375 1546q106 0 172.5 -38.5t66.5 -112.5q0 -71 -53.5 -120t-151 -107t-137.5 -85h281q31 0 49 7.5t27.5 21.5t19.5 41l35 -6q-29 -167 -31 -256q-24 6 -78 6h-532v41q24 21 124.5 98t158 154t57.5 164q0 47 -30.5 74.5t-86.5 27.5q-107 0 -170 -90l-30 16 q100 164 309 164z" horiz-adv-x="735" glyph-name="twosuperior" unicode="²"/>
<glyph d="M354 1548q71 0 128 -17.5t90.5 -50.5t33.5 -79q0 -72 -71 -122.5t-201 -72.5q10 1 31 1q74 0 135.5 -23.5t97 -66.5t35.5 -99q0 -140 -174 -213.5t-420 -91.5v35q173 25 270 98t97 188q0 62 -29 104t-80 46l-26 -13t-27.5 -12t-22.5 -4q-31 0 -31 25q0 19 23.5 24.5 t67.5 3.5q50 26 72 68.5t22 81.5q0 47 -32.5 77.5t-90.5 30.5q-52 0 -97 -26.5t-73 -71.5l-31 16q90 164 303 164z" horiz-adv-x="684" glyph-name="threesuperior" unicode="³"/>
<glyph d="M127.5 1455.5q28.5 95.5 42.5 134t45 73.5q19 23 49 36t62 13q51 0 90 -33q42 -33 42 -92q0 -54 -34 -94q-34 -41 -98.5 -81t-123.5 -79t-139 -106l-22 18q58 115 86.5 210.5z" horiz-adv-x="457" glyph-name="acute" unicode="´"/>
<glyph d="M282.5 179q-219.5 206 -219.5 558q0 209 100.5 371t289.5 253t446 91q88 0 239.5 -3.5t218.5 -3.5q105 0 179 5v-39q-57 -3 -86.5 -18.5t-40 -43.5t-10.5 -77v-1426q0 -78 10.5 -112.5t39.5 -47.5t95 -16v-41q-144 6 -424 6q-233 0 -344 -6v41q87 3 130.5 21.5t60 58.5 t16.5 117v106q-481 0 -700.5 206zM949 1259q-25 -84 -45.5 -215.5t-24.5 -273.5q-161 0 -305.5 -10t-236 -22.5t-91.5 -18.5q0 -8 89.5 -19.5t235 -20.5t308.5 -9q4 -147 24.5 -278t45.5 -212.5t36 -81.5v1245q-11 0 -36 -84z" horiz-adv-x="1618" glyph-name="paragraph" unicode="¶"/>
<glyph d="M445.5 725q52.5 -45 52.5 -132q0 -86 -52.5 -131t-150.5 -45q-99 0 -151 44.5t-52 131.5t52 132t151 45q98 0 150.5 -45z" horiz-adv-x="590" glyph-name="periodcentered" unicode="·"/>
<glyph d="M332 -92q74 0 112.5 -33t38.5 -86q0 -86 -88.5 -130t-234.5 -44q-114 0 -185 27l13 36q45 -10 98 -10q50 0 88.5 20t38.5 58q0 51 -57 51q-43 0 -68 -14l62 217h55l-35 -123q72 31 162 31z" horiz-adv-x="467" glyph-name="cedilla" unicode="¸"/>
<glyph d="M464.5 976.5q13.5 -21.5 42.5 -30t81 -8.5v-43q-102 4 -260 4t-260 -4v43q76 0 113.5 21.5t37.5 78.5v265q0 59 -14.5 87t-48 37t-103.5 9v43q142 2 231 15.5t167 47.5v-504q0 -40 13.5 -61.5z" horiz-adv-x="608" glyph-name="onesuperior" unicode="¹"/>
<glyph d="M711.5 1436.5q95.5 -42.5 148.5 -126t53 -202.5t-53 -202.5t-148.5 -126t-222.5 -42.5t-222 42.5t-148 126t-53 202.5t53 202.5t148 126t222 42.5t222.5 -42.5zM408 1108q0 -334 81 -334q82 0 82 334t-82 334q-81 0 -81 -334z" horiz-adv-x="979" glyph-name="ordmasculine" unicode="º"/>
<glyph d="M898.5 794q148.5 -132 313.5 -243v-41q-166 -111 -315 -243.5t-311 -299.5l-29 8q19 85 61 195.5t92.5 209t94.5 150.5q-44 53 -94.5 152t-92.5 209.5t-61 195.5l29 9q164 -170 312.5 -302zM422.5 751.5q125.5 -109.5 265.5 -200.5v-41q-141 -92 -267.5 -202t-277.5 -259 l-28 8q13 71 44.5 165t70.5 178t71 130q-32 46 -71 131t-70.5 179t-44.5 166l28 8q154 -153 279.5 -262.5z" horiz-adv-x="1257" glyph-name="guillemotright" unicode="»"/>
<glyph d="M219 -113l-39 27l1198 1774l39 -27zM495.5 976.5q13.5 -21.5 42.5 -30t81 -8.5v-43q-102 4 -260 4t-260 -4v43q76 0 113.5 21.5t37.5 78.5v265q0 59 -14.5 87t-48 37t-103.5 9v43q142 2 231 15.5t167 47.5v-504q0 -40 13.5 -61.5zM1305 31q-25 6 -78 6h-61v-240h-170v240 h-404v43l531 571h43v-473h37q31 0 48.5 7.5t27 21t20.5 41.5l35 -6q-21 -59 -29 -211zM996 467l-268 -289h268v289z" horiz-adv-x="1475" glyph-name="onequarter" unicode="¼"/>
<glyph d="M187 -113l-39 27l1198 1774l39 -27zM489.5 976.5q13.5 -21.5 42.5 -30t81 -8.5v-43q-102 4 -260 4t-260 -4v43q76 0 113.5 21.5t37.5 78.5v265q0 59 -14.5 87t-48 37t-103.5 9v43q142 2 231 15.5t167 47.5v-504q0 -40 13.5 -61.5zM1131 651q106 0 172.5 -38.5 t66.5 -112.5q0 -71 -53.5 -120t-151 -107t-137.5 -85h281q31 0 49 7.5t27.5 21.5t19.5 41l35 -6q-29 -167 -31 -256q-24 6 -78 6h-532v41q24 21 124.5 98t158 154t57.5 164q0 47 -30.5 74.5t-86.5 27.5q-107 0 -170 -90l-30 16q100 164 309 164z" horiz-adv-x="1503" glyph-name="onehalf" unicode="½"/>
<glyph d="M297 -113l-39 27l1198 1774l39 -27zM395 1548q71 0 128 -17.5t90.5 -50.5t33.5 -79q0 -72 -71 -122.5t-201 -72.5q10 1 31 1q74 0 135.5 -23.5t97 -66.5t35.5 -99q0 -140 -174 -213.5t-420 -91.5v35q173 25 270 98t97 188q0 62 -29 104t-80 46l-26 -13t-27.5 -12 t-22.5 -4q-31 0 -31 25q0 19 23.5 24.5t67.5 3.5q50 26 72 68.5t22 81.5q0 47 -32.5 77.5t-90.5 30.5q-52 0 -97 -26.5t-73 -71.5l-31 16q90 164 303 164zM1397 31q-25 6 -78 6h-61v-240h-170v240h-404v43l531 571h43v-473h37q31 0 48.5 7.5t27 21t20.5 41.5l35 -6 q-21 -59 -29 -211zM1088 467l-268 -289h268v289z" horiz-adv-x="1552" glyph-name="threequarters" unicode="¾"/>
<glyph d="M789.5 1049q52.5 -45 52.5 -132q0 -86 -52.5 -131t-150.5 -45q-99 0 -151 44.5t-52 131.5t52 132t151 45q98 0 150.5 -45zM511 270.5q-52 -60.5 -70.5 -130t-18.5 -158.5q0 -166 61 -246t166 -80q120 0 162 39q-67 25 -100 68.5t-33 111.5q0 48 24.5 87t69 62t102.5 23 q50 0 88 -22.5t59 -60.5t21 -81q0 -70 -34.5 -116t-96.5 -80q-57 -32 -139.5 -52t-183.5 -20q-159 0 -279.5 44.5t-187 128t-66.5 196.5q0 154 151.5 260t411.5 153v269h41v-287q-96 -48 -148 -108.5z" horiz-adv-x="1098" glyph-name="questiondown" unicode="¿"/>
<glyph d="M1369 74.5q32 -31.5 63 -33.5v-41q-148 6 -373 6q-234 0 -344 -6v41q77 3 110.5 19t33.5 56q0 31 -25 97l-122 336h-413l-35 -92q-66 -172 -66 -267q0 -84 46.5 -115t138.5 -34v-41q-153 6 -268 6q-97 0 -158 -6v41q50 8 95.5 63t92.5 177l455 1169q44 -4 108 -4t107 4 l496 -1278q26 -66 58 -97.5zM512 1102l-197 -512h383zM693 1618.5q-61 12.5 -154.5 27.5t-140.5 40q-36 18 -57 50.5t-21 69.5q0 27 12 54q19 38 54 57.5t76 19.5q33 0 63 -14q34 -16 59.5 -40.5t95.5 -109t168 -167.5l-14 -25q-80 25 -141 37.5z" horiz-adv-x="1417" glyph-name="Agrave" unicode="À"/>
<glyph d="M1369 74.5q32 -31.5 63 -33.5v-41q-148 6 -373 6q-234 0 -344 -6v41q77 3 110.5 19t33.5 56q0 31 -25 97l-122 336h-413l-35 -92q-66 -172 -66 -267q0 -84 46.5 -115t138.5 -34v-41q-153 6 -268 6q-97 0 -158 -6v41q50 8 95.5 63t92.5 177l455 1169q44 -4 108 -4t107 4 l496 -1278q26 -66 58 -97.5zM512 1102l-197 -512h383zM707 1766q64 77 91.5 107t70.5 50q28 14 63 14q40 0 75 -19.5t54 -57.5q12 -27 12 -54q0 -37 -20.5 -70t-56.5 -50q-47 -25 -123 -37t-145.5 -24.5t-168.5 -43.5l-14 25q98 83 162 160z" horiz-adv-x="1417" glyph-name="Aacute" unicode="Á"/>
<glyph d="M1369 74.5q32 -31.5 63 -33.5v-41q-148 6 -373 6q-234 0 -344 -6v41q77 3 110.5 19t33.5 56q0 31 -25 97l-122 336h-413l-35 -92q-66 -172 -66 -267q0 -84 46.5 -115t138.5 -34v-41q-153 6 -268 6q-97 0 -158 -6v41q50 8 95.5 63t92.5 177l455 1169q44 -4 108 -4t107 4 l496 -1278q26 -66 58 -97.5zM512 1102l-197 -512h383zM922 1764.5q119 -95.5 252 -158.5l-10 -31q-140 22 -276.5 56.5t-217.5 68.5q-68 -34 -182 -68.5t-229 -56.5l-11 31q130 62 248.5 156.5t196.5 195.5h37q73 -98 192 -193.5z" horiz-adv-x="1417" glyph-name="Acircumflex" unicode="Â"/>
<glyph d="M1369 74.5q32 -31.5 63 -33.5v-41q-148 6 -373 6q-234 0 -344 -6v41q77 3 110.5 19t33.5 56q0 31 -25 97l-122 336h-413l-35 -92q-66 -172 -66 -267q0 -84 46.5 -115t138.5 -34v-41q-153 6 -268 6q-97 0 -158 -6v41q50 8 95.5 63t92.5 177l455 1169q44 -4 108 -4t107 4 l496 -1278q26 -66 58 -97.5zM512 1102l-197 -512h383zM336.5 1844q81.5 77 184.5 77q77 0 131 -18.5t146 -67.5t176 -49q115 0 198 108l29 -14q-39 -159 -120 -236t-183 -77q-78 0 -132.5 19t-147 68.5t-175.5 49.5q-114 0 -199 -111l-28 15q39 159 120.5 236z" horiz-adv-x="1417" glyph-name="Atilde" unicode="Ã"/>
<glyph d="M1369 74.5q32 -31.5 63 -33.5v-41q-148 6 -373 6q-234 0 -344 -6v41q77 3 110.5 19t33.5 56q0 31 -25 97l-122 336h-413l-35 -92q-66 -172 -66 -267q0 -84 46.5 -115t138.5 -34v-41q-153 6 -268 6q-97 0 -158 -6v41q50 8 95.5 63t92.5 177l455 1169q44 -4 108 -4t107 4 l496 -1278q26 -66 58 -97.5zM512 1102l-197 -512h383zM534 1892q41 -25 66 -66t25 -87q0 -48 -24.5 -89t-66 -65t-87.5 -24q-48 0 -89 24t-65 64.5t-24 89.5q0 46 24 87.5t65 66t89 24.5q46 0 87 -25zM1062 1892q41 -25 66 -66t25 -87q0 -48 -24.5 -89t-66 -65t-87.5 -24 q-48 0 -89 24t-65 64.5t-24 89.5q0 46 24 87.5t65 66t89 24.5q46 0 87 -25z" horiz-adv-x="1417" glyph-name="Adieresis" unicode="Ä"/>
<glyph d="M1369 74.5q32 -31.5 63 -33.5v-41q-148 6 -373 6q-234 0 -344 -6v41q77 3 110.5 19t33.5 56q0 31 -25 97l-122 336h-413l-35 -92q-66 -172 -66 -267q0 -84 46.5 -115t138.5 -34v-41q-153 6 -268 6q-97 0 -158 -6v41q50 8 95.5 63t92.5 177l455 1169q44 -4 108 -4t107 4 l496 -1278q26 -66 58 -97.5zM512 1102l-197 -512h383zM830 1909.5q55 -25.5 88 -72.5t33 -108q0 -63 -33 -110.5t-88 -73t-119 -25.5q-63 0 -117.5 25.5t-87 73t-32.5 110.5q0 61 32.5 108t87 72.5t117.5 25.5q64 0 119 -25.5zM625 1872q-42 -20 -68 -57.5t-26 -88.5 q0 -52 26 -89t67.5 -55.5t86.5 -18.5q46 0 88 18.5t68.5 55.5t26.5 89q0 51 -26.5 88.5t-69 57.5t-87.5 20q-44 0 -86 -20z" horiz-adv-x="1417" glyph-name="Aring" unicode="Å"/>
<glyph d="M1765 303q0 -184 15 -303q-140 6 -469 6q-437 0 -656 -6v41q66 3 95.5 16t40 48t10.5 112v492h-332l-285 -496q-36 -65 -36 -100q0 -36 34 -52.5t107 -19.5v-41q-62 6 -187 6q-88 0 -137 -6v41q34 2 67 31.5t74 99.5l682 1180q-13 31 -42 42.5t-91 14.5v41l187 -3l78 134 h49l-78 -135q165 -2 420 -2q301 0 428 6q-15 -181 -15 -303q0 -99 7 -148h-48q-30 215 -109 309.5t-185 94.5h-27q-64 0 -93.5 -12t-40.5 -46.5t-11 -111.5v-483h81q65 0 104.5 40t57 88t35.5 121h47q-7 -94 -7 -179l1 -91q0 -96 12 -270h-47q-13 73 -34 126.5t-62 88.5 t-107 35h-81v-492q0 -77 11 -111.5t40.5 -46.5t93.5 -12h68q57 0 118.5 44t110 143.5t65.5 257.5h48q-7 -70 -7 -189zM801 1233q0 31 -1 53l-308 -536h309v483z" horiz-adv-x="1868" glyph-name="AE" unicode="Æ"/>
<glyph d="M1300.5 92.5q-11.5 28.5 -33.5 28.5q-16 0 -42 -17q-61 -43 -112.5 -70.5t-117.5 -45t-149 -17.5q-232 0 -406 88t-270 255.5t-96 398.5q0 226 98.5 400t274 270t401.5 96q122 0 208.5 -35t168.5 -98q23 -18 40 -18q42 0 52 122h47q-8 -145 -8 -512h-47 q-10 109 -28.5 182.5t-56.5 132t-104 101.5q-94 61 -190 61q-147 0 -232.5 -103.5t-119 -258.5t-33.5 -332t33.5 -332t119 -258.5t232.5 -103.5q96 0 190 61q66 41 104 101t56.5 140.5t28.5 202.5h47q0 -381 8 -532h-47q-5 64 -16.5 92.5zM1026 -92q84 0 128 -33t44 -86 q0 -86 -105 -130t-280 -44q-126 0 -205 27l13 36q55 -10 119 -10q76 0 132 20t56 58q0 51 -98 51q-43 0 -68 -14l66 227h55l-39 -133q81 31 182 31z" horiz-adv-x="1468" glyph-name="Ccedilla" unicode="Ç"/>
<glyph d="M1229 344q0 -209 14 -344q-139 6 -469 6q-479 0 -717 -6v41q66 3 95.5 16t40 48t10.5 112v1016q0 77 -11 112t-40.5 48t-94.5 16v41q238 -6 717 -6q301 0 428 6q-14 -192 -14 -344q0 -95 6 -148h-47q-36 238 -136.5 341.5t-240.5 103.5h-27q-56 0 -81 -9t-34.5 -35.5 t-9.5 -84.5v-524h21q73 0 131.5 41t96.5 103t51 126h47q-8 -120 -8 -199l1 -92q0 -88 13 -291h-47q-13 77 -51.5 138.5t-98.5 97t-135 35.5h-21v-533q0 -59 9.5 -85t34.5 -35t81 -9h68q74 0 148.5 47t136 155.5t92.5 282.5h47q-6 -73 -6 -188zM637 1618.5 q-61 12.5 -154.5 27.5t-140.5 40q-36 18 -57 50.5t-21 69.5q0 27 12 54q19 38 54 57.5t76 19.5q33 0 63 -14q34 -16 59.5 -40.5t95.5 -109t168 -167.5l-14 -25q-80 25 -141 37.5z" horiz-adv-x="1331" glyph-name="Egrave" unicode="È"/>
<glyph d="M1229 344q0 -209 14 -344q-139 6 -469 6q-479 0 -717 -6v41q66 3 95.5 16t40 48t10.5 112v1016q0 77 -11 112t-40.5 48t-94.5 16v41q238 -6 717 -6q301 0 428 6q-14 -192 -14 -344q0 -95 6 -148h-47q-36 238 -136.5 341.5t-240.5 103.5h-27q-56 0 -81 -9t-34.5 -35.5 t-9.5 -84.5v-524h21q73 0 131.5 41t96.5 103t51 126h47q-8 -120 -8 -199l1 -92q0 -88 13 -291h-47q-13 77 -51.5 138.5t-98.5 97t-135 35.5h-21v-533q0 -59 9.5 -85t34.5 -35t81 -9h68q74 0 148.5 47t136 155.5t92.5 282.5h47q-6 -73 -6 -188zM651 1766q64 77 91.5 107 t70.5 50q28 14 63 14q40 0 75 -19.5t54 -57.5q12 -27 12 -54q0 -37 -20.5 -70t-56.5 -50q-47 -25 -123 -37t-145.5 -24.5t-168.5 -43.5l-14 25q98 83 162 160z" horiz-adv-x="1331" glyph-name="Eacute" unicode="É"/>
<glyph d="M1229 344q0 -209 14 -344q-139 6 -469 6q-479 0 -717 -6v41q66 3 95.5 16t40 48t10.5 112v1016q0 77 -11 112t-40.5 48t-94.5 16v41q238 -6 717 -6q301 0 428 6q-14 -192 -14 -344q0 -95 6 -148h-47q-36 238 -136.5 341.5t-240.5 103.5h-27q-56 0 -81 -9t-34.5 -35.5 t-9.5 -84.5v-524h21q73 0 131.5 41t96.5 103t51 126h47q-8 -120 -8 -199l1 -92q0 -88 13 -291h-47q-13 77 -51.5 138.5t-98.5 97t-135 35.5h-21v-533q0 -59 9.5 -85t34.5 -35t81 -9h68q74 0 148.5 47t136 155.5t92.5 282.5h47q-6 -73 -6 -188zM866 1764.5 q119 -95.5 252 -158.5l-10 -31q-140 22 -276.5 56.5t-217.5 68.5q-68 -34 -182 -68.5t-229 -56.5l-11 31q130 62 248.5 156.5t196.5 195.5h37q73 -98 192 -193.5z" horiz-adv-x="1331" glyph-name="Ecircumflex" unicode="Ê"/>
<glyph d="M1229 344q0 -209 14 -344q-139 6 -469 6q-479 0 -717 -6v41q66 3 95.5 16t40 48t10.5 112v1016q0 77 -11 112t-40.5 48t-94.5 16v41q238 -6 717 -6q301 0 428 6q-14 -192 -14 -344q0 -95 6 -148h-47q-36 238 -136.5 341.5t-240.5 103.5h-27q-56 0 -81 -9t-34.5 -35.5 t-9.5 -84.5v-524h21q73 0 131.5 41t96.5 103t51 126h47q-8 -120 -8 -199l1 -92q0 -88 13 -291h-47q-13 77 -51.5 138.5t-98.5 97t-135 35.5h-21v-533q0 -59 9.5 -85t34.5 -35t81 -9h68q74 0 148.5 47t136 155.5t92.5 282.5h47q-6 -73 -6 -188zM478 1892q41 -25 66 -66 t25 -87q0 -48 -24.5 -89t-66 -65t-87.5 -24q-48 0 -89 24t-65 64.5t-24 89.5q0 46 24 87.5t65 66t89 24.5q46 0 87 -25zM1006 1892q41 -25 66 -66t25 -87q0 -48 -24.5 -89t-66 -65t-87.5 -24q-48 0 -89 24t-65 64.5t-24 89.5q0 46 24 87.5t65 66t89 24.5q46 0 87 -25z" horiz-adv-x="1331" glyph-name="Edieresis" unicode="Ë"/>
<glyph d="M668.5 1393q-29.5 -13 -40 -48t-10.5 -112v-1016q0 -77 11 -112t40.5 -48t94.5 -16v-41q-120 6 -342 6q-248 0 -365 -6v41q66 3 95.5 16t40 48t10.5 112v1016q0 77 -11 112t-40.5 48t-94.5 16v41q117 -6 365 -6q222 0 342 6v-41q-66 -3 -95.5 -16zM404 1618.5 q-61 12.5 -154.5 27.5t-140.5 40q-36 18 -57 50.5t-21 69.5q0 27 12 54q19 38 54 57.5t76 19.5q33 0 63 -14q34 -16 59.5 -40.5t95.5 -109t168 -167.5l-14 -25q-80 25 -141 37.5z" horiz-adv-x="821" glyph-name="Igrave" unicode="Ì"/>
<glyph d="M668.5 1393q-29.5 -13 -40 -48t-10.5 -112v-1016q0 -77 11 -112t40.5 -48t94.5 -16v-41q-120 6 -342 6q-248 0 -365 -6v41q66 3 95.5 16t40 48t10.5 112v1016q0 77 -11 112t-40.5 48t-94.5 16v41q117 -6 365 -6q222 0 342 6v-41q-66 -3 -95.5 -16zM418 1766 q64 77 91.5 107t70.5 50q28 14 63 14q40 0 75 -19.5t54 -57.5q12 -27 12 -54q0 -37 -20.5 -70t-56.5 -50q-47 -25 -123 -37t-145.5 -24.5t-168.5 -43.5l-14 25q98 83 162 160z" horiz-adv-x="821" glyph-name="Iacute" unicode="Í"/>
<glyph d="M668.5 1393q-29.5 -13 -40 -48t-10.5 -112v-1016q0 -77 11 -112t40.5 -48t94.5 -16v-41q-120 6 -342 6q-248 0 -365 -6v41q66 3 95.5 16t40 48t10.5 112v1016q0 77 -11 112t-40.5 48t-94.5 16v41q117 -6 365 -6q222 0 342 6v-41q-66 -3 -95.5 -16zM633 1764.5 q119 -95.5 252 -158.5l-10 -31q-140 22 -276.5 56.5t-217.5 68.5q-68 -34 -182 -68.5t-229 -56.5l-11 31q130 62 248.5 156.5t196.5 195.5h37q73 -98 192 -193.5z" horiz-adv-x="821" glyph-name="Icircumflex" unicode="Î"/>
<glyph d="M668.5 1393q-29.5 -13 -40 -48t-10.5 -112v-1016q0 -77 11 -112t40.5 -48t94.5 -16v-41q-120 6 -342 6q-248 0 -365 -6v41q66 3 95.5 16t40 48t10.5 112v1016q0 77 -11 112t-40.5 48t-94.5 16v41q117 -6 365 -6q222 0 342 6v-41q-66 -3 -95.5 -16zM245 1892 q41 -25 66 -66t25 -87q0 -48 -24.5 -89t-66 -65t-87.5 -24q-48 0 -89 24t-65 64.5t-24 89.5q0 46 24 87.5t65 66t89 24.5q46 0 87 -25zM773 1892q41 -25 66 -66t25 -87q0 -48 -24.5 -89t-66 -65t-87.5 -24q-48 0 -89 24t-65 64.5t-24 89.5q0 46 24 87.5t65 66t89 24.5 q46 0 87 -25z" horiz-adv-x="821" glyph-name="Idieresis" unicode="Ï"/>
<glyph d="M337 1443l73 1q300 6 329 6q425 0 635.5 -181t210.5 -528q0 -223 -103 -390.5t-297.5 -259t-463.5 -91.5q-30 0 -143 3t-164 3q-240 0 -357 -6v41q66 3 95.5 16t40 48t10.5 112v492h-146v41h146v483q0 77 -11 112t-40.5 48t-94.5 16v41q149 -7 280 -7zM630 102.5 q12 -36.5 44.5 -51t97.5 -14.5q203 0 293 175t90 521q0 347 -93 513.5t-292 166.5q-64 0 -96 -14.5t-44 -51.5t-12 -110v-487h234v-41h-234v-496q0 -74 12 -110.5z" horiz-adv-x="1661" glyph-name="Eth" unicode="Ð"/>
<glyph d="M1356 1365q-30 -30 -40.5 -91.5t-10.5 -183.5v-1090q-30 3 -67 3q-36 0 -77 -3l-907 991v-590q0 -151 12 -217t54 -97.5t141 -45.5v-41q-82 6 -230 6q-108 0 -170 -6v41q64 14 94.5 44t41 91.5t10.5 183.5v873q0 77 -11 112t-40.5 48t-94.5 16v41q62 -6 170 -6 q113 0 189 6l837 -885v484q0 151 -12 217t-53.5 97.5t-140.5 45.5v41q83 -6 229 -6q109 0 170 6v-41q-64 -14 -94 -44zM407.5 1844q81.5 77 184.5 77q77 0 131 -18.5t146 -67.5t176 -49q115 0 198 108l29 -14q-39 -159 -120 -236t-183 -77q-78 0 -132.5 19t-147 68.5 t-175.5 49.5q-114 0 -199 -111l-28 15q39 159 120.5 236z" horiz-adv-x="1499" glyph-name="Ntilde" unicode="Ñ"/>
<glyph d="M1254 1391q174 -88 270 -255.5t96 -398.5q0 -226 -98.5 -400t-274.5 -270t-401 -96q-232 0 -406 88t-270 255.5t-96 398.5q0 226 98.5 400t274 270t401.5 96q232 0 406 -88zM663 1350.5q-76 -91.5 -117.5 -255t-41.5 -374.5q0 -212 47 -374.5t127 -250.5t176 -88 q101 0 177 91.5t117.5 255t41.5 374.5q0 212 -47 374.5t-127 250.5t-176 88q-101 0 -177 -91.5zM826 1618.5q-61 12.5 -154.5 27.5t-140.5 40q-36 18 -57 50.5t-21 69.5q0 27 12 54q19 38 54 57.5t76 19.5q33 0 63 -14q34 -16 59.5 -40.5t95.5 -109t168 -167.5l-14 -25 q-80 25 -141 37.5z" horiz-adv-x="1694" glyph-name="Ograve" unicode="Ò"/>
<glyph d="M1254 1391q174 -88 270 -255.5t96 -398.5q0 -226 -98.5 -400t-274.5 -270t-401 -96q-232 0 -406 88t-270 255.5t-96 398.5q0 226 98.5 400t274 270t401.5 96q232 0 406 -88zM663 1350.5q-76 -91.5 -117.5 -255t-41.5 -374.5q0 -212 47 -374.5t127 -250.5t176 -88 q101 0 177 91.5t117.5 255t41.5 374.5q0 212 -47 374.5t-127 250.5t-176 88q-101 0 -177 -91.5zM840 1766q64 77 91.5 107t70.5 50q28 14 63 14q40 0 75 -19.5t54 -57.5q12 -27 12 -54q0 -37 -20.5 -70t-56.5 -50q-47 -25 -123 -37t-145.5 -24.5t-168.5 -43.5l-14 25 q98 83 162 160z" horiz-adv-x="1694" glyph-name="Oacute" unicode="Ó"/>
<glyph d="M1254 1391q174 -88 270 -255.5t96 -398.5q0 -226 -98.5 -400t-274.5 -270t-401 -96q-232 0 -406 88t-270 255.5t-96 398.5q0 226 98.5 400t274 270t401.5 96q232 0 406 -88zM663 1350.5q-76 -91.5 -117.5 -255t-41.5 -374.5q0 -212 47 -374.5t127 -250.5t176 -88 q101 0 177 91.5t117.5 255t41.5 374.5q0 212 -47 374.5t-127 250.5t-176 88q-101 0 -177 -91.5zM1055 1764.5q119 -95.5 252 -158.5l-10 -31q-140 22 -276.5 56.5t-217.5 68.5q-68 -34 -182 -68.5t-229 -56.5l-11 31q130 62 248.5 156.5t196.5 195.5h37q73 -98 192 -193.5z " horiz-adv-x="1694" glyph-name="Ocircumflex" unicode="Ô"/>
<glyph d="M1254 1391q174 -88 270 -255.5t96 -398.5q0 -226 -98.5 -400t-274.5 -270t-401 -96q-232 0 -406 88t-270 255.5t-96 398.5q0 226 98.5 400t274 270t401.5 96q232 0 406 -88zM663 1350.5q-76 -91.5 -117.5 -255t-41.5 -374.5q0 -212 47 -374.5t127 -250.5t176 -88 q101 0 177 91.5t117.5 255t41.5 374.5q0 212 -47 374.5t-127 250.5t-176 88q-101 0 -177 -91.5zM469.5 1844q81.5 77 184.5 77q77 0 131 -18.5t146 -67.5t176 -49q115 0 198 108l29 -14q-39 -159 -120 -236t-183 -77q-78 0 -132.5 19t-147 68.5t-175.5 49.5 q-114 0 -199 -111l-28 15q39 159 120.5 236z" horiz-adv-x="1694" glyph-name="Otilde" unicode="Õ"/>
<glyph d="M1254 1391q174 -88 270 -255.5t96 -398.5q0 -226 -98.5 -400t-274.5 -270t-401 -96q-232 0 -406 88t-270 255.5t-96 398.5q0 226 98.5 400t274 270t401.5 96q232 0 406 -88zM663 1350.5q-76 -91.5 -117.5 -255t-41.5 -374.5q0 -212 47 -374.5t127 -250.5t176 -88 q101 0 177 91.5t117.5 255t41.5 374.5q0 212 -47 374.5t-127 250.5t-176 88q-101 0 -177 -91.5zM667 1892q41 -25 66 -66t25 -87q0 -48 -24.5 -89t-66 -65t-87.5 -24q-48 0 -89 24t-65 64.5t-24 89.5q0 46 24 87.5t65 66t89 24.5q46 0 87 -25zM1195 1892q41 -25 66 -66 t25 -87q0 -48 -24.5 -89t-66 -65t-87.5 -24q-48 0 -89 24t-65 64.5t-24 89.5q0 46 24 87.5t65 66t89 24.5q46 0 87 -25z" horiz-adv-x="1694" glyph-name="Odieresis" unicode="Ö"/>
<glyph d="M850 1126l45 -45l-354 -352l354 -354l-45 -45l-354 354l-357 -356l-45 45l357 354l-359 358l45 45l359 -358z" horiz-adv-x="987" glyph-name="multiply" unicode="×"/>
<glyph d="M1533 1119.5q87 -162.5 87 -382.5q0 -226 -98.5 -400t-274.5 -270t-401 -96q-246 0 -427 99l-173 -240l-43 29l172 238q-145 94 -223 251t-78 365q0 226 98.5 400t274 270t401.5 96q224 0 395 -83l141 208l39 -27l-137 -204q160 -91 247 -253.5zM989 1381q-69 61 -149 61 q-101 0 -177 -91.5t-117.5 -255t-41.5 -374.5q0 -224 53 -396l550 882q-49 113 -118 174zM699 75q72 -67 155 -67q101 0 177 91.5t117.5 255t41.5 374.5q0 242 -62 422l-550 -887q49 -122 121 -189z" horiz-adv-x="1694" glyph-name="Oslash" unicode="Ø"/>
<glyph d="M1300.5 1365q-30.5 -30 -41 -91.5t-10.5 -183.5v-494q0 -297 -84 -434q-114 -191 -440 -191q-247 0 -385 99q-68 49 -104.5 121t-50 167t-13.5 232v643q0 78 -10.5 112.5t-39.5 47.5t-95 16v41q115 -6 360 -6q241 0 367 6v-41q-74 -3 -107.5 -16t-46 -48t-12.5 -112v-836 q0 -133 28 -210.5t84 -110.5t144 -33q195 0 276.5 137.5t81.5 392.5v476q0 151 -12 217t-54 97.5t-141 45.5v41q84 -6 230 -6q108 0 170 6v-41q-64 -14 -94.5 -44zM721 1618.5q-61 12.5 -154.5 27.5t-140.5 40q-36 18 -57 50.5t-21 69.5q0 27 12 54q19 38 54 57.5t76 19.5 q33 0 63 -14q34 -16 59.5 -40.5t95.5 -109t168 -167.5l-14 -25q-80 25 -141 37.5z" horiz-adv-x="1419" glyph-name="Ugrave" unicode="Ù"/>
<glyph d="M1300.5 1365q-30.5 -30 -41 -91.5t-10.5 -183.5v-494q0 -297 -84 -434q-114 -191 -440 -191q-247 0 -385 99q-68 49 -104.5 121t-50 167t-13.5 232v643q0 78 -10.5 112.5t-39.5 47.5t-95 16v41q115 -6 360 -6q241 0 367 6v-41q-74 -3 -107.5 -16t-46 -48t-12.5 -112v-836 q0 -133 28 -210.5t84 -110.5t144 -33q195 0 276.5 137.5t81.5 392.5v476q0 151 -12 217t-54 97.5t-141 45.5v41q84 -6 230 -6q108 0 170 6v-41q-64 -14 -94.5 -44zM735 1766q64 77 91.5 107t70.5 50q28 14 63 14q40 0 75 -19.5t54 -57.5q12 -27 12 -54q0 -37 -20.5 -70 t-56.5 -50q-47 -25 -123 -37t-145.5 -24.5t-168.5 -43.5l-14 25q98 83 162 160z" horiz-adv-x="1419" glyph-name="Uacute" unicode="Ú"/>
<glyph d="M1300.5 1365q-30.5 -30 -41 -91.5t-10.5 -183.5v-494q0 -297 -84 -434q-114 -191 -440 -191q-247 0 -385 99q-68 49 -104.5 121t-50 167t-13.5 232v643q0 78 -10.5 112.5t-39.5 47.5t-95 16v41q115 -6 360 -6q241 0 367 6v-41q-74 -3 -107.5 -16t-46 -48t-12.5 -112v-836 q0 -133 28 -210.5t84 -110.5t144 -33q195 0 276.5 137.5t81.5 392.5v476q0 151 -12 217t-54 97.5t-141 45.5v41q84 -6 230 -6q108 0 170 6v-41q-64 -14 -94.5 -44zM950 1764.5q119 -95.5 252 -158.5l-10 -31q-140 22 -276.5 56.5t-217.5 68.5q-68 -34 -182 -68.5t-229 -56.5 l-11 31q130 62 248.5 156.5t196.5 195.5h37q73 -98 192 -193.5z" horiz-adv-x="1419" glyph-name="Ucircumflex" unicode="Û"/>
<glyph d="M1300.5 1365q-30.5 -30 -41 -91.5t-10.5 -183.5v-494q0 -297 -84 -434q-114 -191 -440 -191q-247 0 -385 99q-68 49 -104.5 121t-50 167t-13.5 232v643q0 78 -10.5 112.5t-39.5 47.5t-95 16v41q115 -6 360 -6q241 0 367 6v-41q-74 -3 -107.5 -16t-46 -48t-12.5 -112v-836 q0 -133 28 -210.5t84 -110.5t144 -33q195 0 276.5 137.5t81.5 392.5v476q0 151 -12 217t-54 97.5t-141 45.5v41q84 -6 230 -6q108 0 170 6v-41q-64 -14 -94.5 -44zM562 1892q41 -25 66 -66t25 -87q0 -48 -24.5 -89t-66 -65t-87.5 -24q-48 0 -89 24t-65 64.5t-24 89.5 q0 46 24 87.5t65 66t89 24.5q46 0 87 -25zM1090 1892q41 -25 66 -66t25 -87q0 -48 -24.5 -89t-66 -65t-87.5 -24q-48 0 -89 24t-65 64.5t-24 89.5q0 46 24 87.5t65 66t89 24.5q46 0 87 -25z" horiz-adv-x="1419" glyph-name="Udieresis" unicode="Ü"/>
<glyph d="M1145 1446q96 0 158 6v-41q-106 -52 -218 -272l-190 -377v-545q0 -77 11 -112t40 -48t94 -16v-41q-118 6 -352 6q-243 0 -354 -6v41q66 3 95 16t39.5 47.5t10.5 112.5v377l-379 700q-33 60 -63.5 87.5t-54.5 27.5v43q126 -12 282 -12q177 0 451 12v-43q-83 0 -124 -8 t-41 -39q0 -13 9 -31l292 -562l93 185q97 194 97 305q0 145 -164 152v41q153 -6 268 -6zM709 1766q64 77 91.5 107t70.5 50q28 14 63 14q40 0 75 -19.5t54 -57.5q12 -27 12 -54q0 -37 -20.5 -70t-56.5 -50q-47 -25 -123 -37t-145.5 -24.5t-168.5 -43.5l-14 25q98 83 162 160 z" horiz-adv-x="1319" glyph-name="Yacute" unicode="Ý"/>
<glyph d="M618 217q0 -77 11 -112t40.5 -48t94.5 -16v-41q-120 6 -342 6q-248 0 -365 -6v41q66 3 95.5 16t40 48t10.5 112v1016q0 77 -11 112t-40.5 48t-94.5 16v41q117 -6 365 -6q222 0 342 6v-41q-66 -3 -95.5 -16t-40 -48t-10.5 -112v-60l66 1q313 0 464.5 -95t151.5 -295 q0 -211 -149.5 -342t-511.5 -131h-21v-94zM816 462q54 110 54 300t-54.5 281.5t-182.5 91.5h-15v-783q144 0 198 110z" horiz-adv-x="1327" glyph-name="Thorn" unicode="Þ"/>
<glyph d="M298 1461q146 141 429 141q150 0 258 -41t163.5 -111.5t55.5 -157.5q0 -98 -64 -180.5t-175 -140t-252 -84.5q231 -26 387.5 -98.5t233.5 -178.5t77 -235q0 -128 -70.5 -219.5t-187 -138t-252.5 -46.5q-315 0 -315 234q0 89 46 143.5t126 54.5q74 0 119 -46.5t45 -120.5 q0 -75 -45.5 -131.5t-108.5 -84.5q24 -12 59 -12q102 0 149.5 95t47.5 247q0 174 -55.5 278.5t-126 150.5t-164.5 81q-46 -22 -70 -22q-17 0 -29 8.5t-12 23.5q0 17 12 27t33 10q33 0 66 -14q69 45 107.5 96.5t54.5 116.5t16 156q0 309 -170 309q-77 0 -112 -46 t-44.5 -140.5t-9.5 -292.5v-1115q-129 26 -284 29q-16 1 -44 1q-51 0 -155 -7v43q43 0 68 13t36 45t11 89v859q0 271 146 412z" horiz-adv-x="1444" glyph-name="germandbls" unicode="ß"/>
<glyph d="M557.5 999.5q-32.5 51.5 -119.5 51.5q-26 0 -55.5 -10t-52.5 -25q137 -51 137 -185q0 -48 -24.5 -87t-69.5 -62t-103 -23q-50 0 -88 23.5t-59 64.5t-21 91q0 62 34.5 109.5t92.5 78.5q129 66 328 66q117 0 198 -22.5t136 -80.5q40 -42 53.5 -106.5t13.5 -180.5v-548 q0 -49 7 -68.5t24 -19.5q16 0 29.5 7.5t34.5 22.5l20 -35q-48 -40 -112 -57.5t-154 -17.5q-108 0 -158.5 43.5t-52.5 111.5q-43 -71 -121 -113t-172 -42q-121 0 -189.5 64t-68.5 171q0 105 63 175t197 114q109 39 161.5 61.5t88 54t35.5 74.5v183q0 65 -32.5 116.5zM510 526 q-100 -97 -100 -231q0 -145 104 -145q43 0 76 34v432q-15 -25 -80 -90zM527.5 1317q-51.5 36 -131.5 85.5t-113 90.5q-34 40 -34 93q0 58 42 93q37 34 88 34q32 0 63 -14t50 -36q25 -28 38.5 -60.5t45.5 -137.5t90 -220l-23 -18q-64 54 -115.5 90z" horiz-adv-x="1087" glyph-name="agrave" unicode="à"/>
<glyph d="M557.5 999.5q-32.5 51.5 -119.5 51.5q-26 0 -55.5 -10t-52.5 -25q137 -51 137 -185q0 -48 -24.5 -87t-69.5 -62t-103 -23q-50 0 -88 23.5t-59 64.5t-21 91q0 62 34.5 109.5t92.5 78.5q129 66 328 66q117 0 198 -22.5t136 -80.5q40 -42 53.5 -106.5t13.5 -180.5v-548 q0 -49 7 -68.5t24 -19.5q16 0 29.5 7.5t34.5 22.5l20 -35q-48 -40 -112 -57.5t-154 -17.5q-108 0 -158.5 43.5t-52.5 111.5q-43 -71 -121 -113t-172 -42q-121 0 -189.5 64t-68.5 171q0 105 63 175t197 114q109 39 161.5 61.5t88 54t35.5 74.5v183q0 65 -32.5 116.5zM510 526 q-100 -97 -100 -231q0 -145 104 -145q43 0 76 34v432q-15 -25 -80 -90zM490.5 1455.5q28.5 95.5 42.5 134t45 73.5q19 23 49 36t62 13q51 0 90 -33q42 -33 42 -92q0 -54 -34 -94q-34 -41 -98.5 -81t-123.5 -79t-139 -106l-22 18q58 115 86.5 210.5z" horiz-adv-x="1087" glyph-name="aacute" unicode="á"/>
<glyph d="M557.5 999.5q-32.5 51.5 -119.5 51.5q-26 0 -55.5 -10t-52.5 -25q137 -51 137 -185q0 -48 -24.5 -87t-69.5 -62t-103 -23q-50 0 -88 23.5t-59 64.5t-21 91q0 62 34.5 109.5t92.5 78.5q129 66 328 66q117 0 198 -22.5t136 -80.5q40 -42 53.5 -106.5t13.5 -180.5v-548 q0 -49 7 -68.5t24 -19.5q16 0 29.5 7.5t34.5 22.5l20 -35q-48 -40 -112 -57.5t-154 -17.5q-108 0 -158.5 43.5t-52.5 111.5q-43 -71 -121 -113t-172 -42q-121 0 -189.5 64t-68.5 171q0 105 63 175t197 114q109 39 161.5 61.5t88 54t35.5 74.5v183q0 65 -32.5 116.5zM510 526 q-100 -97 -100 -231q0 -145 104 -145q43 0 76 34v432q-15 -25 -80 -90zM736 1462q102 -117 216 -192l-16 -29q-122 22 -238.5 55.5t-187.5 67.5q-59 -34 -153 -67.5t-191 -55.5l-17 29q112 73 213 189.5t170 244.5h37q65 -125 167 -242z" horiz-adv-x="1087" glyph-name="acircumflex" unicode="â"/>
<glyph d="M557.5 999.5q-32.5 51.5 -119.5 51.5q-26 0 -55.5 -10t-52.5 -25q137 -51 137 -185q0 -48 -24.5 -87t-69.5 -62t-103 -23q-50 0 -88 23.5t-59 64.5t-21 91q0 62 34.5 109.5t92.5 78.5q129 66 328 66q117 0 198 -22.5t136 -80.5q40 -42 53.5 -106.5t13.5 -180.5v-548 q0 -49 7 -68.5t24 -19.5q16 0 29.5 7.5t34.5 22.5l20 -35q-48 -40 -112 -57.5t-154 -17.5q-108 0 -158.5 43.5t-52.5 111.5q-43 -71 -121 -113t-172 -42q-121 0 -189.5 64t-68.5 171q0 105 63 175t197 114q109 39 161.5 61.5t88 54t35.5 74.5v183q0 65 -32.5 116.5zM510 526 q-100 -97 -100 -231q0 -145 104 -145q43 0 76 34v432q-15 -25 -80 -90zM216 1552q70 82 160 82q63 0 107.5 -18.5t120.5 -67.5t143 -49q92 0 158 109l28 -15q-34 -169 -103.5 -251t-158.5 -82q-63 0 -108 19t-121 68.5t-143 49.5q-91 0 -158 -111l-29 14q34 170 104 252z " horiz-adv-x="1087" glyph-name="atilde" unicode="ã"/>
<glyph d="M557.5 999.5q-32.5 51.5 -119.5 51.5q-26 0 -55.5 -10t-52.5 -25q137 -51 137 -185q0 -48 -24.5 -87t-69.5 -62t-103 -23q-50 0 -88 23.5t-59 64.5t-21 91q0 62 34.5 109.5t92.5 78.5q129 66 328 66q117 0 198 -22.5t136 -80.5q40 -42 53.5 -106.5t13.5 -180.5v-548 q0 -49 7 -68.5t24 -19.5q16 0 29.5 7.5t34.5 22.5l20 -35q-48 -40 -112 -57.5t-154 -17.5q-108 0 -158.5 43.5t-52.5 111.5q-43 -71 -121 -113t-172 -42q-121 0 -189.5 64t-68.5 171q0 105 63 175t197 114q109 39 161.5 61.5t88 54t35.5 74.5v183q0 65 -32.5 116.5zM510 526 q-100 -97 -100 -231q0 -145 104 -145q43 0 76 34v432q-15 -25 -80 -90zM397 1556q41 -25 66 -66t25 -87q0 -48 -24.5 -89t-66 -65t-87.5 -24q-49 0 -90 24t-65 65t-24 89q0 46 24 87.5t65.5 66t89.5 24.5q46 0 87 -25zM884 1556q41 -25 66 -66t25 -87q0 -48 -24.5 -89 t-66 -65t-87.5 -24q-48 0 -89 24t-65 65t-24 89q0 46 24 87.5t65 66t89 24.5q46 0 87 -25z" horiz-adv-x="1087" glyph-name="adieresis" unicode="ä"/>
<glyph d="M557.5 999.5q-32.5 51.5 -119.5 51.5q-26 0 -55.5 -10t-52.5 -25q137 -51 137 -185q0 -48 -24.5 -87t-69.5 -62t-103 -23q-50 0 -88 23.5t-59 64.5t-21 91q0 62 34.5 109.5t92.5 78.5q129 66 328 66q117 0 198 -22.5t136 -80.5q40 -42 53.5 -106.5t13.5 -180.5v-548 q0 -49 7 -68.5t24 -19.5q16 0 29.5 7.5t34.5 22.5l20 -35q-48 -40 -112 -57.5t-154 -17.5q-108 0 -158.5 43.5t-52.5 111.5q-43 -71 -121 -113t-172 -42q-121 0 -189.5 64t-68.5 171q0 105 63 175t197 114q109 39 161.5 61.5t88 54t35.5 74.5v183q0 65 -32.5 116.5zM510 526 q-100 -97 -100 -231q0 -145 104 -145q43 0 76 34v432q-15 -25 -80 -90zM670 1614.5q55 -25.5 88 -72.5t33 -108q0 -62 -33 -110t-88 -73.5t-119 -25.5q-63 0 -117.5 25.5t-87 73.5t-32.5 110q0 61 32.5 108t87 72.5t117.5 25.5q64 0 119 -25.5zM465.5 1577.5 q-41.5 -19.5 -68 -57t-26.5 -88.5q0 -53 26 -90t67.5 -55.5t86.5 -18.5q46 0 88 18.5t68.5 55.5t26.5 90q0 51 -26.5 88.5t-69 57t-87.5 19.5q-44 0 -85.5 -19.5z" horiz-adv-x="1087" glyph-name="aring" unicode="å"/>
<glyph d="M954 559q0 -197 62.5 -280.5t152.5 -83.5q138 0 228 137l35 -13q-27 -91 -80 -169.5t-136 -128.5t-192 -50q-125 0 -222.5 50t-156.5 156q-59 -94 -138 -142.5t-198 -48.5q-121 0 -189.5 64t-68.5 171q0 104 62.5 173.5t197.5 115.5q95 35 146.5 59t84.5 56t33 75v183 q0 66 -32 117t-119 51q-55 0 -109 -35q138 -52 138 -185q0 -48 -24.5 -87t-69.5 -62t-103 -23q-50 0 -88 23.5t-59 64.5t-21 91q0 62 34 109.5t93 78.5q126 66 279 66q99 0 162 -21.5t114 -74.5q126 96 307 96q178 0 272.5 -110t94.5 -349h-489q-1 -24 -1 -74zM1126.5 939.5 q-20.5 104.5 -63.5 104.5q-49 0 -78 -87.5t-37 -284.5h197q2 163 -18.5 267.5zM516 526q-48 -56 -74 -105t-26 -112q0 -127 104 -127q65 0 107 33q-56 127 -56 315q0 43 4 84v2q-18 -43 -59 -90z" horiz-adv-x="1497" glyph-name="ae" unicode="æ"/>
<glyph d="M899.5 150q-55.5 -79 -142.5 -129t-202 -50q-224 0 -359 133.5t-135 425.5q0 190 68 316t186.5 186t272.5 60q84 0 154.5 -17.5t115.5 -44.5q57 -33 90 -88.5t33 -124.5q0 -56 -25.5 -101.5t-70.5 -71.5t-101 -26q-88 0 -138 51t-50 134q0 74 48.5 129.5t119.5 75.5 q-33 24 -82 24q-132 0 -185 -140.5t-53 -332.5q0 -197 74.5 -280.5t181.5 -83.5q149 0 248 137l35 -13q-28 -90 -83.5 -169zM659 -92q74 0 112.5 -33t38.5 -86q0 -86 -88.5 -130t-234.5 -44q-114 0 -185 27l13 36q45 -10 98 -10q50 0 88.5 20t38.5 58q0 51 -57 51 q-43 0 -68 -14l62 217h55l-35 -123q72 31 162 31z" glyph-name="ccedilla" unicode="ç"/>
<glyph d="M446 559q0 -197 68.5 -280.5t167.5 -83.5q149 0 248 137l35 -13q-29 -91 -84 -169.5t-142 -128.5t-202 -50q-215 0 -344.5 133.5t-129.5 425.5q0 190 68 316t186.5 186t272.5 60q387 0 387 -459h-529q-2 -24 -2 -74zM654.5 939.5q-25.5 104.5 -79.5 104.5q-56 0 -90 -88 t-44 -284h237q2 163 -23.5 267.5zM547.5 1317q-51.5 36 -131.5 85.5t-113 90.5q-34 40 -34 93q0 58 42 93q37 34 88 34q32 0 63 -14t50 -36q25 -28 38.5 -60.5t45.5 -137.5t90 -220l-23 -18q-64 54 -115.5 90z" glyph-name="egrave" unicode="è"/>
<glyph d="M446 559q0 -197 68.5 -280.5t167.5 -83.5q149 0 248 137l35 -13q-29 -91 -84 -169.5t-142 -128.5t-202 -50q-215 0 -344.5 133.5t-129.5 425.5q0 190 68 316t186.5 186t272.5 60q387 0 387 -459h-529q-2 -24 -2 -74zM654.5 939.5q-25.5 104.5 -79.5 104.5q-56 0 -90 -88 t-44 -284h237q2 163 -23.5 267.5zM510.5 1455.5q28.5 95.5 42.5 134t45 73.5q19 23 49 36t62 13q51 0 90 -33q42 -33 42 -92q0 -54 -34 -94q-34 -41 -98.5 -81t-123.5 -79t-139 -106l-22 18q58 115 86.5 210.5z" glyph-name="eacute" unicode="é"/>
<glyph d="M446 559q0 -197 68.5 -280.5t167.5 -83.5q149 0 248 137l35 -13q-29 -91 -84 -169.5t-142 -128.5t-202 -50q-215 0 -344.5 133.5t-129.5 425.5q0 190 68 316t186.5 186t272.5 60q387 0 387 -459h-529q-2 -24 -2 -74zM654.5 939.5q-25.5 104.5 -79.5 104.5q-56 0 -90 -88 t-44 -284h237q2 163 -23.5 267.5zM756 1462q102 -117 216 -192l-16 -29q-122 22 -238.5 55.5t-187.5 67.5q-59 -34 -153 -67.5t-191 -55.5l-17 29q112 73 213 189.5t170 244.5h37q65 -125 167 -242z" glyph-name="ecircumflex" unicode="ê"/>
<glyph d="M446 559q0 -197 68.5 -280.5t167.5 -83.5q149 0 248 137l35 -13q-29 -91 -84 -169.5t-142 -128.5t-202 -50q-215 0 -344.5 133.5t-129.5 425.5q0 190 68 316t186.5 186t272.5 60q387 0 387 -459h-529q-2 -24 -2 -74zM654.5 939.5q-25.5 104.5 -79.5 104.5q-56 0 -90 -88 t-44 -284h237q2 163 -23.5 267.5zM417 1556q41 -25 66 -66t25 -87q0 -48 -24.5 -89t-66 -65t-87.5 -24q-49 0 -90 24t-65 65t-24 89q0 46 24 87.5t65.5 66t89.5 24.5q46 0 87 -25zM904 1556q41 -25 66 -66t25 -87q0 -48 -24.5 -89t-66 -65t-87.5 -24q-48 0 -89 24t-65 65 t-24 89q0 46 24 87.5t65 66t89 24.5q46 0 87 -25z" glyph-name="edieresis" unicode="ë"/>
<glyph d="M537 101q11 -32 36 -45t68 -13v-43q-220 8 -291 8t-307 -8v43q43 0 68 13t36 45t11 89v650q0 95 -26 137.5t-89 42.5v43q65 -6 127 -6q213 0 356 28v-895q0 -57 11 -89zM320.5 1317q-51.5 36 -131.5 85.5t-113 90.5q-34 40 -34 93q0 58 42 93q37 34 88 34q32 0 63 -14 t50 -36q25 -28 38.5 -60.5t45.5 -137.5t90 -220l-23 -18q-64 54 -115.5 90z" horiz-adv-x="676" glyph-name="igrave" unicode="ì"/>
<glyph d="M537 101q11 -32 36 -45t68 -13v-43q-220 8 -291 8t-307 -8v43q43 0 68 13t36 45t11 89v650q0 95 -26 137.5t-89 42.5v43q65 -6 127 -6q213 0 356 28v-895q0 -57 11 -89zM283.5 1455.5q28.5 95.5 42.5 134t45 73.5q19 23 49 36t62 13q51 0 90 -33q42 -33 42 -92 q0 -54 -34 -94q-34 -41 -98.5 -81t-123.5 -79t-139 -106l-22 18q58 115 86.5 210.5z" horiz-adv-x="676" glyph-name="iacute" unicode="í"/>
<glyph d="M537 101q11 -32 36 -45t68 -13v-43q-220 8 -291 8t-307 -8v43q43 0 68 13t36 45t11 89v650q0 95 -26 137.5t-89 42.5v43q65 -6 127 -6q213 0 356 28v-895q0 -57 11 -89zM529 1462q102 -117 216 -192l-16 -29q-122 22 -238.5 55.5t-187.5 67.5q-59 -34 -153 -67.5 t-191 -55.5l-17 29q112 73 213 189.5t170 244.5h37q65 -125 167 -242z" horiz-adv-x="676" glyph-name="icircumflex" unicode="î"/>
<glyph d="M537 101q11 -32 36 -45t68 -13v-43q-220 8 -291 8t-307 -8v43q43 0 68 13t36 45t11 89v650q0 95 -26 137.5t-89 42.5v43q65 -6 127 -6q213 0 356 28v-895q0 -57 11 -89zM190 1556q41 -25 66 -66t25 -87q0 -48 -24.5 -89t-66 -65t-87.5 -24q-49 0 -90 24t-65 65t-24 89 q0 46 24 87.5t65.5 66t89.5 24.5q46 0 87 -25zM677 1556q41 -25 66 -66t25 -87q0 -48 -24.5 -89t-66 -65t-87.5 -24q-48 0 -89 24t-65 65t-24 89q0 46 24 87.5t65 66t89 24.5q46 0 87 -25z" horiz-adv-x="676" glyph-name="idieresis" unicode="ï"/>
<glyph d="M997.5 1070q114.5 -198 114.5 -443q0 -333 -137 -496.5t-383 -163.5q-251 0 -388.5 126.5t-137.5 415.5q0 210 64.5 340t171.5 186.5t241 56.5q82 0 144 -27q-44 163 -137 280l-304 -149l-19 37l296 144q-102 113 -261 190l17 35q200 -62 363 -167l296 144l18 -37 l-275 -133q202 -141 316.5 -339zM735 610q0 256 -39 420q-30 10 -59 10q-96 0 -142 -124t-46 -384q0 -263 39 -393.5t104 -130.5q143 0 143 602z" horiz-adv-x="1178" glyph-name="eth" unicode="ð"/>
<glyph d="M852 1092q163 0 231 -82q31 -37 45.5 -99.5t14.5 -165.5v-555q0 -57 11 -89t35.5 -45t67.5 -13v-43q-220 8 -286 8q-71 0 -291 -8v43q36 0 56 13t29 44.5t9 89.5v666q0 66 -24 97.5t-76 31.5q-38 0 -72 -19t-55 -52.5t-21 -75.5v-648q0 -57 9 -89t29.5 -45t56.5 -13v-43 q-208 8 -271 8q-71 0 -307 -8v43q43 0 68 13t36 45t11 89v650q0 95 -26 137.5t-89 42.5v43q65 -6 127 -6q213 0 356 28v-147q93 154 326 154zM316 1552q70 82 160 82q63 0 107.5 -18.5t120.5 -67.5t143 -49q92 0 158 109l28 -15q-34 -169 -103.5 -251t-158.5 -82 q-63 0 -108 19t-121 68.5t-143 49.5q-91 0 -158 -111l-29 14q34 170 104 252z" horiz-adv-x="1280" glyph-name="ntilde" unicode="ñ"/>
<glyph d="M979 959.5q137 -132.5 137 -429.5q0 -296 -137 -427.5t-389 -131.5q-253 0 -390 131.5t-137 427.5q0 297 137.5 429.5t389.5 132.5t389 -132.5zM485.5 922q-39.5 -129 -39.5 -392q0 -262 39.5 -390t104.5 -128t104 128t39 390q0 263 -39 392t-104 129t-104.5 -129z M566.5 1317q-51.5 36 -131.5 85.5t-113 90.5q-34 40 -34 93q0 58 42 93q37 34 88 34q32 0 63 -14t50 -36q25 -28 38.5 -60.5t45.5 -137.5t90 -220l-23 -18q-64 54 -115.5 90z" horiz-adv-x="1180" glyph-name="ograve" unicode="ò"/>
<glyph d="M979 959.5q137 -132.5 137 -429.5q0 -296 -137 -427.5t-389 -131.5q-253 0 -390 131.5t-137 427.5q0 297 137.5 429.5t389.5 132.5t389 -132.5zM485.5 922q-39.5 -129 -39.5 -392q0 -262 39.5 -390t104.5 -128t104 128t39 390q0 263 -39 392t-104 129t-104.5 -129z M529.5 1455.5q28.5 95.5 42.5 134t45 73.5q19 23 49 36t62 13q51 0 90 -33q42 -33 42 -92q0 -54 -34 -94q-34 -41 -98.5 -81t-123.5 -79t-139 -106l-22 18q58 115 86.5 210.5z" horiz-adv-x="1180" glyph-name="oacute" unicode="ó"/>
<glyph d="M979 959.5q137 -132.5 137 -429.5q0 -296 -137 -427.5t-389 -131.5q-253 0 -390 131.5t-137 427.5q0 297 137.5 429.5t389.5 132.5t389 -132.5zM485.5 922q-39.5 -129 -39.5 -392q0 -262 39.5 -390t104.5 -128t104 128t39 390q0 263 -39 392t-104 129t-104.5 -129z M775 1462q102 -117 216 -192l-16 -29q-122 22 -238.5 55.5t-187.5 67.5q-59 -34 -153 -67.5t-191 -55.5l-17 29q112 73 213 189.5t170 244.5h37q65 -125 167 -242z" horiz-adv-x="1180" glyph-name="ocircumflex" unicode="ô"/>
<glyph d="M979 959.5q137 -132.5 137 -429.5q0 -296 -137 -427.5t-389 -131.5q-253 0 -390 131.5t-137 427.5q0 297 137.5 429.5t389.5 132.5t389 -132.5zM485.5 922q-39.5 -129 -39.5 -392q0 -262 39.5 -390t104.5 -128t104 128t39 390q0 263 -39 392t-104 129t-104.5 -129z M255 1552q70 82 160 82q63 0 107.5 -18.5t120.5 -67.5t143 -49q92 0 158 109l28 -15q-34 -169 -103.5 -251t-158.5 -82q-63 0 -108 19t-121 68.5t-143 49.5q-91 0 -158 -111l-29 14q34 170 104 252z" horiz-adv-x="1180" glyph-name="otilde" unicode="õ"/>
<glyph d="M979 959.5q137 -132.5 137 -429.5q0 -296 -137 -427.5t-389 -131.5q-253 0 -390 131.5t-137 427.5q0 297 137.5 429.5t389.5 132.5t389 -132.5zM485.5 922q-39.5 -129 -39.5 -392q0 -262 39.5 -390t104.5 -128t104 128t39 390q0 263 -39 392t-104 129t-104.5 -129z M436 1556q41 -25 66 -66t25 -87q0 -48 -24.5 -89t-66 -65t-87.5 -24q-49 0 -90 24t-65 65t-24 89q0 46 24 87.5t65.5 66t89.5 24.5q46 0 87 -25zM923 1556q41 -25 66 -66t25 -87q0 -48 -24.5 -89t-66 -65t-87.5 -24q-48 0 -89 24t-65 65t-24 89q0 46 24 87.5t65 66t89 24.5 q46 0 87 -25z" horiz-adv-x="1180" glyph-name="odieresis" unicode="ö"/>
<glyph d="M722.5 1101.5q33.5 -33.5 33.5 -79.5q0 -48 -33.5 -80.5t-81.5 -32.5q-46 0 -79.5 33t-33.5 80q0 46 33.5 79.5t79.5 33.5q48 0 81.5 -33.5zM131 696v62h1026v-62h-1026zM722.5 512q33.5 -33 33.5 -80t-33.5 -81t-81.5 -34q-46 0 -79.5 34t-33.5 81q0 46 33.5 79.5 t79.5 33.5q48 0 81.5 -33z" horiz-adv-x="1276" glyph-name="divide" unicode="÷"/>
<glyph d="M1116 530q0 -296 -137 -427.5t-389 -131.5q-183 0 -301 65l-129 -186l-39 27l127 185q-185 133 -185 468q0 297 137.5 429.5t389.5 132.5q187 0 306 -69l132 189l39 -26l-131 -190q180 -135 180 -466zM668 989.5q-33 61.5 -78 61.5q-65 0 -104.5 -129t-39.5 -392 q0 -111 8 -200l264 472q-17 126 -50 187.5zM513 70q33 -58 77 -58q65 0 104 128t39 390q0 105 -7 190l-263 -473q17 -119 50 -177z" horiz-adv-x="1180" glyph-name="oslash" unicode="ø"/>
<glyph d="M1148 85.5q26 -42.5 89 -42.5v-43q-64 6 -127 6q-215 0 -356 -29v148q-93 -154 -326 -154q-163 0 -231 82q-31 37 -45.5 99t-14.5 165v523q0 95 -25.5 137.5t-88.5 42.5v43q64 -6 127 -6q212 0 356 28v-878q0 -66 24 -97.5t76 -31.5q38 0 72 19t55 52.5t21 75.5v615 q0 95 -26 137.5t-89 42.5v43q64 -6 127 -6q213 0 356 28v-862q0 -95 26 -137.5zM580.5 1317q-51.5 36 -131.5 85.5t-113 90.5q-34 40 -34 93q0 58 42 93q37 34 88 34q32 0 63 -14t50 -36q25 -28 38.5 -60.5t45.5 -137.5t90 -220l-23 -18q-64 54 -115.5 90z" horiz-adv-x="1274" glyph-name="ugrave" unicode="ù"/>
<glyph d="M1148 85.5q26 -42.5 89 -42.5v-43q-64 6 -127 6q-215 0 -356 -29v148q-93 -154 -326 -154q-163 0 -231 82q-31 37 -45.5 99t-14.5 165v523q0 95 -25.5 137.5t-88.5 42.5v43q64 -6 127 -6q212 0 356 28v-878q0 -66 24 -97.5t76 -31.5q38 0 72 19t55 52.5t21 75.5v615 q0 95 -26 137.5t-89 42.5v43q64 -6 127 -6q213 0 356 28v-862q0 -95 26 -137.5zM543.5 1455.5q28.5 95.5 42.5 134t45 73.5q19 23 49 36t62 13q51 0 90 -33q42 -33 42 -92q0 -54 -34 -94q-34 -41 -98.5 -81t-123.5 -79t-139 -106l-22 18q58 115 86.5 210.5z" horiz-adv-x="1274" glyph-name="uacute" unicode="ú"/>
<glyph d="M1148 85.5q26 -42.5 89 -42.5v-43q-64 6 -127 6q-215 0 -356 -29v148q-93 -154 -326 -154q-163 0 -231 82q-31 37 -45.5 99t-14.5 165v523q0 95 -25.5 137.5t-88.5 42.5v43q64 -6 127 -6q212 0 356 28v-878q0 -66 24 -97.5t76 -31.5q38 0 72 19t55 52.5t21 75.5v615 q0 95 -26 137.5t-89 42.5v43q64 -6 127 -6q213 0 356 28v-862q0 -95 26 -137.5zM789 1462q102 -117 216 -192l-16 -29q-122 22 -238.5 55.5t-187.5 67.5q-59 -34 -153 -67.5t-191 -55.5l-17 29q112 73 213 189.5t170 244.5h37q65 -125 167 -242z" horiz-adv-x="1274" glyph-name="ucircumflex" unicode="û"/>
<glyph d="M1148 85.5q26 -42.5 89 -42.5v-43q-64 6 -127 6q-215 0 -356 -29v148q-93 -154 -326 -154q-163 0 -231 82q-31 37 -45.5 99t-14.5 165v523q0 95 -25.5 137.5t-88.5 42.5v43q64 -6 127 -6q212 0 356 28v-878q0 -66 24 -97.5t76 -31.5q38 0 72 19t55 52.5t21 75.5v615 q0 95 -26 137.5t-89 42.5v43q64 -6 127 -6q213 0 356 28v-862q0 -95 26 -137.5zM450 1556q41 -25 66 -66t25 -87q0 -48 -24.5 -89t-66 -65t-87.5 -24q-49 0 -90 24t-65 65t-24 89q0 46 24 87.5t65.5 66t89.5 24.5q46 0 87 -25zM937 1556q41 -25 66 -66t25 -87 q0 -48 -24.5 -89t-66 -65t-87.5 -24q-48 0 -89 24t-65 65t-24 89q0 46 24 87.5t65 66t89 24.5q46 0 87 -25z" horiz-adv-x="1274" glyph-name="udieresis" unicode="ü"/>
<glyph d="M918 1055q116 0 157 8v-43q-42 -16 -77.5 -61t-67.5 -138l-256 -762l-86 -247q-38 -107 -90 -148q-63 -49 -191 -49q-63 0 -127 19.5t-107.5 62.5t-43.5 110q0 72 54.5 115t145.5 43q87 0 136 -38.5t49 -112.5q0 -49 -34 -93t-99 -65q20 -4 69 -4q141 0 195 164l11 33 l-478 1056q-31 70 -60.5 92.5t-58.5 22.5v43q163 -12 334 -12q133 0 297 12v-43q-61 0 -92 -8t-31 -38q0 -15 8 -32l253 -600l85 262q39 116 39 210q0 96 -41.5 148.5t-108.5 57.5v43q77 -8 216 -8zM471.5 1455.5q28.5 95.5 42.5 134t45 73.5q19 23 49 36t62 13q51 0 90 -33 q42 -33 42 -92q0 -54 -34 -94q-34 -41 -98.5 -81t-123.5 -79t-139 -106l-22 18q58 115 86.5 210.5z" horiz-adv-x="1083" glyph-name="yacute" unicode="ý"/>
<glyph d="M809 1092q104 0 184 -57t126 -172.5t46 -284.5q0 -325 -131.5 -466t-345.5 -141q-121 0 -190 39v-170q0 -95 43.5 -131.5t132.5 -36.5v-43q-33 1 -148.5 5t-228.5 4q-83 0 -171 -4t-112 -5v43q43 0 68 13t36 45t11 90v1536q0 95 -26 137.5t-89 42.5v43q64 -6 127 -6 q215 0 357 29v-664q93 154 311 154zM569 33q112 0 162.5 122t50.5 375t-36.5 354t-100.5 101q-38 0 -72 -19t-54.5 -52.5t-20.5 -75.5v-788q28 -17 71 -17z" horiz-adv-x="1231" glyph-name="thorn" unicode="þ"/>
<glyph d="M537 101q11 -32 36 -45t68 -13v-43q-220 8 -291 8t-307 -8v43q43 0 68 13t36 45t11 89v650q0 95 -26 137.5t-89 42.5v43q65 -6 127 -6q213 0 356 28v-895q0 -57 11 -89z" horiz-adv-x="676" glyph-name="dotlessi" unicode="ı"/>
<glyph d="M597 1462q102 -117 216 -192l-16 -29q-122 22 -238.5 55.5t-187.5 67.5q-59 -34 -153 -67.5t-191 -55.5l-17 29q112 73 213 189.5t170 244.5h37q65 -125 167 -242z" horiz-adv-x="823" glyph-name="circumflex" unicode="ˆ"/>
<glyph d="M368 1557q58 -45 58 -132q0 -86 -58 -131t-165 -45q-109 0 -166 44.5t-57 131.5t57 132t166 45q107 0 165 -45z" horiz-adv-x="406" glyph-name="dotaccent" unicode="˙"/>
<glyph d="M387 1614.5q55 -25.5 88 -72.5t33 -108q0 -62 -33 -110t-88 -73.5t-119 -25.5q-63 0 -117.5 25.5t-87 73.5t-32.5 110q0 61 32.5 108t87 72.5t117.5 25.5q64 0 119 -25.5zM182.5 1577.5q-41.5 -19.5 -68 -57t-26.5 -88.5q0 -53 26 -90t67.5 -55.5t86.5 -18.5 q46 0 88 18.5t68.5 55.5t26.5 90q0 51 -26.5 88.5t-69 57t-87.5 19.5q-44 0 -85.5 -19.5z" horiz-adv-x="539" glyph-name="ring" unicode="˚"/>
<glyph d="M114 1552q70 82 160 82q63 0 107.5 -18.5t120.5 -67.5t143 -49q92 0 158 109l28 -15q-34 -169 -103.5 -251t-158.5 -82q-63 0 -108 19t-121 68.5t-143 49.5q-91 0 -158 -111l-29 14q34 170 104 252z" horiz-adv-x="842" glyph-name="tilde" unicode="˜"/>
<glyph d="M1229 344q0 -209 14 -344q-139 6 -469 6q-479 0 -717 -6v41q66 3 95.5 16t40 48t10.5 112v1016q0 77 -11 112t-40.5 48t-94.5 16v41q238 -6 717 -6q301 0 428 6q-14 -192 -14 -344q0 -95 6 -148h-47q-36 238 -136.5 341.5t-240.5 103.5h-27q-56 0 -81 -9t-34.5 -35.5 t-9.5 -84.5v-524h21q73 0 131.5 41t96.5 103t51 126h47q-8 -120 -8 -199l1 -92q0 -88 13 -291h-47q-13 77 -51.5 138.5t-98.5 97t-135 35.5h-21v-533q0 -59 9.5 -85t34.5 -35t81 -9h68q74 0 148.5 47t136 155.5t92.5 282.5h47q-6 -73 -6 -188zM478 1892q41 -25 66 -66 t25 -87q0 -48 -24.5 -89t-66 -65t-87.5 -24q-48 0 -89 24t-65 64.5t-24 89.5q0 46 24 87.5t65 66t89 24.5q46 0 87 -25zM1006 1892q41 -25 66 -66t25 -87q0 -48 -24.5 -89t-66 -65t-87.5 -24q-48 0 -89 24t-65 64.5t-24 89.5q0 46 24 87.5t65 66t89 24.5q46 0 87 -25z" horiz-adv-x="1331" glyph-name="uni0401" unicode="Ё"/>
<glyph d="M1132 814q124 38 283 38q163 0 292 -51t203.5 -153t74.5 -249q0 -138 -74.5 -234.5t-202.5 -145t-287 -48.5q-102 0 -193 32.5t-148.5 98t-57.5 160.5q0 62 30 108t80.5 70.5t110.5 24.5q88 0 139.5 -50.5t51.5 -138.5t-54 -144.5t-149 -82.5q65 -26 131 -26q67 0 120 40 t84 124t31 210q0 183 -73.5 286t-245.5 103q-103 0 -204.5 -34t-149.5 -82v-693q-124 29 -316 29q-171 0 -327 -6v41q100 0 146 13t63.5 52t17.5 125v1172h-2q-125 0 -230.5 -117.5t-173.5 -388.5h-47q6 53 6 147q0 179 -14 406q195 -6 670 -6q473 0 667 6 q-14 -203 -14 -365q0 -94 6 -147h-47q-47 144 -113 249t-140.5 160.5t-149.5 55.5h-2v-690q84 63 208 101z" horiz-adv-x="2011" glyph-name="uni0402" unicode="Ђ"/>
<glyph d="M774 1444q301 0 428 6q-14 -192 -14 -344q0 -95 6 -148h-47q-50 237 -151 341t-226 104h-27q-56 0 -81 -9t-34.5 -35.5t-9.5 -84.5v-1057q0 -77 12.5 -112t46 -48t107.5 -16v-41q-126 6 -362 6q-248 0 -365 -6v41q65 3 94.5 16t40.5 48t11 112v1016q0 77 -10.5 112 t-40 48t-95.5 16v41q238 -6 717 -6zM586 1766q64 77 91.5 107t70.5 50q28 14 63 14q40 0 75 -19.5t54 -57.5q12 -27 12 -54q0 -37 -20.5 -70t-56.5 -50q-47 -25 -123 -37t-145.5 -24.5t-168.5 -43.5l-14 25q98 83 162 160z" horiz-adv-x="1233" glyph-name="uni0403" unicode="Ѓ"/>
<glyph d="M1364 0h-47q-5 64 -16.5 92.5t-33.5 28.5q-16 0 -42 -17q-61 -43 -112.5 -70.5t-117.5 -45t-149 -17.5q-232 0 -406 88t-270 255.5t-96 398.5q0 226 98.5 400t274 270t401.5 96q122 0 208.5 -35t168.5 -98q23 -18 40 -18q42 0 52 122h47q-8 -112 -8 -389h-47 q-21 77 -40.5 124t-54 87t-94.5 82q-86 61 -190 61q-147 0 -232.5 -103.5t-119 -258.5t-33.5 -332q0 -61 4 -118q22 117 63 197.5t92 120.5t103 40q48 0 87.5 -20t115.5 -74t131 -54q38 0 77 34t56 109l37 -6q-17 -144 -53.5 -242.5t-86.5 -148t-108 -49.5q-46 0 -84.5 19 t-115 73.5t-138.5 54.5q-50 0 -96.5 -29.5t-74.5 -88.5q23 -224 112 -368t264 -144q96 0 190 61q66 41 104 101t56.5 140.5t28.5 202.5h47q0 -381 8 -532z" horiz-adv-x="1473" glyph-name="uni0404" unicode="Є"/>
<glyph d="M257 185q88 -152 271 -152q114 0 180 53t66 147q0 81 -36.5 145.5t-98.5 118t-164 121.5q-124 83 -196.5 144t-120 142.5t-47.5 187.5q0 128 69.5 215.5t184.5 129.5t253 42q118 0 191 -22t141 -60q29 -16 43 -22.5t27 -6.5q19 0 29 21.5t16 68.5h47q-10 -147 -10 -500 h-47q-8 117 -53.5 224t-123.5 174t-180 67q-93 0 -151 -50t-58 -140q0 -74 34.5 -127t95 -100t231.5 -166q113 -79 180 -138.5t109.5 -139.5t42.5 -185q0 -133 -75 -224.5t-201 -136.5t-281 -45q-126 0 -208.5 20.5t-154.5 55.5q-46 29 -69 29q-19 0 -29 -21t-17 -69h-47 q9 156 9 594h47q13 -243 101 -395z" horiz-adv-x="1255" glyph-name="uni0405" unicode="Ѕ"/>
<glyph d="M668.5 1393q-29.5 -13 -40 -48t-10.5 -112v-1016q0 -77 11 -112t40.5 -48t94.5 -16v-41q-120 6 -342 6q-248 0 -365 -6v41q66 3 95.5 16t40 48t10.5 112v1016q0 77 -11 112t-40.5 48t-94.5 16v41q117 -6 365 -6q222 0 342 6v-41q-66 -3 -95.5 -16z" horiz-adv-x="821" glyph-name="uni0406" unicode="І"/>
<glyph d="M668.5 1393q-29.5 -13 -40 -48t-10.5 -112v-1016q0 -77 11 -112t40.5 -48t94.5 -16v-41q-120 6 -342 6q-248 0 -365 -6v41q66 3 95.5 16t40 48t10.5 112v1016q0 77 -11 112t-40.5 48t-94.5 16v41q117 -6 365 -6q222 0 342 6v-41q-66 -3 -95.5 -16zM245 1892 q41 -25 66 -66t25 -87q0 -48 -24.5 -89t-66 -65t-87.5 -24q-48 0 -89 24t-65 64.5t-24 89.5q0 46 24 87.5t65 66t89 24.5q46 0 87 -25zM773 1892q41 -25 66 -66t25 -87q0 -48 -24.5 -89t-66 -65t-87.5 -24q-48 0 -89 24t-65 64.5t-24 89.5q0 46 24 87.5t65 66t89 24.5 q46 0 87 -25z" horiz-adv-x="821" glyph-name="uni0407" unicode="Ї"/>
<glyph d="M658.5 1393q-29.5 -13 -40 -48t-10.5 -112v-750l1 -168q0 -252 -36 -366q-31 -96 -109.5 -171.5t-198 -119t-267.5 -43.5q-150 0 -229 39q-103 51 -103 153q0 72 55 115t146 43q86 0 135 -38.5t49 -112.5q0 -48 -29.5 -90t-89.5 -64q13 -2 37 -2q65 0 112 36.5t69 92.5 q21 58 30 120t11 141.5t2 248.5v936q0 77 -11 112t-40.5 48t-94.5 16v41q111 -6 344 -6q237 0 363 6v-41q-66 -3 -95.5 -16z" horiz-adv-x="799" glyph-name="uni0408" unicode="Ј"/>
<glyph d="M1382 864q362 0 512 -114.5t150 -300.5q0 -129 -63.5 -227.5t-192 -157t-315.5 -64.5h-9h-34q-170 0 -259 6h-79q-241 0 -367 -6v41q74 3 107.5 16t46 48t12.5 112v1016q0 73 -14 111t-40.5 51.5t-70.5 13.5h-6q-56 0 -87 -37t-38 -139q-6 -66 -32.5 -447.5t-121.5 -598 t-274 -216.5q-71 0 -128.5 30t-89.5 81.5t-32 112.5q0 64 30.5 113t82.5 75.5t116 26.5q84 0 133.5 -40.5t49.5 -111.5q0 -60 -28 -109t-76.5 -80.5t-108.5 -41.5q15 -17 51 -17q146 0 223.5 174t106 413t51.5 636q1 21 -8 56t-46 71.5t-112 48.5v41q85 -6 211 -6q31 0 91 3 t89 3q51 0 142 -3t151 -3q244 0 367 6v-41q-74 -3 -107.5 -16t-46 -48t-12.5 -112v-369h75zM1318 109q11 -35 41 -49t94 -18q88 9 124.5 100t36.5 274q0 124 -20.5 212.5t-76 141.5t-155.5 53h-55v-606q0 -73 11 -108z" horiz-adv-x="2089" glyph-name="uni0409" unicode="Љ"/>
<glyph d="M1571 750q361 0 511 -100.5t150 -260.5q0 -113 -66 -199.5t-199 -136.5t-327 -53h-2h-20q-170 0 -259 6h-63q-236 0 -362 -6v41q66 3 95 16t39.5 47.5t10.5 112.5v492h-461v-492q0 -77 11 -112t40.5 -48t94.5 -16v-41q-120 6 -342 6q-248 0 -365 -6v41q66 3 95.5 16 t40 48t10.5 112v1016q0 77 -11 112t-40.5 48t-94.5 16v41q117 -6 365 -6q222 0 342 6v-41q-66 -3 -95.5 -16t-40 -48t-10.5 -112v-483h461v483q0 77 -10.5 112t-40 48t-94.5 16v41q126 -6 362 -6q234 0 344 6v-41q-66 -3 -95 -16t-39.5 -48t-10.5 -112v-483h76z M1505.5 106.5q10.5 -34.5 38.5 -48t89 -17.5q92 6 130.5 86t38.5 235q0 106 -22 181.5t-82 120.5t-168 45h-35v-492q0 -76 10.5 -110.5z" horiz-adv-x="2265" glyph-name="uni040A" unicode="Њ"/>
<glyph d="M1802.5 104.5q10.5 -34.5 39.5 -47.5t95 -16v-41q-115 6 -356 6q-230 0 -350 -6v41q65 3 94.5 16t40 48t10.5 112v313q0 96 -13.5 145t-51.5 70t-115 21q-69 0 -144 -14t-128 -35v-486q0 -86 17.5 -125t63.5 -52t146 -13v-41q-288 6 -449 6q-145 0 -421 -6v41 q100 0 146 13t63.5 52t17.5 125v1172h-2q-125 0 -230.5 -117.5t-173.5 -388.5h-47q6 53 6 147q0 179 -14 406q195 -6 670 -6q473 0 667 6q-14 -227 -14 -406q0 -94 6 -147h-47q-67 269 -173.5 387.5t-229.5 118.5h-2v-645q71 28 175.5 50.5t223.5 22.5q206 0 330 -71 q77 -45 108 -114t31 -181v-248q0 -78 10.5 -112.5z" horiz-adv-x="1919" glyph-name="uni040B" unicode="Ћ"/>
<glyph d="M717 1766q64 77 91.5 107t70.5 50q28 14 63 14q40 0 75 -19.5t54 -57.5q12 -27 12 -54q0 -37 -20.5 -70t-56.5 -50q-47 -25 -123 -37t-145.5 -24.5t-168.5 -43.5l-14 25q98 83 162 160zM1393 -4q-74 -25 -172 -25q-143 0 -220.5 51t-95.5 171l-53 352q-13 73 -38 114.5 t-71.5 60.5t-124.5 22v-525q0 -77 11 -112t40.5 -48t94.5 -16v-41q-120 6 -342 6q-248 0 -365 -6v41q66 3 95.5 16t40 48t10.5 112v1016q0 77 -11 112t-40.5 48t-94.5 16v41q117 -6 365 -6q222 0 342 6v-41q-66 -3 -95.5 -16t-40 -48t-10.5 -112v-455q180 19 244 111 q29 42 37.5 96.5t13 180t37.5 186.5q43 79 113.5 103t120.5 24q56 0 114 -22.5t98 -72.5t40 -127q0 -66 -31 -115t-84 -75.5t-119 -26.5q-81 0 -129.5 41.5t-48.5 116.5q0 56 28 104t76.5 79.5t108.5 41.5q-22 17 -70 17q-63 0 -111 -33t-69 -80q-23 -52 -27.5 -164.5 t-12 -178.5t-42.5 -116q-48 -67 -149 -94q164 -7 272.5 -35t172.5 -85.5t85 -153.5l60 -285q13 -75 34.5 -104t59.5 -29q35 0 61 27l27 -27q-61 -61 -135 -86z" horiz-adv-x="1536" glyph-name="uni040C" unicode="Ќ"/>
<glyph d="M1249 1444q96 0 158 6v-41q-47 -23 -96.5 -86t-118.5 -186l-383 -775l-96 -194q-44 -91 -90 -137q-60 -60 -183 -60q-87 0 -151 27t-97.5 73.5t-33.5 102.5q0 58 31 102.5t83 68.5t115 24q102 0 162.5 -40.5t60.5 -111.5q0 -73 -52.5 -122.5t-137.5 -71.5q12 -11 59 -11 q61 0 107 40t84 120l43 88l-598 1018q-71 118 -146 131v41q84 -6 332 -6q262 0 354 6v-41q-80 -7 -80 -77q0 -41 25 -95l324 -551l133 266q94 189 94 301q0 149 -170 156v41q153 -6 268 -6zM1134.5 1919q45.5 -20 71.5 -54.5t26 -76.5q0 -97 -140 -160q-66 -30 -166 -48.5 t-221 -18.5q-122 0 -222.5 18.5t-166.5 48.5q-61 27 -98 67.5t-37 92.5q0 41 24.5 75.5t69.5 55t103 20.5q56 0 102 -20t72 -55.5t26 -79.5q0 -58 -42.5 -96.5t-108.5 -55.5q132 -30 278 -30q149 0 277 32q-68 18 -108 56.5t-40 93.5q0 44 25.5 79t71 55.5t102.5 20.5 q56 0 101.5 -20z" horiz-adv-x="1368" glyph-name="uni040E" unicode="Ў"/>
<glyph d="M1546 1393q-29 -13 -40 -48t-11 -112v-1016q0 -77 11 -112t40 -48t94 -16v-41q-115 6 -364 6h-8q-95 0 -178.5 -38t-142.5 -124t-75 -223h-47q-15 137 -74 223t-142.5 124t-178.5 38h-8q-248 0 -365 -6v41q65 3 94.5 16t40.5 48t11 112v1016q0 77 -11 112t-40.5 48 t-94.5 16v41q117 -6 365 -6q222 0 342 6v-41q-65 -3 -94.5 -16t-40.5 -48t-11 -112v-1016q0 -77 12.5 -113.5t47 -49.5t106.5 -13h129q73 0 107 13t46.5 49.5t12.5 113.5v1016q0 77 -10.5 112t-40 48t-94.5 16v41q120 -6 342 -6q249 0 364 6v-41q-65 -3 -94 -16z" horiz-adv-x="1698" glyph-name="uni040F" unicode="Џ"/>
<glyph d="M1369 74.5q32 -31.5 63 -33.5v-41q-148 6 -373 6q-234 0 -344 -6v41q77 3 110.5 19t33.5 56q0 31 -25 97l-122 336h-413l-35 -92q-66 -172 -66 -267q0 -84 46.5 -115t138.5 -34v-41q-153 6 -268 6q-97 0 -158 -6v41q50 8 95.5 63t92.5 177l455 1169q44 -4 108 -4t107 4 l496 -1278q26 -66 58 -97.5zM512 1102l-197 -512h383z" horiz-adv-x="1417" glyph-name="uni0410" unicode="А"/>
<glyph d="M694 864q246 0 393.5 -62.5t208 -160.5t60.5 -213q0 -127 -68.5 -223t-206.5 -149.5t-340 -53.5q-42 0 -143 2t-201 2q-223 0 -340 -6v41q65 3 94.5 16t40.5 48t11 112v1016q0 77 -10.5 112t-40 48t-95.5 16v41q238 -6 717 -6q301 0 428 6q-14 -192 -14 -344 q0 -95 6 -148h-47q-50 237 -151 341t-226 104h-27q-56 0 -81 -9t-34.5 -35.5t-9.5 -84.5v-410h76zM626.5 110q8.5 -37 31 -53t65.5 -16q110 0 156.5 91.5t46.5 283.5q0 124 -20.5 212.5t-76 141.5t-155.5 53h-56v-606q0 -70 8.5 -107z" horiz-adv-x="1399" glyph-name="uni0411" unicode="Б"/>
<glyph d="M1151.5 696.5q130.5 -53.5 190 -132t59.5 -167.5q0 -200 -160.5 -298.5t-454.5 -98.5q-43 0 -152 3t-220 3q-240 0 -357 -6v41q66 3 95.5 16t40 48t10.5 112v1016q0 77 -11 112t-40.5 48t-94.5 16v41q117 -6 353 -6q84 0 187 2t142 2q182 0 306.5 -40.5t186.5 -113 t62 -168.5q0 -76 -52.5 -152t-159.5 -133.5t-261 -76.5v-4q200 -10 330.5 -63.5zM828.5 860.5q43.5 90.5 43.5 243.5q0 155 -33 230t-110 75q-47 0 -70.5 -14.5t-32 -51.5t-8.5 -110v-463h56q111 0 154.5 90.5zM628.5 108q10.5 -35 38 -48t85.5 -13q219 0 219 359 q0 161 -77.5 245t-246.5 84h-29v-518q0 -74 10.5 -109z" horiz-adv-x="1442" glyph-name="uni0412" unicode="В"/>
<glyph d="M774 1444q301 0 428 6q-14 -192 -14 -344q0 -95 6 -148h-47q-50 237 -151 341t-226 104h-27q-56 0 -81 -9t-34.5 -35.5t-9.5 -84.5v-1057q0 -77 12.5 -112t46 -48t107.5 -16v-41q-126 6 -362 6q-248 0 -365 -6v41q65 3 94.5 16t40.5 48t11 112v1016q0 77 -10.5 112 t-40 48t-95.5 16v41q238 -6 717 -6z" horiz-adv-x="1233" glyph-name="uni0413" unicode="Г"/>
<glyph d="M1331 -242q0 -85 6 -137h-47q-37 203 -143.5 291t-253.5 88h-438q-147 0 -253.5 -88t-144.5 -291h-47q6 52 6 137q0 125 -14 283h37q146 0 223 170.5t105 398.5t53 623q2 32 2 45q0 53 -15 79.5t-50 37.5t-103 14v41q86 -6 211 -6q31 0 91 3t89 3q51 0 142 -3t151 -3 q244 0 367 6v-41q-74 -3 -107.5 -16t-46 -48t-12.5 -112v-1016q0 -78 11 -114t40.5 -49t93.5 -13h62q-15 -154 -15 -283zM709 1344q-14 38 -40.5 51.5t-70.5 13.5h-27q-43 0 -70.5 -38t-33.5 -138q-6 -64 -28.5 -381.5t-84 -527t-177.5 -283.5h380q72 0 106.5 13t47 49.5 t12.5 113.5v1016q0 73 -14 111z" horiz-adv-x="1368" glyph-name="uni0414" unicode="Д"/>
<glyph d="M1229 344q0 -209 14 -344q-139 6 -469 6q-479 0 -717 -6v41q66 3 95.5 16t40 48t10.5 112v1016q0 77 -11 112t-40.5 48t-94.5 16v41q238 -6 717 -6q301 0 428 6q-14 -192 -14 -344q0 -95 6 -148h-47q-36 238 -136.5 341.5t-240.5 103.5h-27q-56 0 -81 -9t-34.5 -35.5 t-9.5 -84.5v-524h21q73 0 131.5 41t96.5 103t51 126h47q-8 -120 -8 -199l1 -92q0 -88 13 -291h-47q-13 77 -51.5 138.5t-98.5 97t-135 35.5h-21v-533q0 -59 9.5 -85t34.5 -35t81 -9h68q74 0 148.5 47t136 155.5t92.5 282.5h47q-6 -73 -6 -188z" horiz-adv-x="1331" glyph-name="uni0415" unicode="Е"/>
<glyph d="M2048 -4q-74 -25 -172 -25q-142 0 -220 51t-95 171l-54 352q-11 70 -34.5 110.5t-66 60.5t-112.5 25v-524q0 -77 11 -112t40.5 -48t94.5 -16v-41q-120 6 -342 6q-248 0 -365 -6v41q66 3 95.5 16t40 48t10.5 112v524q-70 -5 -112.5 -25t-66 -60.5t-34.5 -110.5l-54 -352 q-17 -120 -95 -171t-220 -51q-93 0 -163 25.5t-126 85.5l27 27q26 -27 61 -27q37 0 58 29t36 104l64 285q20 95 81 153t165.5 86t262.5 34q-102 28 -151 95q-30 43 -39.5 102.5t-14 182t-28.5 174.5q-20 46 -68 79.5t-112 33.5q-47 0 -69 -17q60 -10 108.5 -41.5t76.5 -79.5 t28 -104q0 -75 -48.5 -116.5t-130.5 -41.5q-66 0 -119 26.5t-83.5 75.5t-30.5 115q0 77 39.5 127t97.5 72.5t115 22.5q49 0 120 -24t113 -103q34 -61 37.5 -174.5t9.5 -176t41 -112.5q61 -87 224 -109v453q0 77 -11 112t-40.5 48t-94.5 16v41q117 -6 365 -6q222 0 342 6v-41 q-66 -3 -95.5 -16t-40 -48t-10.5 -112v-453q163 22 224 109q28 41 36.5 95.5t13 180.5t38.5 187q42 79 113 103t120 24q56 0 114 -22.5t98 -72.5t40 -127q0 -66 -30.5 -115t-83.5 -75.5t-119 -26.5q-82 0 -130.5 41.5t-48.5 116.5q0 56 28 104t76.5 79.5t108.5 41.5 q-22 17 -69 17q-64 0 -112.5 -33t-68.5 -80q-24 -52 -28 -164.5t-11 -178.5t-42 -116q-49 -67 -150 -94q164 -7 273 -35t173 -85.5t85 -153.5l59 -285q15 -75 36 -104t58 -29q35 0 62 27l26 -27q-61 -61 -135 -86z" horiz-adv-x="2183" glyph-name="uni0416" unicode="Ж"/>
<glyph d="M206.5 1356q11.5 -29 35.5 -29q14 0 39 19q64 46 112.5 72.5t119 43.5t169.5 17q148 0 263 -37.5t179 -107.5t64 -165q0 -106 -79 -188.5t-197 -135t-242 -77.5q148 -2 284.5 -44.5t224 -127.5t87.5 -207q0 -129 -99.5 -224t-259 -144.5t-334.5 -49.5q-264 0 -413 113 q-52 39 -87.5 94.5t-35.5 120.5q0 64 29.5 111t79 71.5t108.5 24.5q93 0 144 -50.5t51 -148.5q0 -76 -54 -134t-149 -83q105 -67 268 -67q169 0 267 92t98 280q0 92 -25 170.5t-79 129.5t-138 55q-49 -27 -86 -27q-45 0 -45 35q0 33 49 33q21 0 84 -13q89 42 124.5 136.5 t35.5 205.5q0 153 -59.5 220t-168.5 67q-175 0 -268 -129t-106 -340h-47q0 349 -9 512h47q7 -65 18.5 -94z" horiz-adv-x="1305" glyph-name="uni0417" unicode="З"/>
<glyph d="M1587 1393q-29 -13 -40 -48t-11 -112v-1016q0 -77 11 -112t40 -48t94 -16v-41q-115 6 -364 6q-222 0 -342 -6v41q65 3 94.5 16t40 48t10.5 112v942l-502 -975q2 -61 15 -89.5t42 -39.5t89 -14v-41q-120 6 -342 6q-248 0 -365 -6v41q65 3 94.5 16t40.5 48t11 112v1016 q0 77 -11 112t-40.5 48t-94.5 16v41q117 -6 365 -6q222 0 342 6v-41q-65 -3 -94.5 -16t-40.5 -48t-11 -112v-948l502 975q-2 64 -14 93.5t-41 41t-90 14.5v41q120 -6 342 -6q249 0 364 6v-41q-65 -3 -94 -16z" horiz-adv-x="1739" glyph-name="uni0418" unicode="И"/>
<glyph d="M1587 1393q-29 -13 -40 -48t-11 -112v-1016q0 -77 11 -112t40 -48t94 -16v-41q-115 6 -364 6q-222 0 -342 -6v41q65 3 94.5 16t40 48t10.5 112v942l-502 -975q2 -61 15 -89.5t42 -39.5t89 -14v-41q-120 6 -342 6q-248 0 -365 -6v41q65 3 94.5 16t40.5 48t11 112v1016 q0 77 -11 112t-40.5 48t-94.5 16v41q117 -6 365 -6q222 0 342 6v-41q-65 -3 -94.5 -16t-40.5 -48t-11 -112v-948l502 975q-2 64 -14 93.5t-41 41t-90 14.5v41q120 -6 342 -6q249 0 364 6v-41q-65 -3 -94 -16zM1299.5 1919q45.5 -20 71.5 -54.5t26 -76.5q0 -97 -140 -160 q-66 -30 -166 -48.5t-221 -18.5q-122 0 -222.5 18.5t-166.5 48.5q-61 27 -98 67.5t-37 92.5q0 41 24.5 75.5t69.5 55t103 20.5q56 0 102 -20t72 -55.5t26 -79.5q0 -58 -42.5 -96.5t-108.5 -55.5q132 -30 278 -30q149 0 277 32q-68 18 -108 56.5t-40 93.5q0 44 25.5 79 t71 55.5t102.5 20.5q56 0 101.5 -20z" horiz-adv-x="1739" glyph-name="uni0419" unicode="Й"/>
<glyph d="M1393 -4q-74 -25 -172 -25q-143 0 -220.5 51t-95.5 171l-53 352q-13 73 -38 114.5t-71.5 60.5t-124.5 22v-525q0 -77 11 -112t40.5 -48t94.5 -16v-41q-120 6 -342 6q-248 0 -365 -6v41q66 3 95.5 16t40 48t10.5 112v1016q0 77 -11 112t-40.5 48t-94.5 16v41 q117 -6 365 -6q222 0 342 6v-41q-66 -3 -95.5 -16t-40 -48t-10.5 -112v-455q180 19 244 111q29 42 37.5 96.5t13 180t37.5 186.5q43 79 113.5 103t120.5 24q56 0 114 -22.5t98 -72.5t40 -127q0 -66 -31 -115t-84 -75.5t-119 -26.5q-81 0 -129.5 41.5t-48.5 116.5 q0 56 28 104t76.5 79.5t108.5 41.5q-22 17 -70 17q-63 0 -111 -33t-69 -80q-23 -52 -27.5 -164.5t-12 -178.5t-42.5 -116q-48 -67 -149 -94q164 -7 272.5 -35t172.5 -85.5t85 -153.5l60 -285q13 -75 34.5 -104t59.5 -29q35 0 61 27l27 -27q-61 -61 -135 -86z" horiz-adv-x="1536" glyph-name="uni041A" unicode="К"/>
<glyph d="M1365.5 1393q-33.5 -13 -46 -48t-12.5 -112v-1016q0 -77 12.5 -112t46 -48t107.5 -16v-41q-123 6 -381 6q-241 0 -367 -6v41q74 3 107.5 16t46 48t12.5 112v1016q0 73 -14 111t-40.5 51.5t-70.5 13.5h-6q-56 0 -87 -37t-38 -139q-6 -66 -32.5 -447.5t-121.5 -598 t-274 -216.5q-71 0 -128.5 30t-89.5 81.5t-32 112.5q0 64 30.5 113t82.5 75.5t116 26.5q84 0 133.5 -40.5t49.5 -111.5q0 -60 -28 -109t-76.5 -80.5t-108.5 -41.5q15 -17 51 -17q146 0 223.5 174t106 413t51.5 636q2 32 2 45q0 53 -15 79.5t-50 37.5t-103 14v41 q85 -6 211 -6q31 0 91 3t89 3q51 0 142 -3t151 -3q244 0 367 6v-41q-74 -3 -107.5 -16z" horiz-adv-x="1518" glyph-name="uni041B" unicode="Л"/>
<glyph d="M1824 1393q-29 -13 -39.5 -47.5t-10.5 -112.5v-1016q0 -77 10.5 -112t40 -48t94.5 -16v-41q-126 6 -363 6q-247 0 -364 -6v41q74 3 107.5 16t46 48t12.5 112v1049l-494 -1264h-33l-577 1315v-916q0 -151 12 -217t54 -97.5t141 -45.5v-41q-82 6 -230 6q-108 0 -170 -6v41 q64 14 94.5 44t41 91.5t10.5 183.5v873q0 77 -11 112t-40.5 48t-94.5 16v41q62 -6 170 -6q247 0 424 6l387 -870l336 864h178q237 0 363 6v-41q-66 -3 -95 -16z" horiz-adv-x="1976" glyph-name="uni041C" unicode="М"/>
<glyph d="M1545 1393q-29 -13 -39.5 -48t-10.5 -112v-1016q0 -77 11 -112t40 -48t94 -16v-41q-109 6 -344 6q-236 0 -362 -6v41q66 3 95 16t39.5 47.5t10.5 112.5v492h-461v-492q0 -77 11 -112t40.5 -48t94.5 -16v-41q-120 6 -342 6q-248 0 -365 -6v41q66 3 95.5 16t40 48t10.5 112 v1016q0 77 -11 112t-40.5 48t-94.5 16v41q117 -6 365 -6q222 0 342 6v-41q-66 -3 -95.5 -16t-40 -48t-10.5 -112v-483h461v483q0 77 -10.5 112t-40 48t-94.5 16v41q126 -6 362 -6q234 0 344 6v-41q-66 -3 -95 -16z" horiz-adv-x="1698" glyph-name="uni041D" unicode="Н"/>
<glyph d="M1254 1391q174 -88 270 -255.5t96 -398.5q0 -226 -98.5 -400t-274.5 -270t-401 -96q-232 0 -406 88t-270 255.5t-96 398.5q0 226 98.5 400t274 270t401.5 96q232 0 406 -88zM663 1350.5q-76 -91.5 -117.5 -255t-41.5 -374.5q0 -212 47 -374.5t127 -250.5t176 -88 q101 0 177 91.5t117.5 255t41.5 374.5q0 212 -47 374.5t-127 250.5t-176 88q-101 0 -177 -91.5z" horiz-adv-x="1694" glyph-name="uni041E" unicode="О"/>
<glyph d="M1546 1393q-29 -13 -40 -48t-11 -112v-1016q0 -77 11 -112t40 -48t94 -16v-41q-115 6 -364 6q-222 0 -342 -6v41q65 3 94.5 16t40 48t10.5 112v1016q0 77 -12.5 113.5t-46.5 49.5t-107 13h-129q-72 0 -106.5 -13t-47 -49.5t-12.5 -113.5v-1016q0 -77 11 -112t40.5 -48 t94.5 -16v-41q-120 6 -342 6q-248 0 -365 -6v41q65 3 94.5 16t40.5 48t11 112v1016q0 77 -11 112t-40.5 48t-94.5 16v41q117 -6 365 -6q90 0 239 3t191 3t188 -3t236 -3q249 0 364 6v-41q-65 -3 -94 -16z" horiz-adv-x="1698" glyph-name="uni041F" unicode="П"/>
<glyph d="M618 238q0 -86 17.5 -125.5t64 -52.5t146.5 -13v-47q-276 6 -422 6q-34 0 -367 -6v41q66 3 95.5 16t40 48t10.5 112v1016q0 77 -11 112t-40.5 48t-94.5 16v41q117 -6 353 -6q84 0 187 2t142 2q203 0 341.5 -50.5t207 -141.5t68.5 -212q0 -113 -61 -216.5t-209 -172.5 t-392 -69h-76v-348zM872 733.5q54 106.5 54 288.5q0 199 -45.5 293t-151.5 94q-47 0 -70.5 -14.5t-32 -51.5t-8.5 -110v-606h56q144 0 198 106.5z" horiz-adv-x="1389" glyph-name="uni0420" unicode="Р"/>
<glyph d="M1300.5 92.5q-11.5 28.5 -33.5 28.5q-16 0 -42 -17q-61 -43 -112.5 -70.5t-117.5 -45t-149 -17.5q-232 0 -406 88t-270 255.5t-96 398.5q0 226 98.5 400t274 270t401.5 96q122 0 208.5 -35t168.5 -98q23 -18 40 -18q42 0 52 122h47q-8 -145 -8 -512h-47 q-10 109 -28.5 182.5t-56.5 132t-104 101.5q-94 61 -190 61q-147 0 -232.5 -103.5t-119 -258.5t-33.5 -332t33.5 -332t119 -258.5t232.5 -103.5q96 0 190 61q66 41 104 101t56.5 140.5t28.5 202.5h47q0 -381 8 -532h-47q-5 64 -16.5 92.5z" horiz-adv-x="1468" glyph-name="uni0421" unicode="С"/>
<glyph d="M61 1044q0 179 -14 406q195 -6 670 -6q473 0 667 6q-14 -227 -14 -406q0 -94 6 -147h-47q-67 269 -173.5 387.5t-229.5 118.5h-2v-1172q0 -86 17.5 -125t63.5 -52t146 -13v-41q-288 6 -449 6q-145 0 -421 -6v41q100 0 146 13t63.5 52t17.5 125v1172h-2 q-125 0 -230.5 -117.5t-173.5 -388.5h-47q6 53 6 147z" horiz-adv-x="1432" glyph-name="uni0422" unicode="Т"/>
<glyph d="M1249 1444q96 0 158 6v-41q-47 -23 -96.5 -86t-118.5 -186l-383 -775l-96 -194q-44 -91 -90 -137q-60 -60 -183 -60q-87 0 -151 27t-97.5 73.5t-33.5 102.5q0 58 31 102.5t83 68.5t115 24q102 0 162.5 -40.5t60.5 -111.5q0 -73 -52.5 -122.5t-137.5 -71.5q12 -11 59 -11 q61 0 107 40t84 120l43 88l-598 1018q-71 118 -146 131v41q84 -6 332 -6q262 0 354 6v-41q-80 -7 -80 -77q0 -41 25 -95l324 -551l133 266q94 189 94 301q0 149 -170 156v41q153 -6 268 -6z" horiz-adv-x="1368" glyph-name="uni0423" unicode="У"/>
<glyph d="M1974 737q0 -169 -87.5 -294t-260 -201t-422.5 -98v-78q0 -77 11 -112t40.5 -48t94.5 -17v-41q-112 7 -342 7q-256 0 -365 -7v41q66 4 95 17t39.5 47.5t10.5 112.5v76q-770 60 -770 591q0 163 87.5 284t260 194.5t422.5 95.5v77q0 78 -10.5 112.5t-40 47.5t-94.5 17v41 q109 -7 365 -7q230 0 342 7v-41q-66 -4 -95.5 -17t-40 -47.5t-10.5 -112.5v-76q770 -57 770 -571zM582.5 1193q-73.5 -60 -103.5 -167.5t-30 -284.5q0 -184 33 -298.5t106.5 -177.5t199.5 -86v1096q-132 -22 -205.5 -82zM1409.5 260.5q73.5 62.5 104 174.5t30.5 294 q0 179 -33 289.5t-106.5 171t-200.5 83.5v-1097q132 22 205.5 84.5z" horiz-adv-x="1993" glyph-name="uni0424" unicode="Ф"/>
<glyph d="M1465 82.5q17 -19.5 34.5 -28.5t44.5 -11v-43q-268 8 -350 8q-88 0 -356 -8v43q66 0 96.5 7.5t30.5 27.5q0 14 -15 35l-341 488l-126 -157q-105 -129 -105 -240q0 -70 45.5 -113.5t125.5 -49.5v-41q-117 6 -354 6q-131 0 -199 -6v41q160 67 340 291l246 308l-467 667 q-31 43 -48 62.5t-34.5 28.5t-44.5 11v43q284 -8 370 -8q78 0 330 8v-43q-67 0 -97.5 -7.5t-30.5 -27.5q0 -14 15 -35l297 -422l117 144q103 119 103 215q0 57 -37.5 92t-106.5 41v41q117 -6 273 -6q131 0 198 6v-41q-66 -24 -139 -88t-137 -143l-244 -299l518 -734 q31 -43 48 -62.5z" horiz-adv-x="1493" glyph-name="uni0425" unicode="Х"/>
<glyph d="M1546 1393q-29 -13 -40 -48t-11 -112v-1016q0 -77 11 -113.5t40.5 -49.5t93.5 -13h62q-14 -158 -14 -283q0 -85 6 -137h-47q-38 203 -144.5 291t-253.5 88h-403q-42 0 -188 3t-236 3q-248 0 -365 -6v41q65 3 94.5 16t40.5 48t11 112v1016q0 77 -11 112t-40.5 48t-94.5 16 v41q117 -6 365 -6q222 0 342 6v-41q-65 -3 -94.5 -16t-40.5 -48t-11 -112v-1016q0 -77 12.5 -113.5t47 -49.5t106.5 -13h129q73 0 107 13t46.5 49.5t12.5 113.5v1016q0 77 -10.5 112t-40 48t-94.5 16v41q120 -6 342 -6q249 0 364 6v-41q-65 -3 -94 -16z" horiz-adv-x="1718" glyph-name="uni0426" unicode="Ц"/>
<glyph d="M1490 1393q-29 -13 -39.5 -47.5t-10.5 -112.5v-1016q0 -78 10.5 -112.5t39.5 -47.5t95 -16v-41q-330 6 -366 6q-146 0 -422 -6v47q100 0 146 13t63.5 52.5t17.5 125.5v372q-73 -28 -176.5 -50.5t-222.5 -22.5q-206 0 -330 71q-78 45 -108.5 113.5t-30.5 181.5v330 q0 77 -10.5 112t-40 48t-95.5 16v41q117 -6 357 -6q230 0 350 6v-41q-65 -3 -94.5 -16t-40.5 -48t-11 -112v-395q0 -96 13.5 -145t51.5 -70t116 -21q69 0 143.5 13.5t128.5 35.5v582q0 77 -11 112t-40 48t-94 16v41q116 -6 364 -6q222 0 342 6v-41q-66 -3 -95 -16z" horiz-adv-x="1642" glyph-name="uni0427" unicode="Ч"/>
<glyph d="M2299 1393q-29 -13 -39.5 -47.5t-10.5 -112.5v-1016q0 -78 10.5 -112.5t39.5 -47.5t95 -16v-41q-111 6 -344 6q-85 0 -224 -3t-179 -3q-62 0 -194.5 3t-217.5 3q-90 0 -236 -3t-188 -3q-40 0 -182.5 3t-227.5 3q-233 0 -344 -6v41q65 3 94.5 16t40.5 48t11 112v1016 q0 77 -11 112t-40.5 48t-94.5 16v41q117 -6 365 -6q209 0 321 6v-41q-56 -3 -81 -16t-34.5 -48t-9.5 -112v-1016q0 -77 12.5 -113.5t47 -49.5t106.5 -13h68q72 0 106.5 13t47 49.5t12.5 113.5v1016q0 77 -9.5 112t-34.5 48t-81 16v41q114 -6 321 -6q234 0 345 6v-41 q-57 -3 -82 -16t-34 -48t-9 -112v-1016q0 -74 15 -110t49 -49.5t101 -16.5h68q72 0 106.5 13t47 49.5t12.5 113.5v1016q0 77 -9 112t-34 48t-82 16v41q114 -6 322 -6q247 0 364 6v-41q-66 -3 -95 -16z" horiz-adv-x="2451" glyph-name="uni0428" unicode="Ш"/>
<glyph d="M2299 1393q-29 -13 -39.5 -47.5t-10.5 -112.5v-1016q0 -78 11 -114t40.5 -49t93.5 -13h62q-15 -154 -15 -283q0 -85 6 -137h-47q-37 203 -143.5 291t-253.5 88h-356q-62 0 -194.5 3t-217.5 3q-90 0 -236 -3t-188 -3q-40 0 -182.5 3t-227.5 3q-233 0 -344 -6v41 q65 3 94.5 16t40.5 48t11 112v1016q0 77 -11 112t-40.5 48t-94.5 16v41q117 -6 365 -6q209 0 321 6v-41q-56 -3 -81 -16t-34.5 -48t-9.5 -112v-1016q0 -77 12.5 -113.5t47 -49.5t106.5 -13h68q72 0 106.5 13t47 49.5t12.5 113.5v1016q0 77 -9.5 112t-34.5 48t-81 16v41 q114 -6 321 -6q234 0 345 6v-41q-57 -3 -82 -16t-34 -48t-9 -112v-1016q0 -75 15.5 -112t49.5 -50.5t100 -13.5h68q72 0 106.5 13t47 49.5t12.5 113.5v1016q0 77 -9 112t-34 48t-82 16v41q114 -6 322 -6q247 0 364 6v-41q-66 -3 -95 -16z" horiz-adv-x="2472" glyph-name="uni0429" unicode="Щ"/>
<glyph d="M1006 864q246 0 393 -62.5t207.5 -160.5t60.5 -213q0 -127 -68.5 -223t-206.5 -149.5t-339 -53.5q-43 0 -144 2t-200 2q-225 0 -340 -6v41q65 3 94.5 16t40 48t10.5 112v1186h-29q-79 0 -162.5 -44t-149.5 -144t-85 -257h-47q6 75 6 189q0 184 -14 303q127 -6 428 -6 q407 0 614 6v-41q-66 -3 -95 -16t-39.5 -47.5t-10.5 -112.5v-369h76zM938.5 109.5q8.5 -36.5 30.5 -52.5t65 -16q75 0 119.5 41.5t64 123.5t19.5 210q0 124 -20.5 212.5t-76 141.5t-155.5 53h-55v-606q0 -71 8.5 -107.5z" horiz-adv-x="1704" glyph-name="uni042A" unicode="Ъ"/>
<glyph d="M668.5 1393q-29.5 -13 -40 -48t-10.5 -112v-1016q0 -77 11 -112t40.5 -48t94.5 -16v-41q-120 6 -342 6q-248 0 -365 -6v41q66 3 95.5 16t40 48t10.5 112v1016q0 77 -11 112t-40.5 48t-94.5 16v41q117 -6 365 -6q222 0 342 6v-41q-66 -3 -95.5 -16zM1515 864 q362 0 512 -114.5t150 -300.5q0 -134 -68.5 -234.5t-206.5 -156.5t-340 -56q-42 0 -143 2t-201 2q-223 0 -340 -6v41q65 3 94.5 16t40.5 48t11 112v1016q0 77 -11 112t-40.5 48t-94.5 16v41q117 -6 365 -6q222 0 342 6v-41q-66 -3 -95.5 -16t-40 -48t-10.5 -112v-369h76z M1447.5 110q8.5 -37 31 -53t65.5 -16q110 0 156.5 91.5t46.5 283.5q0 124 -20.5 212.5t-76 141.5t-155.5 53h-56v-606q0 -70 8.5 -107z" horiz-adv-x="2214" glyph-name="uni042B" unicode="Ы"/>
<glyph d="M694 864q362 0 512 -114.5t150 -300.5q0 -134 -68.5 -234.5t-206.5 -156.5t-340 -56q-42 0 -143 2t-201 2q-223 0 -340 -6v41q65 3 94.5 16t40.5 48t11 112v1016q0 77 -11 112t-40.5 48t-94.5 16v41q117 -6 365 -6q222 0 342 6v-41q-66 -3 -95.5 -16t-40 -48t-10.5 -112 v-369h76zM626.5 110q8.5 -37 31 -53t65.5 -16q110 0 156.5 91.5t46.5 283.5q0 124 -20.5 212.5t-76 141.5t-155.5 53h-56v-606q0 -70 8.5 -107z" horiz-adv-x="1393" glyph-name="uni042C" unicode="Ь"/>
<glyph d="M178.5 1357.5q11.5 -28.5 33.5 -28.5q16 0 42 17q83 59 190 96t230 37q230 0 390 -87.5t242.5 -254t82.5 -400.5q0 -228 -94.5 -401.5t-270 -269t-410.5 -95.5q-122 0 -208 35t-168 98q-23 18 -40 18q-41 0 -53 -122h-47q8 112 8 410h48q27 -115 70 -190t118 -124 q94 -61 190 -61q147 0 233 103.5t119.5 258.5t33.5 332q0 71 -1 121q-24 -112 -64.5 -188.5t-90 -114t-100.5 -37.5q-48 0 -88.5 20t-116 73.5t-129.5 53.5q-38 0 -77.5 -33.5t-55.5 -109.5l-37 6q17 144 53.5 243t86.5 148.5t108 49.5q46 0 84.5 -19t114.5 -74t138 -55 q49 0 95.5 29t74.5 86q-13 225 -83.5 360t-239.5 135q-55 0 -123.5 -16.5t-108.5 -44.5q-63 -44 -100.5 -96t-58 -120t-29.5 -167h-47q0 338 -8 471h47q5 -64 16.5 -92.5z" horiz-adv-x="1464" glyph-name="uni042D" unicode="Э"/>
<glyph d="M907.5 1131.5q92.5 165.5 251.5 256.5t361 91q213 0 373.5 -88t248.5 -255.5t88 -398.5q0 -226 -90.5 -400t-252.5 -270t-369 -96q-212 0 -372.5 87.5t-249 254t-89.5 396.5h-189v-492q0 -77 11 -112t40.5 -48t94.5 -16v-41q-120 6 -342 6q-248 0 -365 -6v41 q66 3 95.5 16t40 48t10.5 112v1016q0 77 -11 112t-40.5 48t-94.5 16v41q117 -6 365 -6q222 0 342 6v-41q-66 -3 -95.5 -16t-40 -48t-10.5 -112v-483h190q7 216 99.5 381.5zM1671 99.5q62 91.5 95.5 255t33.5 374.5q0 213 -38.5 375t-104.5 250t-146 88q-83 0 -145 -91.5 t-95.5 -255t-33.5 -374.5q0 -213 38.5 -375t104.5 -250t146 -88q83 0 145 91.5z" horiz-adv-x="2304" glyph-name="uni042E" unicode="Ю"/>
<glyph d="M1316.5 1393q-29.5 -13 -40 -48t-10.5 -112v-1016q0 -78 10.5 -112.5t39.5 -47.5t95 -16v-41q-117 6 -364 6q-223 0 -342 -6v41q65 3 94 16t40 48t11 112v471h-92q-73 0 -108 -73.5t-56 -217.5l-31 -204q-17 -121 -95 -171.5t-216 -50.5q-96 0 -169.5 25.5t-129.5 85.5 l27 27q26 -27 63 -27q36 0 57.5 29.5t34.5 103.5l39 213q16 85 70.5 138t146.5 82t232 45q-279 22 -394.5 121t-115.5 257q0 192 152 284.5t464 92.5q39 0 142.5 -2t187.5 -2q235 0 352 6v-41q-65 -3 -94.5 -16zM841.5 1343q-8.5 37 -32 51.5t-70.5 14.5q-105 0 -150.5 -86 t-45.5 -254q0 -104 20.5 -178t76 -118t155.5 -44h55v504q0 73 -8.5 110z" horiz-adv-x="1468" glyph-name="uni042F" unicode="Я"/>
<glyph d="M557.5 999.5q-32.5 51.5 -119.5 51.5q-26 0 -55.5 -10t-52.5 -25q137 -51 137 -185q0 -48 -24.5 -87t-69.5 -62t-103 -23q-50 0 -88 23.5t-59 64.5t-21 91q0 62 34.5 109.5t92.5 78.5q129 66 328 66q117 0 198 -22.5t136 -80.5q40 -42 53.5 -106.5t13.5 -180.5v-548 q0 -49 7 -68.5t24 -19.5q16 0 29.5 7.5t34.5 22.5l20 -35q-48 -40 -112 -57.5t-154 -17.5q-108 0 -158.5 43.5t-52.5 111.5q-43 -71 -121 -113t-172 -42q-121 0 -189.5 64t-68.5 171q0 105 63 175t197 114q109 39 161.5 61.5t88 54t35.5 74.5v183q0 65 -32.5 116.5zM510 526 q-100 -97 -100 -231q0 -145 104 -145q43 0 76 34v432q-15 -25 -80 -90z" horiz-adv-x="1087" glyph-name="uni0430" unicode="а"/>
<glyph d="M1118.5 1400.5q-32.5 -74.5 -80.5 -118.5q-46 -42 -103.5 -62t-143.5 -34q-29 -5 -84.5 -12t-124.5 -19q-187 -31 -260.5 -57t-114 -93t-66.5 -223q58 154 191.5 232t312.5 78q228 0 364 -135t136 -431q0 -294 -138 -424.5t-393 -130.5q-202 0 -316.5 74t-160 206 t-45.5 324q0 144 22 290.5t72.5 274.5t130.5 203q49 46 110.5 72.5t147.5 42.5q77 15 316 41q72 8 115 17.5t77 31t58 60.5l30 -6q-20 -127 -52.5 -201.5zM722.5 140q39.5 128 39.5 390q0 263 -39.5 392t-104.5 129t-104 -129t-39 -392q0 -262 39 -390t104 -128t104.5 128z " horiz-adv-x="1208" glyph-name="uni0431" unicode="б"/>
<glyph d="M330 1053q77 0 199.5 4t162.5 4q424 0 424 -238q0 -71 -44.5 -128.5t-136.5 -95.5t-229 -48q165 -3 263 -35t141 -91.5t43 -150.5q0 -135 -96 -204.5t-320 -69.5q-38 0 -170.5 4t-216.5 4q-71 0 -307 -8v43q43 0 68 13t36 45t11 89v680q0 58 -11 90t-36 45t-68 13v43 q220 -8 287 -8zM661 584q47 27 64.5 77.5t17.5 133.5q0 105 -29.5 164t-111.5 59q-30 0 -46 -11.5t-23 -43t-7 -93.5v-315q88 2 135 29zM533.5 97q7.5 -31 25 -42.5t49.5 -11.5q96 0 132 63.5t36 165.5q0 129 -52.5 185.5t-176.5 56.5h-21v-324q0 -62 7.5 -93z" horiz-adv-x="1210" glyph-name="uni0432" unicode="в"/>
<glyph d="M899 741q0 -94 6 -147h-47q-34 143 -81.5 238.5t-97.5 140.5t-93 45h-2q-30 0 -44 -24.5t-14 -82.5v-700q0 -95 43.5 -131.5t132.5 -36.5v-43q-300 8 -376 8q-63 0 -283 -8v43q43 0 68 13t36 45t11 89v680q0 58 -11 90t-36 45t-68 13v43q220 -8 287 -8q63 0 156 4t114 4 h313q-14 -181 -14 -320z" horiz-adv-x="958" glyph-name="uni0433" unicode="г"/>
<glyph d="M986.5 101q15.5 -32 48.5 -45t91 -13q-14 -134 -14 -238q0 -81 6 -127h-47q-24 121 -66 191t-106.5 100.5t-161.5 30.5h-336q-96 0 -160.5 -30.5t-106.5 -100.5t-66 -191h-48q7 43 7 127q0 107 -15 238h39q64 0 113.5 42t79.5 110q37 82 59 189t32 208t23 278q1 8 1 22 q0 70 -40 98t-122 28v43q44 -4 133 -4q30 0 82 2t112 2q71 0 159 -4t122 -4q56 0 260 8v-43q-37 0 -57 -12.5t-28.5 -44t-8.5 -89.5v-682q0 -57 15.5 -89zM593 960q-9 32 -29 45t-56 13h-19q-38 0 -54.5 -13.5t-21.5 -38t-12 -96.5q-3 -35 -16.5 -197t-38 -283t-61.5 -204 q-45 -98 -114 -143h296q51 0 79.5 13t42 45t13.5 89v680q0 58 -9 90z" horiz-adv-x="1155" glyph-name="uni0434" unicode="д"/>
<glyph d="M446 559q0 -197 68.5 -280.5t167.5 -83.5q149 0 248 137l35 -13q-29 -91 -84 -169.5t-142 -128.5t-202 -50q-215 0 -344.5 133.5t-129.5 425.5q0 190 68 316t186.5 186t272.5 60q387 0 387 -459h-529q-2 -24 -2 -74zM654.5 939.5q-25.5 104.5 -79.5 104.5q-56 0 -90 -88 t-44 -284h237q2 163 -23.5 267.5z" glyph-name="uni0435" unicode="е"/>
<glyph d="M1216.5 592q34.5 25 52.5 70t40 141q27 114 48.5 169.5t68.5 87.5t135 32q118 0 176.5 -53.5t58.5 -143.5q0 -88 -51 -138t-131 -50q-46 0 -91.5 17t-76.5 53.5t-31 92.5q0 52 29 99.5t90 79.5q-67 -4 -101 -34t-50 -79t-42 -168q-20 -88 -38 -131t-55 -68q52 7 101 7 q97 0 159 -28.5t104 -78.5q28 -34 43 -68t40 -110t48 -135q24 -60 44 -83.5t60 -29.5v-43q-172 8 -235 8q-65 0 -301 -8v43q54 0 54 62q0 16 -3 36q-11 71 -48.5 179t-68.5 149q-19 26 -47.5 39.5t-81.5 17.5v-336q0 -57 9 -89t29 -45t56 -13v-43q-220 8 -284 8 q-65 0 -273 -8v43q36 0 56.5 13t29.5 45t9 89v336q-91 -5 -130 -57q-24 -32 -48.5 -96t-43 -130.5t-24.5 -101.5q-3 -19 -3 -36q0 -62 54 -62v-43q-236 8 -301 8q-64 0 -236 -8v43q41 6 61 29.5t44 83.5q18 46 43 122t42 116.5t46 74.5q89 107 262 107q49 0 100 -7 q-36 25 -54.5 69.5t-37.5 129.5q-28 124 -42.5 170t-48 76.5t-101.5 34.5q61 -32 90 -79.5t29 -99.5q0 -56 -31 -92.5t-76.5 -53.5t-91.5 -17q-81 0 -131.5 49.5t-50.5 138.5q0 91 58.5 144t176.5 53q88 0 135 -32t68.5 -87.5t48.5 -169.5q23 -98 40 -142t51.5 -69 t101.5 -30v308q0 58 -11 90t-36 45t-68 13v43q236 -8 309 -8q69 0 289 8v-43q-43 0 -68 -13t-36 -45t-11 -90v-308q66 5 100.5 30z" horiz-adv-x="1866" glyph-name="uni0436" unicode="ж"/>
<glyph d="M160 1006q10 -21 28 -21t70 35q61 39 123.5 55.5t150.5 16.5q180 0 290 -61t110 -183q0 -235 -457 -281q246 0 380 -61.5t134 -204.5q0 -99 -65 -173.5t-190.5 -115.5t-301.5 -41q-191 0 -291 62q-102 64 -102 168q0 73 49.5 120.5t138.5 47.5q57 0 102 -20.5t70 -58.5 t25 -87q0 -64 -42 -109t-106 -63q48 -15 91 -15q73 0 129 29t88 87t32 142q0 95 -42 170.5t-132 104.5q-50 -27 -86 -27q-45 0 -45 35q0 33 47 33q30 0 86 -12q65 39 92 98t27 139q0 101 -39.5 149t-120.5 48q-115 0 -176.5 -87.5t-72.5 -226.5h-48q0 272 -10 377h47 q7 -48 17 -69z" horiz-adv-x="1032" glyph-name="uni0437" unicode="з"/>
<glyph d="M1271.5 1005q-24.5 -13 -35.5 -45t-11 -90v-680q0 -57 11 -89t35.5 -45t67.5 -13v-43q-220 8 -286 8q-71 0 -291 -8v43q36 0 56 13t29 45t9 89v616l-329 -648q3 -65 24.5 -90t69.5 -25v-43q-208 8 -271 8q-71 0 -307 -8v43q43 0 68 13t36 45t11 89v680q0 58 -11 90 t-36 45t-68 13v43q220 -8 287 -8t291 8v-43q-36 0 -56.5 -13t-29.5 -45t-9 -90v-623l330 645q-3 72 -24 99t-70 27v43q204 -8 270 -8q71 0 307 8v-43q-43 0 -67.5 -13z" horiz-adv-x="1382" glyph-name="uni0438" unicode="и"/>
<glyph d="M1271.5 1005q-24.5 -13 -35.5 -45t-11 -90v-680q0 -57 11 -89t35.5 -45t67.5 -13v-43q-220 8 -286 8q-71 0 -291 -8v43q36 0 56 13t29 45t9 89v616l-329 -648q3 -65 24.5 -90t69.5 -25v-43q-208 8 -271 8q-71 0 -307 -8v43q43 0 68 13t36 45t11 89v680q0 58 -11 90 t-36 45t-68 13v43q220 -8 287 -8t291 8v-43q-36 0 -56.5 -13t-29.5 -45t-9 -90v-623l330 645q-3 72 -24 99t-70 27v43q204 -8 270 -8q71 0 307 8v-43q-43 0 -67.5 -13zM1070.5 1611.5q40.5 -22.5 63.5 -63t23 -92.5q0 -55 -34 -100t-85 -72q-130 -70 -346 -70 q-218 0 -348 70q-50 27 -82.5 72t-32.5 100q0 79 49 128.5t129 49.5q50 0 90.5 -22.5t64 -63.5t23.5 -92q0 -61 -36 -105t-95 -65q118 -31 238 -31q122 0 235 33q-58 21 -92.5 64.5t-34.5 103.5q0 52 23 92.5t63.5 63t92.5 22.5q51 0 91.5 -22.5z" horiz-adv-x="1382" glyph-name="uni0439" unicode="й"/>
<glyph d="M648.5 592q42.5 25 64.5 71.5t45 139.5q27 112 50.5 168.5t70.5 88.5t135 32q117 0 175 -53.5t58 -143.5q0 -88 -51 -138t-131 -50q-46 0 -91.5 16.5t-76.5 54t-31 96.5q0 48 29.5 95.5t89.5 79.5q-68 -4 -100.5 -33.5t-45.5 -69.5t-48 -178q-21 -82 -45.5 -127 t-72.5 -71q53 6 97 6q200 0 293 -107q28 -33 45 -73t42 -116.5t44 -123.5q24 -60 44 -83.5t60 -29.5v-43q-172 8 -235 8q-65 0 -301 -8v43q54 0 54 62q0 16 -3 36q-6 38 -23.5 101.5t-42.5 126.5t-53 98q-44 59 -136 59q-21 0 -32 -1v-335q0 -57 11 -89t36 -45t68 -13v-43 q-236 8 -307 8t-291 -8v43q43 0 68 13t36 45t11 89v680q0 58 -11 90t-36 45t-68 13v43q236 -8 311 -8q67 0 287 8v-43q-43 0 -68 -13t-36 -45t-11 -90v-308q80 5 122.5 30z" horiz-adv-x="1315" glyph-name="uni043A" unicode="к"/>
<glyph d="M1194.5 1005q-20.5 -13 -29 -45t-8.5 -90v-680q0 -57 9 -89t29 -45t56 -13v-43q-204 8 -272 8q-69 0 -305 -8v43q43 0 67.5 13t35.5 45t11 89v680q0 58 -9 90t-29 45t-56 13h-18q-39 0 -55.5 -13.5t-21 -38.5t-11.5 -96q-15 -170 -27.5 -278.5t-34 -215t-55.5 -192.5 q-44 -110 -104 -161.5t-140 -51.5q-53 0 -106 24t-88 75.5t-35 128.5q0 96 54.5 150t146.5 54q77 0 125.5 -49.5t48.5 -136.5q0 -69 -48 -122t-116 -81q12 -4 29 -4q118 0 192 185q48 121 72.5 283t42.5 392l1 20q0 71 -39.5 99.5t-123.5 28.5v43q46 -4 133 -4q30 0 82 2 t113 2q71 0 158.5 -4t121.5 -4q56 0 260 8v-43q-36 0 -56.5 -13z" horiz-adv-x="1309" glyph-name="uni043B" unicode="л"/>
<glyph d="M1453 1005q-20 -13 -29 -45t-9 -90v-680q0 -57 9 -89t29 -45t56 -13v-43q-204 8 -270 8q-71 0 -307 -8v43q43 0 68 13t36 45t11 89v754l-398 -954h-33l-409 942v-592q0 -93 17 -157t62.5 -101.5t127.5 -40.5v-41q-93 6 -228 6q-93 0 -149 -6v41q73 4 99 87.5t26 231.5 v486q0 77 -9.5 112t-34.5 48t-81 16v41q56 -6 149 -6q202 0 353 6l255 -614l253 608q63 -4 213 -4q61 0 249 8v-43q-36 0 -56 -13z" horiz-adv-x="1567" glyph-name="uni043C" unicode="м"/>
<glyph d="M1230.5 1005q-24.5 -13 -35.5 -45t-11 -90v-680q0 -57 11 -89t35.5 -45t67.5 -13v-43q-220 8 -286 8q-71 0 -291 -8v43q36 0 56 13t29 44.5t9 89.5v336h-289v-336q0 -57 9 -89t29.5 -45t56.5 -13v-43q-208 8 -271 8q-71 0 -307 -8v43q43 0 68 13t36 45t11 89v680 q0 58 -11 90t-36 45t-68 13v43q220 -8 287 -8t291 8v-43q-36 0 -56.5 -13t-29.5 -45t-9 -90v-303h289v303q0 58 -9 90t-29 45t-56 13v43q204 -8 270 -8q71 0 307 8v-43q-43 0 -67.5 -13z" horiz-adv-x="1341" glyph-name="uni043D" unicode="н"/>
<glyph d="M979 959.5q137 -132.5 137 -429.5q0 -296 -137 -427.5t-389 -131.5q-253 0 -390 131.5t-137 427.5q0 297 137.5 429.5t389.5 132.5t389 -132.5zM485.5 922q-39.5 -129 -39.5 -392q0 -262 39.5 -390t104.5 -128t104 128t39 390q0 263 -39 392t-104 129t-104.5 -129z" horiz-adv-x="1180" glyph-name="uni043E" unicode="о"/>
<glyph d="M1230.5 1005q-24.5 -13 -35.5 -45t-11 -90v-680q0 -57 11 -89t35.5 -45t67.5 -13v-43q-220 8 -286 8q-71 0 -291 -8v43q36 0 56 13t29 44.5t9 89.5v680q0 58 -9 90t-29 45t-56 13h-100q-36 0 -56.5 -13t-29.5 -45t-9 -90v-680q0 -57 9 -89t29.5 -45t56.5 -13v-43 q-208 8 -271 8q-71 0 -307 -8v43q43 0 68 13t36 45t11 89v680q0 58 -11 90t-36 45t-68 13v43q220 -8 287 -8q39 0 144 4t188 4q85 0 185 -4t144 -4q71 0 307 8v-43q-43 0 -67.5 -13z" horiz-adv-x="1341" glyph-name="uni043F" unicode="п"/>
<glyph d="M831 1092q104 0 184.5 -57t126.5 -172.5t46 -284.5q0 -325 -131.5 -466t-345.5 -141q-122 0 -191 39v-170q0 -95 43.5 -131.5t132.5 -36.5v-43q-32 1 -147.5 5t-229.5 4q-83 0 -171 -4t-111 -5v43q43 0 68 13t36 45t11 90v1018q0 95 -26 137.5t-89 42.5v43q64 -6 127 -6 q213 0 356 28v-145q95 154 311 154zM592 33q112 0 162.5 122.5t50.5 374.5q0 253 -37 354t-100 101q-38 0 -72 -19t-55 -52.5t-21 -75.5v-788q28 -17 72 -17z" horiz-adv-x="1253" glyph-name="uni0440" unicode="р"/>
<glyph d="M899.5 150q-55.5 -79 -142.5 -129t-202 -50q-224 0 -359 133.5t-135 425.5q0 190 68 316t186.5 186t272.5 60q84 0 154.5 -17.5t115.5 -44.5q57 -33 90 -88.5t33 -124.5q0 -56 -25.5 -101.5t-70.5 -71.5t-101 -26q-88 0 -138 51t-50 134q0 74 48.5 129.5t119.5 75.5 q-33 24 -82 24q-132 0 -185 -140.5t-53 -332.5q0 -197 74.5 -280.5t181.5 -83.5q149 0 248 137l35 -13q-28 -90 -83.5 -169z" glyph-name="uni0441" unicode="с"/>
<glyph d="M1174 741q0 -94 6 -147h-47q-34 143 -82 238.5t-98 140.5t-93 45h-59v-807q0 -95 43.5 -131.5t132.5 -36.5v-43q-296 8 -359 8q-66 0 -362 -8v43q63 0 99.5 10t56.5 41.5t20 95.5v828h-59q-43 0 -93 -45t-98 -140.5t-82 -238.5h-47q6 53 6 147q0 139 -14 320h231 q27 0 143 -4t195 -4q82 0 199 4t143 4h232q-14 -181 -14 -320z" horiz-adv-x="1233" glyph-name="uni0442" unicode="т"/>
<glyph d="M918 1055q116 0 157 8v-43q-42 -16 -77.5 -61t-67.5 -138l-256 -762l-86 -247q-38 -107 -90 -148q-63 -49 -191 -49q-63 0 -127 19.5t-107.5 62.5t-43.5 110q0 72 54.5 115t145.5 43q87 0 136 -38.5t49 -112.5q0 -49 -34 -93t-99 -65q20 -4 69 -4q141 0 195 164l11 33 l-478 1056q-31 70 -60.5 92.5t-58.5 22.5v43q163 -12 334 -12q133 0 297 12v-43q-61 0 -92 -8t-31 -38q0 -15 8 -32l253 -600l85 262q39 116 39 210q0 96 -41.5 148.5t-108.5 57.5v43q77 -8 216 -8z" horiz-adv-x="1083" glyph-name="uni0443" unicode="у"/>
<glyph d="M1372 1092q104 0 184.5 -57t126.5 -172.5t46 -284.5q0 -325 -125.5 -466t-331.5 -141q-121 0 -191 39v-170q0 -95 43.5 -131.5t132.5 -36.5v-43q-30 1 -141.5 5t-218.5 4t-218.5 -4t-141.5 -5v43q89 0 132.5 36.5t43.5 131.5v203q-39 -36 -94 -54t-136 -18 q-122 0 -215.5 60t-147.5 187t-54 321q0 181 53 305t150.5 186t230.5 62q134 0 213 -52v189q0 95 -26 137.5t-89 42.5v43q65 -6 127 -6q215 0 356 29v-455q92 72 291 72zM616 1024q-167 0 -167 -492q0 -184 19 -288t54.5 -145.5t89.5 -41.5q53 0 101 25v915q-45 27 -97 27z M1153 33q101 0 147 122.5t46 374.5q0 184 -19.5 288.5t-56 146t-92.5 41.5q-25 0 -54.5 -8t-42.5 -17v-931q28 -17 72 -17z" horiz-adv-x="1794" glyph-name="uni0444" unicode="ф"/>
<glyph d="M1056.5 111q19.5 -27 41 -45.5t41.5 -22.5v-43q-208 8 -269 8q-62 0 -282 -8v43q29 0 45.5 10t16.5 27t-11 33l-201 303l-18 -23q-77 -99 -77 -191q0 -67 40 -111.5t106 -49.5v-41q-124 6 -333 6q-82 0 -138 -6v41q51 25 95.5 64.5t97.5 103.5l206 238l-313 471 q-32 50 -54.5 73t-51.5 29v43q236 -8 309 -8q54 0 242 8v-43q-29 0 -45.5 -10t-16.5 -27q0 -16 11 -33l178 -269l35 42q76 92 76 174q0 53 -34 86.5t-96 38.5v41q126 -6 273 -6q82 0 137 6v-41q-85 -38 -193 -168l-177 -205l335 -504q5 -7 24.5 -34z" horiz-adv-x="1120" glyph-name="uni0445" unicode="х"/>
<glyph d="M1230.5 1005q-24.5 -13 -35.5 -45t-11 -90v-680q0 -57 15.5 -89t48.5 -45t91 -13q-14 -134 -14 -238q0 -81 6 -127h-47q-25 122 -67.5 192t-111.5 101t-175 31q-47 0 -102.5 -1t-147.5 -1q-85 0 -185.5 4t-144.5 4q-71 0 -307 -8v43q43 0 68 13t36 45t11 89v680 q0 58 -11 90t-36 45t-68 13v43q220 -8 287 -8t291 8v-43q-36 0 -56.5 -13t-29.5 -45t-9 -90v-680q0 -57 9 -89t29.5 -45t56.5 -13h100q36 0 56 13t29 44.5t9 89.5v680q0 58 -9 90t-29 45t-56 13v43q204 -8 270 -8q71 0 307 8v-43q-43 0 -67.5 -13z" horiz-adv-x="1370" glyph-name="uni0446" unicode="ц"/>
<glyph d="M1157 1005q-25 -13 -36 -45t-11 -90v-680q0 -57 11 -89t36 -45t68 -13v-43q-224 8 -283 8q-73 0 -377 -8v43q89 0 132.5 36.5t43.5 131.5v211q-53 -24 -139.5 -43t-181.5 -19q-167 0 -236 66q-38 35 -48.5 83.5t-10.5 133.5v227q0 58 -11 90t-36 45t-68 13v43 q224 -8 289 -8t289 8v-43q-36 0 -56 -13t-29 -45t-9 -90v-229q0 -83 8.5 -125t37.5 -63t91 -21q69 0 110 25v413q0 58 -9 90t-29 45t-56 13v43q204 -8 271 -8t307 8v-43q-43 0 -68 -13z" horiz-adv-x="1268" glyph-name="uni0447" unicode="ч"/>
<glyph d="M1888 1005q-25 -13 -36 -45t-11 -90v-680q0 -57 11 -89t36 -45t68 -13v-43q-220 8 -287 8q-39 0 -144 -4t-188 -4t-186.5 4t-138.5 4q-40 0 -145 -4t-187 -4q-85 0 -185.5 4t-144.5 4q-71 0 -307 -8v43q43 0 68 13t36 45t11 89v680q0 58 -11 90t-36 45t-68 13v43 q220 -8 287 -8t291 8v-43q-36 0 -56.5 -13t-29.5 -45t-9 -90v-680q0 -57 9 -89t29.5 -45t56.5 -13h100q36 0 56 13t29 44.5t9 89.5v680q0 58 -9 90t-29 45t-56 13v43q204 -8 270 -8q67 0 287 8v-43q-36 0 -56 -13t-29 -45t-9 -90v-680q0 -58 9 -89.5t29 -44.5t56 -13h100 q36 0 56.5 13t29.5 45t9 89v680q0 58 -9 90t-29.5 45t-56.5 13v43q208 -8 271 -8q67 0 307 8v-43q-43 0 -68 -13z" horiz-adv-x="1999" glyph-name="uni0448" unicode="ш"/>
<glyph d="M1888 1005q-25 -13 -36 -45t-11 -90v-680q0 -57 15.5 -89t49 -45t91.5 -13q-15 -144 -15 -238q0 -73 7 -127h-47q-25 122 -68 192t-112 101t-175 31q-43 0 -103 -1t-147 -1q-83 0 -186.5 4t-138.5 4q-40 0 -145 -4t-187 -4q-85 0 -185.5 4t-144.5 4q-71 0 -307 -8v43 q43 0 68 13t36 45t11 89v680q0 58 -11 90t-36 45t-68 13v43q220 -8 287 -8t291 8v-43q-36 0 -56.5 -13t-29.5 -45t-9 -90v-680q0 -57 9 -89t29.5 -45t56.5 -13h100q36 0 56 13t29 44.5t9 89.5v680q0 58 -9 90t-29 45t-56 13v43q204 -8 270 -8q67 0 287 8v-43q-36 0 -56 -13 t-29 -45t-9 -90v-680q0 -58 9 -89.5t29 -44.5t56 -13h100q36 0 56.5 13t29.5 45t9 89v680q0 58 -9 90t-29.5 45t-56.5 13v43q208 -8 271 -8q67 0 307 8v-43q-43 0 -68 -13z" horiz-adv-x="2028" glyph-name="uni0449" unicode="щ"/>
<glyph d="M942 616q168 0 281 -37.5t168 -103t55 -149.5t-55 -158t-176.5 -121t-309.5 -47q-41 0 -132.5 4t-154.5 4q-66 0 -362 -8v43q63 0 99.5 10t56.5 41.5t20 95.5v721q0 62 -11 84.5t-42 22.5h-6q-43 0 -93 -45t-98 -140.5t-82 -238.5h-47q6 53 6 147q0 139 -14 320 q170 0 279 -2q354 -6 325 -6q62 0 266 8v-43q-43 0 -67.5 -13t-35.5 -45t-12 -90v-257q127 3 142 3zM805 69.5q6 -15.5 22 -21t50 -5.5q192 0 192 260q0 99 -26 157t-83.5 84.5t-154.5 26.5h-6v-452q0 -34 6 -49.5z" horiz-adv-x="1475" glyph-name="uni044A" unicode="ъ"/>
<glyph d="M664 616q168 0 281 -37.5t167.5 -103t54.5 -149.5t-55 -158t-176 -121t-309 -47q-41 0 -132.5 4t-154.5 4q-59 0 -283 -8v43q36 0 56.5 13t29.5 45t9 89v680q0 58 -9 90t-29.5 45t-56.5 13v43q208 -8 273 -8t305 8v-43q-43 0 -68 -13t-36 -45t-11 -90v-257q130 3 144 3z M1691.5 1005q-24.5 -13 -35.5 -45t-11 -90v-680q0 -57 11 -89t35.5 -45t67.5 -13v-43q-236 8 -307 8q-67 0 -291 -8v43q43 0 68 13t36 45t11 89v680q0 58 -11 90t-36 45t-68 13v43q240 -8 312 -8q66 0 286 8v-43q-43 0 -67.5 -13zM526.5 69.5q6.5 -15.5 22.5 -21t49 -5.5 q193 0 193 260q0 99 -26 157t-83.5 84.5t-155.5 26.5h-6v-452q0 -34 6.5 -49.5z" horiz-adv-x="1802" glyph-name="uni044B" unicode="ы"/>
<glyph d="M664 616q168 0 281 -37.5t167.5 -103t54.5 -149.5t-55 -158t-176 -121t-309 -47q-41 0 -132.5 4t-154.5 4q-59 0 -283 -8v43q36 0 56.5 13t29.5 45t9 89v680q0 58 -9 90t-29.5 45t-56.5 13v43q208 -8 273 -8t305 8v-43q-43 0 -68 -13t-36 -45t-11 -90v-257q130 3 144 3z M526.5 69.5q6.5 -15.5 22.5 -21t49 -5.5q193 0 193 260q0 99 -26 157t-83.5 84.5t-155.5 26.5h-6v-452q0 -34 6.5 -49.5z" horiz-adv-x="1196" glyph-name="uni044C" unicode="ь"/>
<glyph d="M196 1007q15 0 37 13q136 72 287 72q241 0 376.5 -135t135.5 -422q0 -284 -155.5 -424t-438.5 -140q-180 0 -282 56q-47 28 -75 71t-28 95q0 65 49.5 107t135.5 42q90 0 145 -39.5t55 -105.5q0 -58 -42 -102t-105 -60q36 -6 71 -6q125 0 206 112t81 373q0 45 -2 86 q-40 -82 -87 -114.5t-111 -32.5q-26 0 -54 11t-86 42t-90 31q-30 0 -52.5 -15.5t-47.5 -56.5l-29 14q37 112 80.5 160.5t118.5 48.5q37 0 86.5 -26.5t85.5 -41t90 -14.5q57 0 93 47q-16 194 -75 285.5t-151 91.5q-118 0 -201 -98q-49 -58 -67 -156h-48q0 225 -8 316h47 q15 -85 55 -85z" horiz-adv-x="1094" glyph-name="uni044D" unicode="э"/>
<glyph d="M817.5 963.5q131.5 128.5 370.5 128.5q242 0 374 -132.5t132 -429.5q0 -296 -132 -427.5t-374 -131.5q-237 0 -368.5 126t-137.5 409h-156v-316q0 -57 9 -89t29.5 -45t56.5 -13v-43q-208 8 -271 8q-71 0 -307 -8v43q43 0 68 13t36 45t11 89v680q0 58 -11 90t-36 45 t-68 13v43q220 -8 287 -8t291 8v-43q-36 0 -56.5 -13t-29.5 -45t-9 -90v-323h156q4 288 135.5 416.5zM1278 128.5q33 116.5 33 401.5q0 286 -33 403.5t-90 117.5q-58 0 -90.5 -117t-32.5 -404q0 -286 32.5 -402t90.5 -116q57 0 90 116.5z" horiz-adv-x="1757" glyph-name="uni044E" unicode="ю"/>
<glyph d="M1136 1005q-20 -13 -29 -45t-9 -90v-680q0 -58 9 -89.5t29 -44.5t56 -13v-43q-204 8 -270 8q-67 0 -287 -8v43q36 0 56 13t29 44.5t9 89.5v297h-16q-53 -4 -84.5 -13.5t-49.5 -26t-36 -44.5q-40 -63 -66 -262q-3 -20 -3 -37q0 -61 54 -61v-43q-236 8 -301 8 q-63 0 -235 -8v43q40 6 60.5 30t43.5 83q18 44 38.5 100t31 81t24.5 44q20 26 48 45t86 36.5t156 27.5q-214 14 -306 91t-92 195q0 139 126 212t406 73q52 0 142.5 -4t152.5 -4q63 0 283 8v-43q-36 0 -56 -13zM723 990.5q-6 15.5 -20.5 21.5t-43.5 6q-113 0 -156.5 -64.5 t-43.5 -175.5q0 -91 26 -145t83.5 -78.5t154.5 -24.5h6v412q0 33 -6 48.5z" horiz-adv-x="1249" glyph-name="uni044F" unicode="я"/>
<glyph d="M446 559q0 -197 68.5 -280.5t167.5 -83.5q149 0 248 137l35 -13q-29 -91 -84 -169.5t-142 -128.5t-202 -50q-215 0 -344.5 133.5t-129.5 425.5q0 190 68 316t186.5 186t272.5 60q387 0 387 -459h-529q-2 -24 -2 -74zM654.5 939.5q-25.5 104.5 -79.5 104.5q-56 0 -90 -88 t-44 -284h237q2 163 -23.5 267.5zM417 1556q41 -25 66 -66t25 -87q0 -48 -24.5 -89t-66 -65t-87.5 -24q-49 0 -90 24t-65 65t-24 89q0 46 24 87.5t65.5 66t89.5 24.5q46 0 87 -25zM904 1556q41 -25 66 -66t25 -87q0 -48 -24.5 -89t-66 -65t-87.5 -24q-48 0 -89 24t-65 65 t-24 89q0 46 24 87.5t65 66t89 24.5q46 0 87 -25z" glyph-name="uni0451" unicode="ё"/>
<glyph d="M846 1092q163 0 231 -82q31 -37 45.5 -99.5t14.5 -165.5v-581q0 -120 -15 -201t-46.5 -138.5t-84.5 -107.5q-52 -49 -140.5 -75.5t-252.5 -26.5q-119 0 -230.5 33t-111.5 127q0 37 24.5 71.5t73 56t115.5 21.5q93 0 153 -34.5t60 -98.5q0 -96 -137 -129q24 -4 61 -4 q96 0 137 100q25 58 25 312v94v692q0 66 -24 97.5t-76 31.5q-38 0 -72 -19t-55 -52.5t-21 -75.5v-648q0 -57 9 -89t29 -45t56 -13v-43q-204 8 -270 8q-71 0 -307 -8v43q43 0 68 13t36 45t11 89v1055h-129v41h129v70q0 95 -26 137.5t-89 42.5v43q64 -6 127 -6q215 0 356 29 v-316h295v-41h-295v-307q93 154 326 154z" horiz-adv-x="1253" glyph-name="uni0452" unicode="ђ"/>
<glyph d="M899 741q0 -94 6 -147h-47q-34 143 -81.5 238.5t-97.5 140.5t-93 45h-2q-30 0 -44 -24.5t-14 -82.5v-700q0 -95 43.5 -131.5t132.5 -36.5v-43q-300 8 -376 8q-63 0 -283 -8v43q43 0 68 13t36 45t11 89v680q0 58 -11 90t-36 45t-68 13v43q220 -8 287 -8q63 0 156 4t114 4 h313q-14 -181 -14 -320zM418.5 1455.5q28.5 95.5 42.5 134t45 73.5q19 23 49 36t62 13q51 0 90 -33q42 -33 42 -92q0 -54 -34 -94q-34 -41 -98.5 -81t-123.5 -79t-139 -106l-22 18q58 115 86.5 210.5z" horiz-adv-x="958" glyph-name="uni0453" unicode="ѓ"/>
<glyph d="M539 -29q-131 0 -239 56t-173.5 179.5t-65.5 317.5t67 321t187.5 187t282.5 60q170 0 272 -62q45 -27 68 -65t23 -93q0 -47 -25 -86.5t-71 -62.5t-107 -23q-55 0 -96.5 20t-64 55.5t-22.5 80.5q0 108 138 182q-9 2 -20 5.5t-27 3.5q-126 0 -184 -117t-58 -318 q0 -71 7 -129q41 91 89.5 127.5t116.5 36.5q26 0 51 -11t75.5 -42t82.5 -31q30 0 52.5 15.5t47.5 56.5l29 -14q-37 -112 -80.5 -160.5t-118.5 -48.5q-37 0 -80 26.5t-75 41t-86 14.5q-60 0 -98 -53q24 -138 90.5 -192t170.5 -54q151 0 250 137l35 -13q-114 -348 -444 -348z " horiz-adv-x="1036" glyph-name="uni0454" unicode="є"/>
<glyph d="M177.5 201q35.5 -84 92 -131t129.5 -47q52 0 85.5 28.5t33.5 83.5q0 57 -23.5 102.5t-57.5 81t-109 103.5q-87 80 -131.5 127t-76.5 109.5t-32 138.5q0 88 53 155t141 103.5t191 36.5q81 0 150.5 -17.5t107.5 -38.5q21 -12 37 -12q41 0 51 66h41q-8 -107 -8 -369h-41 q-16 134 -76.5 227.5t-175.5 93.5q-52 0 -86.5 -31t-34.5 -83q0 -69 46 -121.5t108.5 -101t91.5 -72.5q76 -63 121 -109t72.5 -104.5t27.5 -132.5q0 -91 -55.5 -163.5t-150 -112.5t-207.5 -40q-128 0 -211 52q-66 34 -103 34q-39 0 -57 -71h-41q8 117 8 409h41 q13 -110 48.5 -194z" horiz-adv-x="967" glyph-name="uni0455" unicode="ѕ"/>
<glyph d="M503 1557q58 -45 58 -132q0 -86 -58 -131t-165 -45q-109 0 -166 44.5t-57 131.5t57 132t166 45q107 0 165 -45zM537 101q11 -32 36 -45t68 -13v-43q-220 8 -291 8t-307 -8v43q43 0 68 13t36 45t11 89v650q0 95 -26 137.5t-89 42.5v43q65 -6 127 -6q213 0 356 28v-895 q0 -57 11 -89z" horiz-adv-x="676" glyph-name="uni0456" unicode="і"/>
<glyph d="M537 101q11 -32 36 -45t68 -13v-43q-220 8 -291 8t-307 -8v43q43 0 68 13t36 45t11 89v650q0 95 -26 137.5t-89 42.5v43q65 -6 127 -6q213 0 356 28v-895q0 -57 11 -89zM190 1556q41 -25 66 -66t25 -87q0 -48 -24.5 -89t-66 -65t-87.5 -24q-49 0 -90 24t-65 65t-24 89 q0 46 24 87.5t65.5 66t89.5 24.5q46 0 87 -25zM677 1556q41 -25 66 -66t25 -87q0 -48 -24.5 -89t-66 -65t-87.5 -24q-48 0 -89 24t-65 65t-24 89q0 46 24 87.5t65 66t89 24.5q46 0 87 -25z" horiz-adv-x="676" glyph-name="uni0457" unicode="ї"/>
<glyph d="M495 1557q58 -45 58 -132q0 -86 -58 -131t-165 -45q-109 0 -166.5 45t-57.5 131q0 87 57.5 132t166.5 45q107 0 165 -45zM506 -39.5q-14 -81.5 -45.5 -138.5t-85.5 -105q-118 -102 -387 -102q-137 0 -228 41q-49 22 -76.5 62t-27.5 89q0 72 55 115t146 43q86 0 135 -38.5 t49 -112.5q0 -48 -29.5 -90t-89.5 -64q38 -4 55 -4q44 0 81 17t57 48q18 30 26 80t9.5 124.5t1.5 238.5v676q0 95 -26 137.5t-89 42.5v43q64 -6 127 -6q213 0 356 28v-921q0 -122 -14 -203.5z" horiz-adv-x="649" glyph-name="uni0458" unicode="ј"/>
<glyph d="M1300 616q169 0 282 -37.5t167.5 -103t54.5 -149.5t-55 -158t-176 -121t-309 -47q-41 0 -128.5 4t-150.5 4q-67 0 -291 -8v43q36 0 56 13t29 44.5t9 89.5v680q0 58 -9 90t-29 45t-56 13h-18q-39 0 -57 -14t-24.5 -41.5t-12.5 -92.5q-15 -169 -27.5 -277t-34 -214.5 t-55.5 -192.5q-44 -111 -101.5 -163t-136.5 -52q-53 0 -106 24t-88 75.5t-35 128.5q0 96 54.5 150t146.5 54q77 0 125.5 -49.5t48.5 -136.5q0 -70 -48.5 -127t-115.5 -84q12 -4 29 -4q115 0 192 193q48 121 72.5 283t42.5 392l1 20q0 71 -39.5 99.5t-123.5 28.5v43 q92 -8 133 -8q36 0 100.5 4t94.5 4q26 0 110.5 -4t149.5 -4q60 0 280 8v-43q-36 0 -56.5 -13t-29 -45t-8.5 -90v-257q130 3 143 3zM1163 69.5q6 -15.5 22 -21t50 -5.5q192 0 192 260q0 99 -26 157t-83 84.5t-155 26.5h-6v-452q0 -34 6 -49.5z" horiz-adv-x="1833" glyph-name="uni0459" unicode="љ"/>
<glyph d="M1327 612q169 0 282 -36.5t167.5 -101t54.5 -148.5t-55 -158t-176.5 -121t-309.5 -47q-41 0 -128.5 4t-149.5 4q-71 0 -291 -8v43q36 0 56 13t29 44.5t9 89.5v381h-289v-381q0 -57 9 -89t29.5 -45t56.5 -13v-43q-208 8 -271 8q-71 0 -307 -8v43q43 0 68 13t36 45t11 89 v680q0 58 -11 90t-36 45t-68 13v43q220 -8 287 -8t291 8v-43q-36 0 -56.5 -13t-29.5 -45t-9 -90v-258h289v258q0 58 -9 90t-29 45t-56 13v43q204 -8 270 -8q71 0 307 8v-43q-43 0 -67.5 -13t-35.5 -45t-11 -90v-258h143zM1190 69.5q6 -15.5 22 -21t50 -5.5q192 0 192 260 q0 98 -26 156t-83.5 84t-154.5 26h-6v-450q0 -34 6 -49.5z" horiz-adv-x="1860" glyph-name="uni045A" unicode="њ"/>
<glyph d="M1148 101q11 -32 35.5 -45t67.5 -13v-43q-220 8 -286 8q-71 0 -291 -8v43q36 0 56 13t29 45t9 89v666q0 66 -24 97.5t-76 31.5q-38 0 -72 -19t-55 -52.5t-21 -75.5v-648q0 -57 9 -89t29 -45t56 -13v-43q-204 8 -270 8q-71 0 -307 -8v43q43 0 68 13t36 45t11 89v1055h-129 v41h129v70q0 95 -26 137.5t-89 42.5v43q64 -6 127 -6q215 0 356 29v-316h295v-41h-295v-307q93 154 326 154q163 0 231 -82q31 -37 45.5 -99.5t14.5 -165.5v-555q0 -57 11 -89z" horiz-adv-x="1274" glyph-name="uni045B" unicode="ћ"/>
<glyph d="M633.5 1455.5q28.5 95.5 42.5 134t45 73.5q19 23 49 36t62 13q51 0 90 -33q42 -33 42 -92q0 -54 -34 -94q-34 -41 -98.5 -81t-123.5 -79t-139 -106l-22 18q58 115 86.5 210.5zM648.5 592q42.5 25 64.5 71.5t45 139.5q27 112 50.5 168.5t70.5 88.5t135 32q117 0 175 -53.5 t58 -143.5q0 -88 -51 -138t-131 -50q-46 0 -91.5 16.5t-76.5 54t-31 96.5q0 48 29.5 95.5t89.5 79.5q-68 -4 -100.5 -33.5t-45.5 -69.5t-48 -178q-21 -82 -45.5 -127t-72.5 -71q53 6 97 6q200 0 293 -107q28 -33 45 -73t42 -116.5t44 -123.5q24 -60 44 -83.5t60 -29.5v-43 q-172 8 -235 8q-65 0 -301 -8v43q54 0 54 62q0 16 -3 36q-6 38 -23.5 101.5t-42.5 126.5t-53 98q-44 59 -136 59q-21 0 -32 -1v-335q0 -57 11 -89t36 -45t68 -13v-43q-236 8 -307 8t-291 -8v43q43 0 68 13t36 45t11 89v680q0 58 -11 90t-36 45t-68 13v43q236 -8 311 -8 q67 0 287 8v-43q-43 0 -68 -13t-36 -45t-11 -90v-308q80 5 122.5 30z" horiz-adv-x="1315" glyph-name="uni045C" unicode="ќ"/>
<glyph d="M918 1055q116 0 157 8v-43q-42 -16 -77.5 -61t-67.5 -138l-256 -762l-86 -247q-38 -107 -90 -148q-63 -49 -191 -49q-63 0 -127 19.5t-107.5 62.5t-43.5 110q0 72 54.5 115t145.5 43q87 0 136 -38.5t49 -112.5q0 -49 -34 -93t-99 -65q20 -4 69 -4q141 0 195 164l11 33 l-478 1056q-31 70 -60.5 92.5t-58.5 22.5v43q163 -12 334 -12q133 0 297 12v-43q-61 0 -92 -8t-31 -38q0 -15 8 -32l253 -600l85 262q39 116 39 210q0 96 -41.5 148.5t-108.5 57.5v43q77 -8 216 -8zM910.5 1611.5q40.5 -22.5 63.5 -63t23 -92.5q0 -55 -34 -100t-85 -72 q-130 -70 -346 -70q-218 0 -348 70q-50 27 -82.5 72t-32.5 100q0 79 49 128.5t129 49.5q50 0 90.5 -22.5t64 -63.5t23.5 -92q0 -61 -36 -105t-95 -65q118 -31 238 -31q122 0 235 33q-58 21 -92.5 64.5t-34.5 103.5q0 52 23 92.5t63.5 63t92.5 22.5q51 0 91.5 -22.5z" horiz-adv-x="1083" glyph-name="uni045E" unicode="ў"/>
<glyph d="M1230.5 1005q-24.5 -13 -35.5 -45t-11 -90v-680q0 -57 11 -89t35.5 -45t67.5 -13v-43q-203 7 -258 8q-116 -2 -180.5 -34.5t-98 -100t-59.5 -195.5h-47q-26 128 -59 195.5t-97 100t-181 34.5q-58 -1 -275 -8v43q43 0 68 13t36 45t11 89v680q0 58 -11 90t-36 45t-68 13v43 q220 -8 287 -8t291 8v-43q-36 0 -56.5 -13t-29.5 -45t-9 -90v-680q0 -57 9 -89t29.5 -45t56.5 -13h100q36 0 56 13t29 44.5t9 89.5v680q0 58 -9 90t-29 45t-56 13v43q204 -8 270 -8q71 0 307 8v-43q-43 0 -67.5 -13z" horiz-adv-x="1341" glyph-name="uni045F" unicode="џ"/>
<glyph d="M1143 1626q0 -143 14 -229q-102 6 -373 6q-74 0 -107.5 -12t-46 -46.5t-12.5 -111.5v-1016q0 -77 12.5 -112t46 -48t107.5 -16v-41q-126 6 -362 6q-248 0 -365 -6v41q65 3 94.5 16t40.5 48t11 112v1016q0 77 -10.5 112t-40 48t-95.5 16v41q69 -1 189.5 -4.5t203.5 -3.5 q53 0 131.5 4t102.5 4q86 0 173 41.5t153 115.5t92 167h47q-6 -55 -6 -148z" horiz-adv-x="1169" glyph-name="uni0490" unicode="Ґ"/>
<glyph d="M899 1255q0 -103 14 -237h-231q-62 0 -95 -13t-47 -44.5t-14 -90.5v-659q0 -95 43.5 -131.5t132.5 -36.5v-43q-300 8 -376 8q-63 0 -283 -8v43q43 0 68 13t36 45t11 89v680q0 58 -11 90t-36 45t-68 13v43q220 -8 287 -8q95 0 223 8q88 5 147 39t97 102.5t61 179.5h47 q-6 -45 -6 -127z" horiz-adv-x="938" glyph-name="uni0491" unicode="ґ"/>
<glyph d="M-518 -113l-39 27l1198 1774l39 -27z" horiz-adv-x="123" glyph-name="fraction" unicode="⁄"/>
<glyph d="M129 696v62h1026v-62h-1026z" horiz-adv-x="1284" glyph-name="minus" unicode="−"/>
<glyph d="M377 651q106 0 172.5 -38.5t66.5 -112.5q0 -71 -53.5 -120t-151 -107t-137.5 -85h281q31 0 49 7.5t27.5 21.5t19.5 41l35 -6q-29 -167 -31 -256q-24 6 -78 6h-532v41q24 21 124.5 98t158 154t57.5 164q0 47 -30.5 74.5t-86.5 27.5q-107 0 -170 -90l-30 16 q100 164 309 164z" glyph-name="two.dnom" horiz-adv-x="735"/>
<glyph d="M723 31q-25 6 -78 6h-61v-240h-170v240h-404v43l531 571h43v-473h37q31 0 48.5 7.5t27 21t20.5 41.5l35 -6q-21 -59 -29 -211zM414 467l-268 -289h268v289z" glyph-name="four.dnom" horiz-adv-x="776"/>
<glyph d="M162 1766q64 77 91.5 107t70.5 50q28 14 63 14q40 0 75 -19.5t54 -57.5q12 -27 12 -54q0 -37 -20.5 -70t-56.5 -50q-47 -25 -123 -37t-145.5 -24.5t-168.5 -43.5l-14 25q98 83 162 160z" glyph-name="acute.case" horiz-adv-x="563"/>
<glyph d="M352 -92q84 0 128 -33t44 -86q0 -86 -105 -130t-280 -44q-126 0 -205 27l13 36q55 -10 119 -10q76 0 132 20t56 58q0 51 -98 51q-43 0 -68 -14l66 227h55l-39 -133q81 31 182 31z" glyph-name="cedilla.case" horiz-adv-x="504"/>
<glyph d="M643 1764.5q119 -95.5 252 -158.5l-10 -31q-140 22 -276.5 56.5t-217.5 68.5q-68 -34 -182 -68.5t-229 -56.5l-11 31q130 62 248.5 156.5t196.5 195.5h37q73 -98 192 -193.5z" glyph-name="circumflex.case" horiz-adv-x="864"/>
<glyph d="M210 1892q41 -25 66 -66t25 -87q0 -48 -24.5 -89t-66 -65t-87.5 -24q-48 0 -89 24t-65 64.5t-24 89.5q0 46 24 87.5t65 66t89 24.5q46 0 87 -25zM738 1892q41 -25 66 -66t25 -87q0 -48 -24.5 -89t-66 -65t-87.5 -24q-48 0 -89 24t-65 64.5t-24 89.5q0 46 24 87.5t65 66 t89 24.5q46 0 87 -25z" glyph-name="dieresis.case" horiz-adv-x="774"/>
<glyph d="M367 1618.5q-61 12.5 -154.5 27.5t-140.5 40q-36 18 -57 50.5t-21 69.5q0 27 12 54q19 38 54 57.5t76 19.5q33 0 63 -14q34 -16 59.5 -40.5t95.5 -109t168 -167.5l-14 -25q-80 25 -141 37.5z" glyph-name="grave.case" horiz-adv-x="563"/>
<glyph d="M387 1909.5q55 -25.5 88 -72.5t33 -108q0 -63 -33 -110.5t-88 -73t-119 -25.5q-63 0 -117.5 25.5t-87 73t-32.5 110.5q0 61 32.5 108t87 72.5t117.5 25.5q64 0 119 -25.5zM182 1872q-42 -20 -68 -57.5t-26 -88.5q0 -52 26 -89t67.5 -55.5t86.5 -18.5q46 0 88 18.5 t68.5 55.5t26.5 89q0 51 -26.5 88.5t-69 57.5t-87.5 20q-44 0 -86 -20z" glyph-name="ring.case" horiz-adv-x="539"/>
<glyph d="M110.5 1844q81.5 77 184.5 77q77 0 131 -18.5t146 -67.5t176 -49q115 0 198 108l29 -14q-39 -159 -120 -236t-183 -77q-78 0 -132.5 19t-147 68.5t-175.5 49.5q-114 0 -199 -111l-28 15q39 159 120.5 236z" glyph-name="tilde.case" horiz-adv-x="967"/>
<glyph d="M882.5 1611.5q40.5 -22.5 63.5 -63t23 -92.5q0 -55 -34 -100t-85 -72q-130 -70 -346 -70q-218 0 -348 70q-50 27 -82.5 72t-32.5 100q0 79 49 128.5t129 49.5q50 0 90.5 -22.5t64 -63.5t23.5 -92q0 -61 -36 -105t-95 -65q118 -31 238 -31q122 0 235 33q-58 21 -92.5 64.5 t-34.5 103.5q0 52 23 92.5t63.5 63t92.5 22.5q51 0 91.5 -22.5z" glyph-name="brevecy" horiz-adv-x="1010"/>
<glyph d="M994.5 1919q45.5 -20 71.5 -54.5t26 -76.5q0 -97 -140 -160q-66 -30 -166 -48.5t-221 -18.5q-122 0 -222.5 18.5t-166.5 48.5q-61 27 -98 67.5t-37 92.5q0 41 24.5 75.5t69.5 55t103 20.5q56 0 102 -20t72 -55.5t26 -79.5q0 -58 -42.5 -96.5t-108.5 -55.5 q132 -30 278 -30q149 0 277 32q-68 18 -108 56.5t-40 93.5q0 44 25.5 79t71 55.5t102.5 20.5q56 0 101.5 -20z" glyph-name="brevecy.case" horiz-adv-x="1133"/>
</font>
</defs>
</svg>
